SplineFontDB: 3.2
FontName: Dotrice-Condensed
FullName: Dotrice Condensed
FamilyName: Dotrice
Weight: Regular
Copyright: Paul Flo Williams, 2010
Version: 1.001
ItalicAngle: 0
UnderlinePosition: -150
UnderlineWidth: 50
Ascent: 750
Descent: 250
InvalidEm: 0
sfntRevision: 0x00010041
LayerCount: 2
Layer: 0 0 "Back" 1
Layer: 1 0 "Fore" 0
XUID: [1021 948 -373161249 3236160]
StyleMap: 0x0040
FSType: 0
OS2Version: 4
OS2_WeightWidthSlopeOnly: 0
OS2_UseTypoMetrics: 1
CreationTime: 1283345713
ModificationTime: 1306952481
PfmFamily: 81
TTFWeight: 400
TTFWidth: 2
LineGap: 90
VLineGap: 0
Panose: 4 8 5 9 2 15 4 2 4 2
OS2TypoAscent: 750
OS2TypoAOffset: 0
OS2TypoDescent: -250
OS2TypoDOffset: 0
OS2TypoLinegap: 90
OS2WinAscent: 680
OS2WinAOffset: 0
OS2WinDescent: 200
OS2WinDOffset: 0
HheadAscent: 680
HheadAOffset: 0
HheadDescent: -200
HheadDOffset: 0
OS2SubXSize: 650
OS2SubYSize: 699
OS2SubXOff: 0
OS2SubYOff: 140
OS2SupXSize: 650
OS2SupYSize: 699
OS2SupXOff: 0
OS2SupYOff: 479
OS2StrikeYSize: 49
OS2StrikeYPos: 258
OS2CapHeight: 26
OS2XHeight: 28
OS2FamilyClass: 2058
OS2Vendor: 'HDAD'
OS2CodePages: 00000001.00000000
OS2UnicodeRanges: 00000003.00000002.00000000.00000000
MarkAttachClasses: 1
DEI: 91125

StartChar: .notdef
Encoding: 65536 -1 0
Width: 432
GlyphClass: 1
Flags: MW
HStem: -200 80<29 47.8901 104.11 119.89 176.11 191.89 248.11 263.89 320.11 339> -100 80<29 51 317 339> 0 80<29 47.8901 104.11 123 245 263.89 320.11 339> 100 80<29 51 137 155.89 212.11 231 317 339> 200 80<29 51 173 195 317 339> 300 80<29 51 137 155.89 212.11 231 317 339> 400 80<29 47.8901 104.11 123 245 263.89 320.11 339> 500 80<29 51 317 339> 600 80<29 47.8901 104.11 119.89 176.11 191.89 248.11 263.89 320.11 339>
CounterMasks: 1 0070
LayerCount: 2
Fore
SplineSet
0 -160 m 0
 0 -138 18 -120 40 -120 c 0
 55.7802734375 -120 69.501953125 -129.260742188 76 -142.616210938 c 1
 82.498046875 -129.260742188 96.2197265625 -120 112 -120 c 0
 127.780273438 -120 141.501953125 -129.260742188 148 -142.616210938 c 1
 154.498046875 -129.260742188 168.219726562 -120 184 -120 c 0
 199.780273438 -120 213.501953125 -129.260742188 220 -142.616210938 c 1
 226.498046875 -129.260742188 240.219726562 -120 256 -120 c 0
 271.780273438 -120 285.501953125 -129.260742188 292 -142.616210938 c 1
 298.498046875 -129.260742188 312.219726562 -120 328 -120 c 0
 350 -120 368 -138 368 -160 c 0
 368 -182 350 -200 328 -200 c 0
 312.219726562 -200 298.498046875 -190.739257812 292 -177.383789062 c 1
 285.501953125 -190.739257812 271.780273438 -200 256 -200 c 0
 240.219726562 -200 226.498046875 -190.739257812 220 -177.383789062 c 1
 213.501953125 -190.739257812 199.780273438 -200 184 -200 c 0
 168.219726562 -200 154.498046875 -190.739257812 148 -177.383789062 c 1
 141.501953125 -190.739257812 127.780273438 -200 112 -200 c 0
 96.2197265625 -200 82.498046875 -190.739257812 76 -177.383789062 c 1
 69.501953125 -190.739257812 55.7802734375 -200 40 -200 c 0
 18 -200 0 -182 0 -160 c 0
288 -60 m 0
 288 -38 306 -20 328 -20 c 0
 350 -20 368 -38 368 -60 c 0
 368 -82 350 -100 328 -100 c 0
 306 -100 288 -82 288 -60 c 0
0 -60 m 0
 0 -38 18 -20 40 -20 c 0
 62 -20 80 -38 80 -60 c 0
 80 -82 62 -100 40 -100 c 0
 18 -100 0 -82 0 -60 c 0
216 40 m 0
 216 62 234 80 256 80 c 0
 271.780273438 80 285.501953125 70.7392578125 292 57.3837890625 c 1
 298.498046875 70.7392578125 312.219726562 80 328 80 c 0
 350 80 368 62 368 40 c 0
 368 18 350 0 328 0 c 0
 312.219726562 0 298.498046875 9.2607421875 292 22.6162109375 c 1
 285.501953125 9.2607421875 271.780273438 0 256 0 c 0
 234 0 216 18 216 40 c 0
0 40 m 0
 0 62 18 80 40 80 c 0
 55.7802734375 80 69.501953125 70.7392578125 76 57.3837890625 c 1
 82.498046875 70.7392578125 96.2197265625 80 112 80 c 0
 134 80 152 62 152 40 c 0
 152 18 134 0 112 0 c 0
 96.2197265625 0 82.498046875 9.2607421875 76 22.6162109375 c 1
 69.501953125 9.2607421875 55.7802734375 0 40 0 c 0
 18 0 0 18 0 40 c 0
288 140 m 0
 288 162 306 180 328 180 c 0
 350 180 368 162 368 140 c 0
 368 118 350 100 328 100 c 0
 306 100 288 118 288 140 c 0
108 140 m 0
 108 162 126 180 148 180 c 0
 163.780273438 180 177.501953125 170.739257812 184 157.383789062 c 1
 190.498046875 170.739257812 204.219726562 180 220 180 c 0
 242 180 260 162 260 140 c 0
 260 118 242 100 220 100 c 0
 204.219726562 100 190.498046875 109.260742188 184 122.616210938 c 1
 177.501953125 109.260742188 163.780273438 100 148 100 c 0
 126 100 108 118 108 140 c 0
0 140 m 0
 0 162 18 180 40 180 c 0
 62 180 80 162 80 140 c 0
 80 118 62 100 40 100 c 0
 18 100 0 118 0 140 c 0
288 240 m 0
 288 262 306 280 328 280 c 0
 350 280 368 262 368 240 c 0
 368 218 350 200 328 200 c 0
 306 200 288 218 288 240 c 0
144 240 m 0
 144 262 162 280 184 280 c 0
 206 280 224 262 224 240 c 0
 224 218 206 200 184 200 c 0
 162 200 144 218 144 240 c 0
0 240 m 0
 0 262 18 280 40 280 c 0
 62 280 80 262 80 240 c 0
 80 218 62 200 40 200 c 0
 18 200 0 218 0 240 c 0
288 340 m 0
 288 362 306 380 328 380 c 0
 350 380 368 362 368 340 c 0
 368 318 350 300 328 300 c 0
 306 300 288 318 288 340 c 0
108 340 m 0
 108 362 126 380 148 380 c 0
 163.780273438 380 177.501953125 370.739257812 184 357.383789062 c 1
 190.498046875 370.739257812 204.219726562 380 220 380 c 0
 242 380 260 362 260 340 c 0
 260 318 242 300 220 300 c 0
 204.219726562 300 190.498046875 309.260742188 184 322.616210938 c 1
 177.501953125 309.260742188 163.780273438 300 148 300 c 0
 126 300 108 318 108 340 c 0
0 340 m 0
 0 362 18 380 40 380 c 0
 62 380 80 362 80 340 c 0
 80 318 62 300 40 300 c 0
 18 300 0 318 0 340 c 0
216 440 m 0
 216 462 234 480 256 480 c 0
 271.780273438 480 285.501953125 470.739257812 292 457.383789062 c 1
 298.498046875 470.739257812 312.219726562 480 328 480 c 0
 350 480 368 462 368 440 c 0
 368 418 350 400 328 400 c 0
 312.219726562 400 298.498046875 409.260742188 292 422.616210938 c 1
 285.501953125 409.260742188 271.780273438 400 256 400 c 0
 234 400 216 418 216 440 c 0
0 440 m 0
 0 462 18 480 40 480 c 0
 55.7802734375 480 69.501953125 470.739257812 76 457.383789062 c 1
 82.498046875 470.739257812 96.2197265625 480 112 480 c 0
 134 480 152 462 152 440 c 0
 152 418 134 400 112 400 c 0
 96.2197265625 400 82.498046875 409.260742188 76 422.616210938 c 1
 69.501953125 409.260742188 55.7802734375 400 40 400 c 0
 18 400 0 418 0 440 c 0
288 540 m 0
 288 562 306 580 328 580 c 0
 350 580 368 562 368 540 c 0
 368 518 350 500 328 500 c 0
 306 500 288 518 288 540 c 0
0 540 m 0
 0 562 18 580 40 580 c 0
 62 580 80 562 80 540 c 0
 80 518 62 500 40 500 c 0
 18 500 0 518 0 540 c 0
0 640 m 0
 0 662 18 680 40 680 c 0
 55.7802734375 680 69.501953125 670.739257812 76 657.383789062 c 1
 82.498046875 670.739257812 96.2197265625 680 112 680 c 0
 127.780273438 680 141.501953125 670.739257812 148 657.383789062 c 1
 154.498046875 670.739257812 168.219726562 680 184 680 c 0
 199.780273438 680 213.501953125 670.739257812 220 657.383789062 c 1
 226.498046875 670.739257812 240.219726562 680 256 680 c 0
 271.780273438 680 285.501953125 670.739257812 292 657.383789062 c 1
 298.498046875 670.739257812 312.219726562 680 328 680 c 0
 350 680 368 662 368 640 c 0
 368 618 350 600 328 600 c 0
 312.219726562 600 298.498046875 609.260742188 292 622.616210938 c 1
 285.501953125 609.260742188 271.780273438 600 256 600 c 0
 240.219726562 600 226.498046875 609.260742188 220 622.616210938 c 1
 213.501953125 609.260742188 199.780273438 600 184 600 c 0
 168.219726562 600 154.498046875 609.260742188 148 622.616210938 c 1
 141.501953125 609.260742188 127.780273438 600 112 600 c 0
 96.2197265625 600 82.498046875 609.260742188 76 622.616210938 c 1
 69.501953125 609.260742188 55.7802734375 600 40 600 c 0
 18 600 0 618 0 640 c 0
EndSplineSet
EndChar

StartChar: exclam
Encoding: 33 33 2
Width: 432
GlyphClass: 2
Flags: MW
HStem: 0 80<173 195> 300 80<173 195> 400 80<173 195> 500 80<173 195> 600 80<173 195>
LayerCount: 2
Fore
SplineSet
144 40 m 0
 144 62 162 80 184 80 c 0
 206 80 224 62 224 40 c 0
 224 18 206 0 184 0 c 0
 162 0 144 18 144 40 c 0
144 340 m 0
 144 362 162 380 184 380 c 0
 206 380 224 362 224 340 c 0
 224 318 206 300 184 300 c 0
 162 300 144 318 144 340 c 0
144 440 m 0
 144 462 162 480 184 480 c 0
 206 480 224 462 224 440 c 0
 224 418 206 400 184 400 c 0
 162 400 144 418 144 440 c 0
144 540 m 0
 144 562 162 580 184 580 c 0
 206 580 224 562 224 540 c 0
 224 518 206 500 184 500 c 0
 162 500 144 518 144 540 c 0
144 640 m 0
 144 662 162 680 184 680 c 0
 206 680 224 662 224 640 c 0
 224 618 206 600 184 600 c 0
 162 600 144 618 144 640 c 0
EndSplineSet
EndChar

StartChar: quotedbl
Encoding: 34 34 3
Width: 432
GlyphClass: 2
Flags: MW
HStem: 400 80<101 123 245 267> 500 80<101 123 245 267> 600 80<101 123 245 267>
CounterMasks: 1 e0
LayerCount: 2
Fore
SplineSet
216 440 m 0
 216 462 234 480 256 480 c 0
 278 480 296 462 296 440 c 0
 296 418 278 400 256 400 c 0
 234 400 216 418 216 440 c 0
72 440 m 0
 72 462 90 480 112 480 c 0
 134 480 152 462 152 440 c 0
 152 418 134 400 112 400 c 0
 90 400 72 418 72 440 c 0
216 540 m 0
 216 562 234 580 256 580 c 0
 278 580 296 562 296 540 c 0
 296 518 278 500 256 500 c 0
 234 500 216 518 216 540 c 0
72 540 m 0
 72 562 90 580 112 580 c 0
 134 580 152 562 152 540 c 0
 152 518 134 500 112 500 c 0
 90 500 72 518 72 540 c 0
216 640 m 0
 216 662 234 680 256 680 c 0
 278 680 296 662 296 640 c 0
 296 618 278 600 256 600 c 0
 234 600 216 618 216 640 c 0
72 640 m 0
 72 662 90 680 112 680 c 0
 134 680 152 662 152 640 c 0
 152 618 134 600 112 600 c 0
 90 600 72 618 72 640 c 0
EndSplineSet
EndChar

StartChar: numbersign
Encoding: 35 35 4
Width: 432
GlyphClass: 2
Flags: MW
HStem: 0 80<101 123 245 267> 100 80<101 123 245 267> 200 80<29 47.8901 104.11 119.89 176.11 191.89 248.11 263.89 320.11 339> 300 80<101 123 245 267> 400 80<29 47.8901 104.11 119.89 176.11 191.89 248.11 263.89 320.11 339> 500 80<101 123 245 267> 600 80<101 123 245 267>
LayerCount: 2
Fore
SplineSet
216 40 m 0
 216 62 234 80 256 80 c 0
 278 80 296 62 296 40 c 0
 296 18 278 0 256 0 c 0
 234 0 216 18 216 40 c 0
72 40 m 0
 72 62 90 80 112 80 c 0
 134 80 152 62 152 40 c 0
 152 18 134 0 112 0 c 0
 90 0 72 18 72 40 c 0
216 140 m 0
 216 162 234 180 256 180 c 0
 278 180 296 162 296 140 c 0
 296 118 278 100 256 100 c 0
 234 100 216 118 216 140 c 0
72 140 m 0
 72 162 90 180 112 180 c 0
 134 180 152 162 152 140 c 0
 152 118 134 100 112 100 c 0
 90 100 72 118 72 140 c 0
0 240 m 0
 0 262 18 280 40 280 c 0
 55.7802734375 280 69.501953125 270.739257812 76 257.383789062 c 1
 82.498046875 270.739257812 96.2197265625 280 112 280 c 0
 127.780273438 280 141.501953125 270.739257812 148 257.383789062 c 1
 154.498046875 270.739257812 168.219726562 280 184 280 c 0
 199.780273438 280 213.501953125 270.739257812 220 257.383789062 c 1
 226.498046875 270.739257812 240.219726562 280 256 280 c 0
 271.780273438 280 285.501953125 270.739257812 292 257.383789062 c 1
 298.498046875 270.739257812 312.219726562 280 328 280 c 0
 350 280 368 262 368 240 c 0
 368 218 350 200 328 200 c 0
 312.219726562 200 298.498046875 209.260742188 292 222.616210938 c 1
 285.501953125 209.260742188 271.780273438 200 256 200 c 0
 240.219726562 200 226.498046875 209.260742188 220 222.616210938 c 1
 213.501953125 209.260742188 199.780273438 200 184 200 c 0
 168.219726562 200 154.498046875 209.260742188 148 222.616210938 c 1
 141.501953125 209.260742188 127.780273438 200 112 200 c 0
 96.2197265625 200 82.498046875 209.260742188 76 222.616210938 c 1
 69.501953125 209.260742188 55.7802734375 200 40 200 c 0
 18 200 0 218 0 240 c 0
216 340 m 0
 216 362 234 380 256 380 c 0
 278 380 296 362 296 340 c 0
 296 318 278 300 256 300 c 0
 234 300 216 318 216 340 c 0
72 340 m 0
 72 362 90 380 112 380 c 0
 134 380 152 362 152 340 c 0
 152 318 134 300 112 300 c 0
 90 300 72 318 72 340 c 0
0 440 m 0
 0 462 18 480 40 480 c 0
 55.7802734375 480 69.501953125 470.739257812 76 457.383789062 c 1
 82.498046875 470.739257812 96.2197265625 480 112 480 c 0
 127.780273438 480 141.501953125 470.739257812 148 457.383789062 c 1
 154.498046875 470.739257812 168.219726562 480 184 480 c 0
 199.780273438 480 213.501953125 470.739257812 220 457.383789062 c 1
 226.498046875 470.739257812 240.219726562 480 256 480 c 0
 271.780273438 480 285.501953125 470.739257812 292 457.383789062 c 1
 298.498046875 470.739257812 312.219726562 480 328 480 c 0
 350 480 368 462 368 440 c 0
 368 418 350 400 328 400 c 0
 312.219726562 400 298.498046875 409.260742188 292 422.616210938 c 1
 285.501953125 409.260742188 271.780273438 400 256 400 c 0
 240.219726562 400 226.498046875 409.260742188 220 422.616210938 c 1
 213.501953125 409.260742188 199.780273438 400 184 400 c 0
 168.219726562 400 154.498046875 409.260742188 148 422.616210938 c 1
 141.501953125 409.260742188 127.780273438 400 112 400 c 0
 96.2197265625 400 82.498046875 409.260742188 76 422.616210938 c 1
 69.501953125 409.260742188 55.7802734375 400 40 400 c 0
 18 400 0 418 0 440 c 0
216 540 m 0
 216 562 234 580 256 580 c 0
 278 580 296 562 296 540 c 0
 296 518 278 500 256 500 c 0
 234 500 216 518 216 540 c 0
72 540 m 0
 72 562 90 580 112 580 c 0
 134 580 152 562 152 540 c 0
 152 518 134 500 112 500 c 0
 90 500 72 518 72 540 c 0
216 640 m 0
 216 662 234 680 256 680 c 0
 278 680 296 662 296 640 c 0
 296 618 278 600 256 600 c 0
 234 600 216 618 216 640 c 0
72 640 m 0
 72 662 90 680 112 680 c 0
 134 680 152 662 152 640 c 0
 152 618 134 600 112 600 c 0
 90 600 72 618 72 640 c 0
EndSplineSet
EndChar

StartChar: dollar
Encoding: 36 36 5
Width: 432
GlyphClass: 2
Flags: MW
HStem: 0 80<173 195> 100 80<29 47.8901 104.11 119.89 176.11 191.89 248.11 267> 200 80<173 195 317 339> 300 80<101 119.89 176.11 191.89 248.11 267> 400 80<29 51 173 195> 500 80<101 119.89 176.11 191.89 248.11 263.89 320.11 339> 600 80<173 195>
CounterMasks: 1 01
LayerCount: 2
Fore
SplineSet
144 40 m 0
 144 62 162 80 184 80 c 0
 206 80 224 62 224 40 c 0
 224 18 206 0 184 0 c 0
 162 0 144 18 144 40 c 0
0 140 m 0
 0 162 18 180 40 180 c 0
 55.7802734375 180 69.501953125 170.739257812 76 157.383789062 c 1
 82.498046875 170.739257812 96.2197265625 180 112 180 c 0
 127.780273438 180 141.501953125 170.739257812 148 157.383789062 c 1
 154.498046875 170.739257812 168.219726562 180 184 180 c 0
 199.780273438 180 213.501953125 170.739257812 220 157.383789062 c 1
 226.498046875 170.739257812 240.219726562 180 256 180 c 0
 278 180 296 162 296 140 c 0
 296 118 278 100 256 100 c 0
 240.219726562 100 226.498046875 109.260742188 220 122.616210938 c 1
 213.501953125 109.260742188 199.780273438 100 184 100 c 0
 168.219726562 100 154.498046875 109.260742188 148 122.616210938 c 1
 141.501953125 109.260742188 127.780273438 100 112 100 c 0
 96.2197265625 100 82.498046875 109.260742188 76 122.616210938 c 1
 69.501953125 109.260742188 55.7802734375 100 40 100 c 0
 18 100 0 118 0 140 c 0
288 240 m 0
 288 262 306 280 328 280 c 0
 350 280 368 262 368 240 c 0
 368 218 350 200 328 200 c 0
 306 200 288 218 288 240 c 0
144 240 m 0
 144 262 162 280 184 280 c 0
 206 280 224 262 224 240 c 0
 224 218 206 200 184 200 c 0
 162 200 144 218 144 240 c 0
72 340 m 0
 72 362 90 380 112 380 c 0
 127.780273438 380 141.501953125 370.739257812 148 357.383789062 c 1
 154.498046875 370.739257812 168.219726562 380 184 380 c 0
 199.780273438 380 213.501953125 370.739257812 220 357.383789062 c 1
 226.498046875 370.739257812 240.219726562 380 256 380 c 0
 278 380 296 362 296 340 c 0
 296 318 278 300 256 300 c 0
 240.219726562 300 226.498046875 309.260742188 220 322.616210938 c 1
 213.501953125 309.260742188 199.780273438 300 184 300 c 0
 168.219726562 300 154.498046875 309.260742188 148 322.616210938 c 1
 141.501953125 309.260742188 127.780273438 300 112 300 c 0
 90 300 72 318 72 340 c 0
144 440 m 0
 144 462 162 480 184 480 c 0
 206 480 224 462 224 440 c 0
 224 418 206 400 184 400 c 0
 162 400 144 418 144 440 c 0
0 440 m 0
 0 462 18 480 40 480 c 0
 62 480 80 462 80 440 c 0
 80 418 62 400 40 400 c 0
 18 400 0 418 0 440 c 0
72 540 m 0
 72 562 90 580 112 580 c 0
 127.780273438 580 141.501953125 570.739257812 148 557.383789062 c 1
 154.498046875 570.739257812 168.219726562 580 184 580 c 0
 199.780273438 580 213.501953125 570.739257812 220 557.383789062 c 1
 226.498046875 570.739257812 240.219726562 580 256 580 c 0
 271.780273438 580 285.501953125 570.739257812 292 557.383789062 c 1
 298.498046875 570.739257812 312.219726562 580 328 580 c 0
 350 580 368 562 368 540 c 0
 368 518 350 500 328 500 c 0
 312.219726562 500 298.498046875 509.260742188 292 522.616210938 c 1
 285.501953125 509.260742188 271.780273438 500 256 500 c 0
 240.219726562 500 226.498046875 509.260742188 220 522.616210938 c 1
 213.501953125 509.260742188 199.780273438 500 184 500 c 0
 168.219726562 500 154.498046875 509.260742188 148 522.616210938 c 1
 141.501953125 509.260742188 127.780273438 500 112 500 c 0
 90 500 72 518 72 540 c 0
144 640 m 0
 144 662 162 680 184 680 c 0
 206 680 224 662 224 640 c 0
 224 618 206 600 184 600 c 0
 162 600 144 618 144 640 c 0
EndSplineSet
EndChar

StartChar: percent
Encoding: 37 37 6
Width: 432
GlyphClass: 2
Flags: MW
HStem: 0 80<65 87 245 263.89 320.11 339> 100 80<101 123 245 263.89 320.11 339> 200 80<137 159> 300 80<173 195> 400 80<209 231> 500 80<29 47.8901 104.11 123 245 267> 600 80<29 47.8901 104.11 123 281 303>
LayerCount: 2
Fore
SplineSet
216 40 m 0
 216 62 234 80 256 80 c 0
 271.780273438 80 285.501953125 70.7392578125 292 57.3837890625 c 1
 298.498046875 70.7392578125 312.219726562 80 328 80 c 0
 350 80 368 62 368 40 c 0
 368 18 350 0 328 0 c 0
 312.219726562 0 298.498046875 9.2607421875 292 22.6162109375 c 1
 285.501953125 9.2607421875 271.780273438 0 256 0 c 0
 234 0 216 18 216 40 c 0
36 40 m 0
 36 62 54 80 76 80 c 0
 98 80 116 62 116 40 c 0
 116 18 98 0 76 0 c 0
 54 0 36 18 36 40 c 0
216 140 m 0
 216 162 234 180 256 180 c 0
 271.780273438 180 285.501953125 170.739257812 292 157.383789062 c 1
 298.498046875 170.739257812 312.219726562 180 328 180 c 0
 350 180 368 162 368 140 c 0
 368 118 350 100 328 100 c 0
 312.219726562 100 298.498046875 109.260742188 292 122.616210938 c 1
 285.501953125 109.260742188 271.780273438 100 256 100 c 0
 234 100 216 118 216 140 c 0
72 140 m 0
 72 162 90 180 112 180 c 0
 134 180 152 162 152 140 c 0
 152 118 134 100 112 100 c 0
 90 100 72 118 72 140 c 0
108 240 m 0
 108 262 126 280 148 280 c 0
 170 280 188 262 188 240 c 0
 188 218 170 200 148 200 c 0
 126 200 108 218 108 240 c 0
144 340 m 0
 144 362 162 380 184 380 c 0
 206 380 224 362 224 340 c 0
 224 318 206 300 184 300 c 0
 162 300 144 318 144 340 c 0
180 440 m 0
 180 462 198 480 220 480 c 0
 242 480 260 462 260 440 c 0
 260 418 242 400 220 400 c 0
 198 400 180 418 180 440 c 0
216 540 m 0
 216 562 234 580 256 580 c 0
 278 580 296 562 296 540 c 0
 296 518 278 500 256 500 c 0
 234 500 216 518 216 540 c 0
0 540 m 0
 0 562 18 580 40 580 c 0
 55.7802734375 580 69.501953125 570.739257812 76 557.383789062 c 1
 82.498046875 570.739257812 96.2197265625 580 112 580 c 0
 134 580 152 562 152 540 c 0
 152 518 134 500 112 500 c 0
 96.2197265625 500 82.498046875 509.260742188 76 522.616210938 c 1
 69.501953125 509.260742188 55.7802734375 500 40 500 c 0
 18 500 0 518 0 540 c 0
252 640 m 0
 252 662 270 680 292 680 c 0
 314 680 332 662 332 640 c 0
 332 618 314 600 292 600 c 0
 270 600 252 618 252 640 c 0
0 640 m 0
 0 662 18 680 40 680 c 0
 55.7802734375 680 69.501953125 670.739257812 76 657.383789062 c 1
 82.498046875 670.739257812 96.2197265625 680 112 680 c 0
 134 680 152 662 152 640 c 0
 152 618 134 600 112 600 c 0
 96.2197265625 600 82.498046875 609.260742188 76 622.616210938 c 1
 69.501953125 609.260742188 55.7802734375 600 40 600 c 0
 18 600 0 618 0 640 c 0
EndSplineSet
EndChar

StartChar: ampersand
Encoding: 38 38 7
Width: 432
GlyphClass: 2
Flags: MW
HStem: 0 80<101 119.89 176.11 195 317 339> 100 80<29 51 245 267> 200 80<29 51 173 195 281 303> 300 80<101 123 317 339> 400 80<65 83.8901 140.11 159> 500 80<29 51 173 195> 600 80<65 83.8901 140.11 159>
LayerCount: 2
Fore
SplineSet
288 40 m 0
 288 62 306 80 328 80 c 0
 350 80 368 62 368 40 c 0
 368 18 350 0 328 0 c 0
 306 0 288 18 288 40 c 0
72 40 m 0
 72 62 90 80 112 80 c 0
 127.780273438 80 141.501953125 70.7392578125 148 57.3837890625 c 1
 154.498046875 70.7392578125 168.219726562 80 184 80 c 0
 206 80 224 62 224 40 c 0
 224 18 206 0 184 0 c 0
 168.219726562 0 154.498046875 9.2607421875 148 22.6162109375 c 1
 141.501953125 9.2607421875 127.780273438 0 112 0 c 0
 90 0 72 18 72 40 c 0
216 140 m 0
 216 162 234 180 256 180 c 0
 278 180 296 162 296 140 c 0
 296 118 278 100 256 100 c 0
 234 100 216 118 216 140 c 0
0 140 m 0
 0 162 18 180 40 180 c 0
 62 180 80 162 80 140 c 0
 80 118 62 100 40 100 c 0
 18 100 0 118 0 140 c 0
252 240 m 0
 252 262 270 280 292 280 c 0
 314 280 332 262 332 240 c 0
 332 218 314 200 292 200 c 0
 270 200 252 218 252 240 c 0
144 240 m 0
 144 262 162 280 184 280 c 0
 206 280 224 262 224 240 c 0
 224 218 206 200 184 200 c 0
 162 200 144 218 144 240 c 0
0 240 m 0
 0 262 18 280 40 280 c 0
 62 280 80 262 80 240 c 0
 80 218 62 200 40 200 c 0
 18 200 0 218 0 240 c 0
288 340 m 0
 288 362 306 380 328 380 c 0
 350 380 368 362 368 340 c 0
 368 318 350 300 328 300 c 0
 306 300 288 318 288 340 c 0
72 340 m 0
 72 362 90 380 112 380 c 0
 134 380 152 362 152 340 c 0
 152 318 134 300 112 300 c 0
 90 300 72 318 72 340 c 0
36 440 m 0
 36 462 54 480 76 480 c 0
 91.7802734375 480 105.501953125 470.739257812 112 457.383789062 c 1
 118.498046875 470.739257812 132.219726562 480 148 480 c 0
 170 480 188 462 188 440 c 0
 188 418 170 400 148 400 c 0
 132.219726562 400 118.498046875 409.260742188 112 422.616210938 c 1
 105.501953125 409.260742188 91.7802734375 400 76 400 c 0
 54 400 36 418 36 440 c 0
144 540 m 0
 144 562 162 580 184 580 c 0
 206 580 224 562 224 540 c 0
 224 518 206 500 184 500 c 0
 162 500 144 518 144 540 c 0
0 540 m 0
 0 562 18 580 40 580 c 0
 62 580 80 562 80 540 c 0
 80 518 62 500 40 500 c 0
 18 500 0 518 0 540 c 0
36 640 m 0
 36 662 54 680 76 680 c 0
 91.7802734375 680 105.501953125 670.739257812 112 657.383789062 c 1
 118.498046875 670.739257812 132.219726562 680 148 680 c 0
 170 680 188 662 188 640 c 0
 188 618 170 600 148 600 c 0
 132.219726562 600 118.498046875 609.260742188 112 622.616210938 c 1
 105.501953125 609.260742188 91.7802734375 600 76 600 c 0
 54 600 36 618 36 640 c 0
EndSplineSet
EndChar

StartChar: quotesingle
Encoding: 39 39 8
Width: 432
GlyphClass: 2
Flags: MW
HStem: 500 80<173 195> 600 80<209 231>
LayerCount: 2
Fore
SplineSet
144 540 m 0
 144 562 162 580 184 580 c 0
 206 580 224 562 224 540 c 0
 224 518 206 500 184 500 c 0
 162 500 144 518 144 540 c 0
180 640 m 0
 180 662 198 680 220 680 c 0
 242 680 260 662 260 640 c 0
 260 618 242 600 220 600 c 0
 198 600 180 618 180 640 c 0
EndSplineSet
EndChar

StartChar: parenleft
Encoding: 40 40 9
Width: 432
GlyphClass: 2
Flags: MW
HStem: 0 80<245 267> 100 80<209 231> 200 80<173 195> 300 80<173 195> 400 80<173 195> 500 80<209 231> 600 80<245 267>
LayerCount: 2
Fore
SplineSet
216 40 m 0
 216 62 234 80 256 80 c 0
 278 80 296 62 296 40 c 0
 296 18 278 0 256 0 c 0
 234 0 216 18 216 40 c 0
180 140 m 0
 180 162 198 180 220 180 c 0
 242 180 260 162 260 140 c 0
 260 118 242 100 220 100 c 0
 198 100 180 118 180 140 c 0
144 240 m 0
 144 262 162 280 184 280 c 0
 206 280 224 262 224 240 c 0
 224 218 206 200 184 200 c 0
 162 200 144 218 144 240 c 0
144 340 m 0
 144 362 162 380 184 380 c 0
 206 380 224 362 224 340 c 0
 224 318 206 300 184 300 c 0
 162 300 144 318 144 340 c 0
144 440 m 0
 144 462 162 480 184 480 c 0
 206 480 224 462 224 440 c 0
 224 418 206 400 184 400 c 0
 162 400 144 418 144 440 c 0
180 540 m 0
 180 562 198 580 220 580 c 0
 242 580 260 562 260 540 c 0
 260 518 242 500 220 500 c 0
 198 500 180 518 180 540 c 0
216 640 m 0
 216 662 234 680 256 680 c 0
 278 680 296 662 296 640 c 0
 296 618 278 600 256 600 c 0
 234 600 216 618 216 640 c 0
EndSplineSet
EndChar

StartChar: parenright
Encoding: 41 41 10
Width: 432
GlyphClass: 2
Flags: MW
HStem: 0 80<101 123> 100 80<137 159> 200 80<173 195> 300 80<173 195> 400 80<173 195> 500 80<137 159> 600 80<101 123>
LayerCount: 2
Fore
SplineSet
72 40 m 0
 72 62 90 80 112 80 c 0
 134 80 152 62 152 40 c 0
 152 18 134 0 112 0 c 0
 90 0 72 18 72 40 c 0
108 140 m 0
 108 162 126 180 148 180 c 0
 170 180 188 162 188 140 c 0
 188 118 170 100 148 100 c 0
 126 100 108 118 108 140 c 0
144 240 m 0
 144 262 162 280 184 280 c 0
 206 280 224 262 224 240 c 0
 224 218 206 200 184 200 c 0
 162 200 144 218 144 240 c 0
144 340 m 0
 144 362 162 380 184 380 c 0
 206 380 224 362 224 340 c 0
 224 318 206 300 184 300 c 0
 162 300 144 318 144 340 c 0
144 440 m 0
 144 462 162 480 184 480 c 0
 206 480 224 462 224 440 c 0
 224 418 206 400 184 400 c 0
 162 400 144 418 144 440 c 0
108 540 m 0
 108 562 126 580 148 580 c 0
 170 580 188 562 188 540 c 0
 188 518 170 500 148 500 c 0
 126 500 108 518 108 540 c 0
72 640 m 0
 72 662 90 680 112 680 c 0
 134 680 152 662 152 640 c 0
 152 618 134 600 112 600 c 0
 90 600 72 618 72 640 c 0
EndSplineSet
EndChar

StartChar: asterisk
Encoding: 42 42 11
Width: 432
GlyphClass: 2
Flags: MW
HStem: 100 80<101 123 245 267> 200 80<137 155.89 212.11 231> 300 80<29 47.8901 104.11 119.89 176.11 191.89 248.11 263.89 320.11 339> 400 80<137 155.89 212.11 231> 500 80<101 123 245 267>
LayerCount: 2
Fore
SplineSet
216 140 m 0
 216 162 234 180 256 180 c 0
 278 180 296 162 296 140 c 0
 296 118 278 100 256 100 c 0
 234 100 216 118 216 140 c 0
72 140 m 0
 72 162 90 180 112 180 c 0
 134 180 152 162 152 140 c 0
 152 118 134 100 112 100 c 0
 90 100 72 118 72 140 c 0
108 240 m 0
 108 262 126 280 148 280 c 0
 163.780273438 280 177.501953125 270.739257812 184 257.383789062 c 1
 190.498046875 270.739257812 204.219726562 280 220 280 c 0
 242 280 260 262 260 240 c 0
 260 218 242 200 220 200 c 0
 204.219726562 200 190.498046875 209.260742188 184 222.616210938 c 1
 177.501953125 209.260742188 163.780273438 200 148 200 c 0
 126 200 108 218 108 240 c 0
0 340 m 0
 0 362 18 380 40 380 c 0
 55.7802734375 380 69.501953125 370.739257812 76 357.383789062 c 1
 82.498046875 370.739257812 96.2197265625 380 112 380 c 0
 127.780273438 380 141.501953125 370.739257812 148 357.383789062 c 1
 154.498046875 370.739257812 168.219726562 380 184 380 c 0
 199.780273438 380 213.501953125 370.739257812 220 357.383789062 c 1
 226.498046875 370.739257812 240.219726562 380 256 380 c 0
 271.780273438 380 285.501953125 370.739257812 292 357.383789062 c 1
 298.498046875 370.739257812 312.219726562 380 328 380 c 0
 350 380 368 362 368 340 c 0
 368 318 350 300 328 300 c 0
 312.219726562 300 298.498046875 309.260742188 292 322.616210938 c 1
 285.501953125 309.260742188 271.780273438 300 256 300 c 0
 240.219726562 300 226.498046875 309.260742188 220 322.616210938 c 1
 213.501953125 309.260742188 199.780273438 300 184 300 c 0
 168.219726562 300 154.498046875 309.260742188 148 322.616210938 c 1
 141.501953125 309.260742188 127.780273438 300 112 300 c 0
 96.2197265625 300 82.498046875 309.260742188 76 322.616210938 c 1
 69.501953125 309.260742188 55.7802734375 300 40 300 c 0
 18 300 0 318 0 340 c 0
108 440 m 0
 108 462 126 480 148 480 c 0
 163.780273438 480 177.501953125 470.739257812 184 457.383789062 c 1
 190.498046875 470.739257812 204.219726562 480 220 480 c 0
 242 480 260 462 260 440 c 0
 260 418 242 400 220 400 c 0
 204.219726562 400 190.498046875 409.260742188 184 422.616210938 c 1
 177.501953125 409.260742188 163.780273438 400 148 400 c 0
 126 400 108 418 108 440 c 0
216 540 m 0
 216 562 234 580 256 580 c 0
 278 580 296 562 296 540 c 0
 296 518 278 500 256 500 c 0
 234 500 216 518 216 540 c 0
72 540 m 0
 72 562 90 580 112 580 c 0
 134 580 152 562 152 540 c 0
 152 518 134 500 112 500 c 0
 90 500 72 518 72 540 c 0
EndSplineSet
EndChar

StartChar: plus
Encoding: 43 43 12
Width: 432
GlyphClass: 2
Flags: MW
HStem: 100 80<173 195> 200 80<173 195> 300 80<29 47.8901 104.11 119.89 176.11 191.89 248.11 263.89 320.11 339> 400 80<173 195> 500 80<173 195>
LayerCount: 2
Fore
SplineSet
144 140 m 0
 144 162 162 180 184 180 c 0
 206 180 224 162 224 140 c 0
 224 118 206 100 184 100 c 0
 162 100 144 118 144 140 c 0
144 240 m 0
 144 262 162 280 184 280 c 0
 206 280 224 262 224 240 c 0
 224 218 206 200 184 200 c 0
 162 200 144 218 144 240 c 0
0 340 m 0
 0 362 18 380 40 380 c 0
 55.7802734375 380 69.501953125 370.739257812 76 357.383789062 c 1
 82.498046875 370.739257812 96.2197265625 380 112 380 c 0
 127.780273438 380 141.501953125 370.739257812 148 357.383789062 c 1
 154.498046875 370.739257812 168.219726562 380 184 380 c 0
 199.780273438 380 213.501953125 370.739257812 220 357.383789062 c 1
 226.498046875 370.739257812 240.219726562 380 256 380 c 0
 271.780273438 380 285.501953125 370.739257812 292 357.383789062 c 1
 298.498046875 370.739257812 312.219726562 380 328 380 c 0
 350 380 368 362 368 340 c 0
 368 318 350 300 328 300 c 0
 312.219726562 300 298.498046875 309.260742188 292 322.616210938 c 1
 285.501953125 309.260742188 271.780273438 300 256 300 c 0
 240.219726562 300 226.498046875 309.260742188 220 322.616210938 c 1
 213.501953125 309.260742188 199.780273438 300 184 300 c 0
 168.219726562 300 154.498046875 309.260742188 148 322.616210938 c 1
 141.501953125 309.260742188 127.780273438 300 112 300 c 0
 96.2197265625 300 82.498046875 309.260742188 76 322.616210938 c 1
 69.501953125 309.260742188 55.7802734375 300 40 300 c 0
 18 300 0 318 0 340 c 0
144 440 m 0
 144 462 162 480 184 480 c 0
 206 480 224 462 224 440 c 0
 224 418 206 400 184 400 c 0
 162 400 144 418 144 440 c 0
144 540 m 0
 144 562 162 580 184 580 c 0
 206 580 224 562 224 540 c 0
 224 518 206 500 184 500 c 0
 162 500 144 518 144 540 c 0
EndSplineSet
EndChar

StartChar: comma
Encoding: 44 44 13
Width: 432
GlyphClass: 2
Flags: MW
HStem: -200 80<173 195> -100 80<209 231> 0 80<137 155.89 212.11 231> 100 80<137 155.89 212.11 231>
LayerCount: 2
Fore
SplineSet
144 -160 m 0
 144 -138 162 -120 184 -120 c 0
 206 -120 224 -138 224 -160 c 0
 224 -182 206 -200 184 -200 c 0
 162 -200 144 -182 144 -160 c 0
180 -60 m 0
 180 -38 198 -20 220 -20 c 0
 242 -20 260 -38 260 -60 c 0
 260 -82 242 -100 220 -100 c 0
 198 -100 180 -82 180 -60 c 0
108 40 m 0
 108 62 126 80 148 80 c 0
 163.780273438 80 177.501953125 70.7392578125 184 57.3837890625 c 1
 190.498046875 70.7392578125 204.219726562 80 220 80 c 0
 242 80 260 62 260 40 c 0
 260 18 242 0 220 0 c 0
 204.219726562 0 190.498046875 9.2607421875 184 22.6162109375 c 1
 177.501953125 9.2607421875 163.780273438 0 148 0 c 0
 126 0 108 18 108 40 c 0
108 140 m 0
 108 162 126 180 148 180 c 0
 163.780273438 180 177.501953125 170.739257812 184 157.383789062 c 1
 190.498046875 170.739257812 204.219726562 180 220 180 c 0
 242 180 260 162 260 140 c 0
 260 118 242 100 220 100 c 0
 204.219726562 100 190.498046875 109.260742188 184 122.616210938 c 1
 177.501953125 109.260742188 163.780273438 100 148 100 c 0
 126 100 108 118 108 140 c 0
EndSplineSet
EndChar

StartChar: hyphen
Encoding: 45 45 14
Width: 432
GlyphClass: 2
Flags: MW
HStem: 300 80<29 47.8901 104.11 119.89 176.11 191.89 248.11 263.89 320.11 339>
LayerCount: 2
Fore
SplineSet
0 340 m 0
 0 362 18 380 40 380 c 0
 55.7802734375 380 69.501953125 370.739257812 76 357.383789062 c 1
 82.498046875 370.739257812 96.2197265625 380 112 380 c 0
 127.780273438 380 141.501953125 370.739257812 148 357.383789062 c 1
 154.498046875 370.739257812 168.219726562 380 184 380 c 0
 199.780273438 380 213.501953125 370.739257812 220 357.383789062 c 1
 226.498046875 370.739257812 240.219726562 380 256 380 c 0
 271.780273438 380 285.501953125 370.739257812 292 357.383789062 c 1
 298.498046875 370.739257812 312.219726562 380 328 380 c 0
 350 380 368 362 368 340 c 0
 368 318 350 300 328 300 c 0
 312.219726562 300 298.498046875 309.260742188 292 322.616210938 c 1
 285.501953125 309.260742188 271.780273438 300 256 300 c 0
 240.219726562 300 226.498046875 309.260742188 220 322.616210938 c 1
 213.501953125 309.260742188 199.780273438 300 184 300 c 0
 168.219726562 300 154.498046875 309.260742188 148 322.616210938 c 1
 141.501953125 309.260742188 127.780273438 300 112 300 c 0
 96.2197265625 300 82.498046875 309.260742188 76 322.616210938 c 1
 69.501953125 309.260742188 55.7802734375 300 40 300 c 0
 18 300 0 318 0 340 c 0
EndSplineSet
EndChar

StartChar: period
Encoding: 46 46 15
Width: 432
GlyphClass: 2
Flags: MW
HStem: 0 80<101 119.89 176.11 195> 100 80<101 119.89 176.11 195>
LayerCount: 2
Fore
SplineSet
72 40 m 0
 72 62 90 80 112 80 c 0
 127.780273438 80 141.501953125 70.7392578125 148 57.3837890625 c 1
 154.498046875 70.7392578125 168.219726562 80 184 80 c 0
 206 80 224 62 224 40 c 0
 224 18 206 0 184 0 c 0
 168.219726562 0 154.498046875 9.2607421875 148 22.6162109375 c 1
 141.501953125 9.2607421875 127.780273438 0 112 0 c 0
 90 0 72 18 72 40 c 0
72 140 m 0
 72 162 90 180 112 180 c 0
 127.780273438 180 141.501953125 170.739257812 148 157.383789062 c 1
 154.498046875 170.739257812 168.219726562 180 184 180 c 0
 206 180 224 162 224 140 c 0
 224 118 206 100 184 100 c 0
 168.219726562 100 154.498046875 109.260742188 148 122.616210938 c 1
 141.501953125 109.260742188 127.780273438 100 112 100 c 0
 90 100 72 118 72 140 c 0
EndSplineSet
EndChar

StartChar: slash
Encoding: 47 47 16
Width: 432
GlyphClass: 2
Flags: MW
HStem: 0 80<65 87> 100 80<101 123> 200 80<137 159> 300 80<173 195> 400 80<209 231> 500 80<245 267> 600 80<281 303>
LayerCount: 2
Fore
SplineSet
36 40 m 0
 36 62 54 80 76 80 c 0
 98 80 116 62 116 40 c 0
 116 18 98 0 76 0 c 0
 54 0 36 18 36 40 c 0
72 140 m 0
 72 162 90 180 112 180 c 0
 134 180 152 162 152 140 c 0
 152 118 134 100 112 100 c 0
 90 100 72 118 72 140 c 0
108 240 m 0
 108 262 126 280 148 280 c 0
 170 280 188 262 188 240 c 0
 188 218 170 200 148 200 c 0
 126 200 108 218 108 240 c 0
144 340 m 0
 144 362 162 380 184 380 c 0
 206 380 224 362 224 340 c 0
 224 318 206 300 184 300 c 0
 162 300 144 318 144 340 c 0
180 440 m 0
 180 462 198 480 220 480 c 0
 242 480 260 462 260 440 c 0
 260 418 242 400 220 400 c 0
 198 400 180 418 180 440 c 0
216 540 m 0
 216 562 234 580 256 580 c 0
 278 580 296 562 296 540 c 0
 296 518 278 500 256 500 c 0
 234 500 216 518 216 540 c 0
252 640 m 0
 252 662 270 680 292 680 c 0
 314 680 332 662 332 640 c 0
 332 618 314 600 292 600 c 0
 270 600 252 618 252 640 c 0
EndSplineSet
EndChar

StartChar: zero
Encoding: 48 48 17
Width: 432
GlyphClass: 2
Flags: MW
HStem: 0 80<137 155.89 212.11 231> 100 80<65 87 281 303> 200 80<29 51 317 339> 300 80<29 51 317 339> 400 80<29 51 317 339> 500 80<65 87 281 303> 600 80<137 155.89 212.11 231>
LayerCount: 2
Fore
SplineSet
108 40 m 0
 108 62 126 80 148 80 c 0
 163.780273438 80 177.501953125 70.7392578125 184 57.3837890625 c 1
 190.498046875 70.7392578125 204.219726562 80 220 80 c 0
 242 80 260 62 260 40 c 0
 260 18 242 0 220 0 c 0
 204.219726562 0 190.498046875 9.2607421875 184 22.6162109375 c 1
 177.501953125 9.2607421875 163.780273438 0 148 0 c 0
 126 0 108 18 108 40 c 0
252 140 m 0
 252 162 270 180 292 180 c 0
 314 180 332 162 332 140 c 0
 332 118 314 100 292 100 c 0
 270 100 252 118 252 140 c 0
36 140 m 0
 36 162 54 180 76 180 c 0
 98 180 116 162 116 140 c 0
 116 118 98 100 76 100 c 0
 54 100 36 118 36 140 c 0
288 240 m 0
 288 262 306 280 328 280 c 0
 350 280 368 262 368 240 c 0
 368 218 350 200 328 200 c 0
 306 200 288 218 288 240 c 0
0 240 m 0
 0 262 18 280 40 280 c 0
 62 280 80 262 80 240 c 0
 80 218 62 200 40 200 c 0
 18 200 0 218 0 240 c 0
288 340 m 0
 288 362 306 380 328 380 c 0
 350 380 368 362 368 340 c 0
 368 318 350 300 328 300 c 0
 306 300 288 318 288 340 c 0
0 340 m 0
 0 362 18 380 40 380 c 0
 62 380 80 362 80 340 c 0
 80 318 62 300 40 300 c 0
 18 300 0 318 0 340 c 0
288 440 m 0
 288 462 306 480 328 480 c 0
 350 480 368 462 368 440 c 0
 368 418 350 400 328 400 c 0
 306 400 288 418 288 440 c 0
0 440 m 0
 0 462 18 480 40 480 c 0
 62 480 80 462 80 440 c 0
 80 418 62 400 40 400 c 0
 18 400 0 418 0 440 c 0
252 540 m 0
 252 562 270 580 292 580 c 0
 314 580 332 562 332 540 c 0
 332 518 314 500 292 500 c 0
 270 500 252 518 252 540 c 0
36 540 m 0
 36 562 54 580 76 580 c 0
 98 580 116 562 116 540 c 0
 116 518 98 500 76 500 c 0
 54 500 36 518 36 540 c 0
108 640 m 0
 108 662 126 680 148 680 c 0
 163.780273438 680 177.501953125 670.739257812 184 657.383789062 c 1
 190.498046875 670.739257812 204.219726562 680 220 680 c 0
 242 680 260 662 260 640 c 0
 260 618 242 600 220 600 c 0
 204.219726562 600 190.498046875 609.260742188 184 622.616210938 c 1
 177.501953125 609.260742188 163.780273438 600 148 600 c 0
 126 600 108 618 108 640 c 0
EndSplineSet
EndChar

StartChar: one
Encoding: 49 49 18
Width: 432
GlyphClass: 2
Flags: MW
HStem: 0 80<101 119.89 176.11 191.89 248.11 267> 100 80<173 195> 200 80<173 195> 300 80<173 195> 400 80<173 195> 500 80<101 119.89 176.11 195> 600 80<173 195>
LayerCount: 2
Fore
SplineSet
72 40 m 0
 72 62 90 80 112 80 c 0
 127.780273438 80 141.501953125 70.7392578125 148 57.3837890625 c 1
 154.498046875 70.7392578125 168.219726562 80 184 80 c 0
 199.780273438 80 213.501953125 70.7392578125 220 57.3837890625 c 1
 226.498046875 70.7392578125 240.219726562 80 256 80 c 0
 278 80 296 62 296 40 c 0
 296 18 278 0 256 0 c 0
 240.219726562 0 226.498046875 9.2607421875 220 22.6162109375 c 1
 213.501953125 9.2607421875 199.780273438 0 184 0 c 0
 168.219726562 0 154.498046875 9.2607421875 148 22.6162109375 c 1
 141.501953125 9.2607421875 127.780273438 0 112 0 c 0
 90 0 72 18 72 40 c 0
144 140 m 0
 144 162 162 180 184 180 c 0
 206 180 224 162 224 140 c 0
 224 118 206 100 184 100 c 0
 162 100 144 118 144 140 c 0
144 240 m 0
 144 262 162 280 184 280 c 0
 206 280 224 262 224 240 c 0
 224 218 206 200 184 200 c 0
 162 200 144 218 144 240 c 0
144 340 m 0
 144 362 162 380 184 380 c 0
 206 380 224 362 224 340 c 0
 224 318 206 300 184 300 c 0
 162 300 144 318 144 340 c 0
144 440 m 0
 144 462 162 480 184 480 c 0
 206 480 224 462 224 440 c 0
 224 418 206 400 184 400 c 0
 162 400 144 418 144 440 c 0
72 540 m 0
 72 562 90 580 112 580 c 0
 127.780273438 580 141.501953125 570.739257812 148 557.383789062 c 1
 154.498046875 570.739257812 168.219726562 580 184 580 c 0
 206 580 224 562 224 540 c 0
 224 518 206 500 184 500 c 0
 168.219726562 500 154.498046875 509.260742188 148 522.616210938 c 1
 141.501953125 509.260742188 127.780273438 500 112 500 c 0
 90 500 72 518 72 540 c 0
144 640 m 0
 144 662 162 680 184 680 c 0
 206 680 224 662 224 640 c 0
 224 618 206 600 184 600 c 0
 162 600 144 618 144 640 c 0
EndSplineSet
EndChar

StartChar: two
Encoding: 50 50 19
Width: 432
GlyphClass: 2
Flags: MW
HStem: 0 80<29 47.8901 104.11 119.89 176.11 191.89 248.11 263.89 320.11 339> 100 80<101 123> 200 80<173 195> 300 80<245 267> 400 80<317 339> 500 80<29 51 317 339> 600 80<65 83.8901 140.11 155.89 212.11 227.89 284.11 303>
LayerCount: 2
Fore
SplineSet
0 40 m 0
 0 62 18 80 40 80 c 0
 55.7802734375 80 69.501953125 70.7392578125 76 57.3837890625 c 1
 82.498046875 70.7392578125 96.2197265625 80 112 80 c 0
 127.780273438 80 141.501953125 70.7392578125 148 57.3837890625 c 1
 154.498046875 70.7392578125 168.219726562 80 184 80 c 0
 199.780273438 80 213.501953125 70.7392578125 220 57.3837890625 c 1
 226.498046875 70.7392578125 240.219726562 80 256 80 c 0
 271.780273438 80 285.501953125 70.7392578125 292 57.3837890625 c 1
 298.498046875 70.7392578125 312.219726562 80 328 80 c 0
 350 80 368 62 368 40 c 0
 368 18 350 0 328 0 c 0
 312.219726562 0 298.498046875 9.2607421875 292 22.6162109375 c 1
 285.501953125 9.2607421875 271.780273438 0 256 0 c 0
 240.219726562 0 226.498046875 9.2607421875 220 22.6162109375 c 1
 213.501953125 9.2607421875 199.780273438 0 184 0 c 0
 168.219726562 0 154.498046875 9.2607421875 148 22.6162109375 c 1
 141.501953125 9.2607421875 127.780273438 0 112 0 c 0
 96.2197265625 0 82.498046875 9.2607421875 76 22.6162109375 c 1
 69.501953125 9.2607421875 55.7802734375 0 40 0 c 0
 18 0 0 18 0 40 c 0
72 140 m 0
 72 162 90 180 112 180 c 0
 134 180 152 162 152 140 c 0
 152 118 134 100 112 100 c 0
 90 100 72 118 72 140 c 0
144 240 m 0
 144 262 162 280 184 280 c 0
 206 280 224 262 224 240 c 0
 224 218 206 200 184 200 c 0
 162 200 144 218 144 240 c 0
216 340 m 0
 216 362 234 380 256 380 c 0
 278 380 296 362 296 340 c 0
 296 318 278 300 256 300 c 0
 234 300 216 318 216 340 c 0
288 440 m 0
 288 462 306 480 328 480 c 0
 350 480 368 462 368 440 c 0
 368 418 350 400 328 400 c 0
 306 400 288 418 288 440 c 0
288 540 m 0
 288 562 306 580 328 580 c 0
 350 580 368 562 368 540 c 0
 368 518 350 500 328 500 c 0
 306 500 288 518 288 540 c 0
0 540 m 0
 0 562 18 580 40 580 c 0
 62 580 80 562 80 540 c 0
 80 518 62 500 40 500 c 0
 18 500 0 518 0 540 c 0
36 640 m 0
 36 662 54 680 76 680 c 0
 91.7802734375 680 105.501953125 670.739257812 112 657.383789062 c 1
 118.498046875 670.739257812 132.219726562 680 148 680 c 0
 163.780273438 680 177.501953125 670.739257812 184 657.383789062 c 1
 190.498046875 670.739257812 204.219726562 680 220 680 c 0
 235.780273438 680 249.501953125 670.739257812 256 657.383789062 c 1
 262.498046875 670.739257812 276.219726562 680 292 680 c 0
 314 680 332 662 332 640 c 0
 332 618 314 600 292 600 c 0
 276.219726562 600 262.498046875 609.260742188 256 622.616210938 c 1
 249.501953125 609.260742188 235.780273438 600 220 600 c 0
 204.219726562 600 190.498046875 609.260742188 184 622.616210938 c 1
 177.501953125 609.260742188 163.780273438 600 148 600 c 0
 132.219726562 600 118.498046875 609.260742188 112 622.616210938 c 1
 105.501953125 609.260742188 91.7802734375 600 76 600 c 0
 54 600 36 618 36 640 c 0
EndSplineSet
EndChar

StartChar: three
Encoding: 51 51 20
Width: 432
GlyphClass: 2
Flags: MW
HStem: 0 80<101 119.89 176.11 191.89 248.11 267> 100 80<29 51 317 339> 200 80<317 339> 300 80<245 267> 400 80<173 195> 500 80<245 267> 600 80<29 47.8901 104.11 119.89 176.11 191.89 248.11 263.89 320.11 339>
LayerCount: 2
Fore
SplineSet
72 40 m 0
 72 62 90 80 112 80 c 0
 127.780273438 80 141.501953125 70.7392578125 148 57.3837890625 c 1
 154.498046875 70.7392578125 168.219726562 80 184 80 c 0
 199.780273438 80 213.501953125 70.7392578125 220 57.3837890625 c 1
 226.498046875 70.7392578125 240.219726562 80 256 80 c 0
 278 80 296 62 296 40 c 0
 296 18 278 0 256 0 c 0
 240.219726562 0 226.498046875 9.2607421875 220 22.6162109375 c 1
 213.501953125 9.2607421875 199.780273438 0 184 0 c 0
 168.219726562 0 154.498046875 9.2607421875 148 22.6162109375 c 1
 141.501953125 9.2607421875 127.780273438 0 112 0 c 0
 90 0 72 18 72 40 c 0
288 140 m 0
 288 162 306 180 328 180 c 0
 350 180 368 162 368 140 c 0
 368 118 350 100 328 100 c 0
 306 100 288 118 288 140 c 0
0 140 m 0
 0 162 18 180 40 180 c 0
 62 180 80 162 80 140 c 0
 80 118 62 100 40 100 c 0
 18 100 0 118 0 140 c 0
288 240 m 0
 288 262 306 280 328 280 c 0
 350 280 368 262 368 240 c 0
 368 218 350 200 328 200 c 0
 306 200 288 218 288 240 c 0
216 340 m 0
 216 362 234 380 256 380 c 0
 278 380 296 362 296 340 c 0
 296 318 278 300 256 300 c 0
 234 300 216 318 216 340 c 0
144 440 m 0
 144 462 162 480 184 480 c 0
 206 480 224 462 224 440 c 0
 224 418 206 400 184 400 c 0
 162 400 144 418 144 440 c 0
216 540 m 0
 216 562 234 580 256 580 c 0
 278 580 296 562 296 540 c 0
 296 518 278 500 256 500 c 0
 234 500 216 518 216 540 c 0
0 640 m 0
 0 662 18 680 40 680 c 0
 55.7802734375 680 69.501953125 670.739257812 76 657.383789062 c 1
 82.498046875 670.739257812 96.2197265625 680 112 680 c 0
 127.780273438 680 141.501953125 670.739257812 148 657.383789062 c 1
 154.498046875 670.739257812 168.219726562 680 184 680 c 0
 199.780273438 680 213.501953125 670.739257812 220 657.383789062 c 1
 226.498046875 670.739257812 240.219726562 680 256 680 c 0
 271.780273438 680 285.501953125 670.739257812 292 657.383789062 c 1
 298.498046875 670.739257812 312.219726562 680 328 680 c 0
 350 680 368 662 368 640 c 0
 368 618 350 600 328 600 c 0
 312.219726562 600 298.498046875 609.260742188 292 622.616210938 c 1
 285.501953125 609.260742188 271.780273438 600 256 600 c 0
 240.219726562 600 226.498046875 609.260742188 220 622.616210938 c 1
 213.501953125 609.260742188 199.780273438 600 184 600 c 0
 168.219726562 600 154.498046875 609.260742188 148 622.616210938 c 1
 141.501953125 609.260742188 127.780273438 600 112 600 c 0
 96.2197265625 600 82.498046875 609.260742188 76 622.616210938 c 1
 69.501953125 609.260742188 55.7802734375 600 40 600 c 0
 18 600 0 618 0 640 c 0
EndSplineSet
EndChar

StartChar: four
Encoding: 52 52 21
Width: 432
GlyphClass: 2
Flags: MW
HStem: 0 80<245 267> 100 80<245 267> 200 80<29 47.8901 104.11 119.89 176.11 191.89 248.11 263.89 320.11 339> 300 80<65 87 245 267> 400 80<101 123 245 267> 500 80<137 159 245 267> 600 80<173 191.89 248.11 267>
LayerCount: 2
Fore
SplineSet
216 40 m 0
 216 62 234 80 256 80 c 0
 278 80 296 62 296 40 c 0
 296 18 278 0 256 0 c 0
 234 0 216 18 216 40 c 0
216 140 m 0
 216 162 234 180 256 180 c 0
 278 180 296 162 296 140 c 0
 296 118 278 100 256 100 c 0
 234 100 216 118 216 140 c 0
0 240 m 0
 0 262 18 280 40 280 c 0
 55.7802734375 280 69.501953125 270.739257812 76 257.383789062 c 1
 82.498046875 270.739257812 96.2197265625 280 112 280 c 0
 127.780273438 280 141.501953125 270.739257812 148 257.383789062 c 1
 154.498046875 270.739257812 168.219726562 280 184 280 c 0
 199.780273438 280 213.501953125 270.739257812 220 257.383789062 c 1
 226.498046875 270.739257812 240.219726562 280 256 280 c 0
 271.780273438 280 285.501953125 270.739257812 292 257.383789062 c 1
 298.498046875 270.739257812 312.219726562 280 328 280 c 0
 350 280 368 262 368 240 c 0
 368 218 350 200 328 200 c 0
 312.219726562 200 298.498046875 209.260742188 292 222.616210938 c 1
 285.501953125 209.260742188 271.780273438 200 256 200 c 0
 240.219726562 200 226.498046875 209.260742188 220 222.616210938 c 1
 213.501953125 209.260742188 199.780273438 200 184 200 c 0
 168.219726562 200 154.498046875 209.260742188 148 222.616210938 c 1
 141.501953125 209.260742188 127.780273438 200 112 200 c 0
 96.2197265625 200 82.498046875 209.260742188 76 222.616210938 c 1
 69.501953125 209.260742188 55.7802734375 200 40 200 c 0
 18 200 0 218 0 240 c 0
216 340 m 0
 216 362 234 380 256 380 c 0
 278 380 296 362 296 340 c 0
 296 318 278 300 256 300 c 0
 234 300 216 318 216 340 c 0
36 340 m 0
 36 362 54 380 76 380 c 0
 98 380 116 362 116 340 c 0
 116 318 98 300 76 300 c 0
 54 300 36 318 36 340 c 0
216 440 m 0
 216 462 234 480 256 480 c 0
 278 480 296 462 296 440 c 0
 296 418 278 400 256 400 c 0
 234 400 216 418 216 440 c 0
72 440 m 0
 72 462 90 480 112 480 c 0
 134 480 152 462 152 440 c 0
 152 418 134 400 112 400 c 0
 90 400 72 418 72 440 c 0
216 540 m 0
 216 562 234 580 256 580 c 0
 278 580 296 562 296 540 c 0
 296 518 278 500 256 500 c 0
 234 500 216 518 216 540 c 0
108 540 m 0
 108 562 126 580 148 580 c 0
 170 580 188 562 188 540 c 0
 188 518 170 500 148 500 c 0
 126 500 108 518 108 540 c 0
144 640 m 0
 144 662 162 680 184 680 c 0
 199.780273438 680 213.501953125 670.739257812 220 657.383789062 c 1
 226.498046875 670.739257812 240.219726562 680 256 680 c 0
 278 680 296 662 296 640 c 0
 296 618 278 600 256 600 c 0
 240.219726562 600 226.498046875 609.260742188 220 622.616210938 c 1
 213.501953125 609.260742188 199.780273438 600 184 600 c 0
 162 600 144 618 144 640 c 0
EndSplineSet
EndChar

StartChar: five
Encoding: 53 53 22
Width: 432
GlyphClass: 2
Flags: MW
HStem: 0 80<65 83.8901 140.11 155.89 212.11 227.89 284.11 303> 100 80<29 51 317 339> 200 80<317 339> 300 80<317 339> 400 80<29 47.8901 104.11 119.89 176.11 191.89 248.11 267> 500 80<29 51> 600 80<29 47.8901 104.11 119.89 176.11 191.89 248.11 263.89 320.11 339>
LayerCount: 2
Fore
SplineSet
36 40 m 0
 36 62 54 80 76 80 c 0
 91.7802734375 80 105.501953125 70.7392578125 112 57.3837890625 c 1
 118.498046875 70.7392578125 132.219726562 80 148 80 c 0
 163.780273438 80 177.501953125 70.7392578125 184 57.3837890625 c 1
 190.498046875 70.7392578125 204.219726562 80 220 80 c 0
 235.780273438 80 249.501953125 70.7392578125 256 57.3837890625 c 1
 262.498046875 70.7392578125 276.219726562 80 292 80 c 0
 314 80 332 62 332 40 c 0
 332 18 314 0 292 0 c 0
 276.219726562 0 262.498046875 9.2607421875 256 22.6162109375 c 1
 249.501953125 9.2607421875 235.780273438 0 220 0 c 0
 204.219726562 0 190.498046875 9.2607421875 184 22.6162109375 c 1
 177.501953125 9.2607421875 163.780273438 0 148 0 c 0
 132.219726562 0 118.498046875 9.2607421875 112 22.6162109375 c 1
 105.501953125 9.2607421875 91.7802734375 0 76 0 c 0
 54 0 36 18 36 40 c 0
288 140 m 0
 288 162 306 180 328 180 c 0
 350 180 368 162 368 140 c 0
 368 118 350 100 328 100 c 0
 306 100 288 118 288 140 c 0
0 140 m 0
 0 162 18 180 40 180 c 0
 62 180 80 162 80 140 c 0
 80 118 62 100 40 100 c 0
 18 100 0 118 0 140 c 0
288 240 m 0
 288 262 306 280 328 280 c 0
 350 280 368 262 368 240 c 0
 368 218 350 200 328 200 c 0
 306 200 288 218 288 240 c 0
288 340 m 0
 288 362 306 380 328 380 c 0
 350 380 368 362 368 340 c 0
 368 318 350 300 328 300 c 0
 306 300 288 318 288 340 c 0
0 440 m 0
 0 462 18 480 40 480 c 0
 55.7802734375 480 69.501953125 470.739257812 76 457.383789062 c 1
 82.498046875 470.739257812 96.2197265625 480 112 480 c 0
 127.780273438 480 141.501953125 470.739257812 148 457.383789062 c 1
 154.498046875 470.739257812 168.219726562 480 184 480 c 0
 199.780273438 480 213.501953125 470.739257812 220 457.383789062 c 1
 226.498046875 470.739257812 240.219726562 480 256 480 c 0
 278 480 296 462 296 440 c 0
 296 418 278 400 256 400 c 0
 240.219726562 400 226.498046875 409.260742188 220 422.616210938 c 1
 213.501953125 409.260742188 199.780273438 400 184 400 c 0
 168.219726562 400 154.498046875 409.260742188 148 422.616210938 c 1
 141.501953125 409.260742188 127.780273438 400 112 400 c 0
 96.2197265625 400 82.498046875 409.260742188 76 422.616210938 c 1
 69.501953125 409.260742188 55.7802734375 400 40 400 c 0
 18 400 0 418 0 440 c 0
0 540 m 0
 0 562 18 580 40 580 c 0
 62 580 80 562 80 540 c 0
 80 518 62 500 40 500 c 0
 18 500 0 518 0 540 c 0
0 640 m 0
 0 662 18 680 40 680 c 0
 55.7802734375 680 69.501953125 670.739257812 76 657.383789062 c 1
 82.498046875 670.739257812 96.2197265625 680 112 680 c 0
 127.780273438 680 141.501953125 670.739257812 148 657.383789062 c 1
 154.498046875 670.739257812 168.219726562 680 184 680 c 0
 199.780273438 680 213.501953125 670.739257812 220 657.383789062 c 1
 226.498046875 670.739257812 240.219726562 680 256 680 c 0
 271.780273438 680 285.501953125 670.739257812 292 657.383789062 c 1
 298.498046875 670.739257812 312.219726562 680 328 680 c 0
 350 680 368 662 368 640 c 0
 368 618 350 600 328 600 c 0
 312.219726562 600 298.498046875 609.260742188 292 622.616210938 c 1
 285.501953125 609.260742188 271.780273438 600 256 600 c 0
 240.219726562 600 226.498046875 609.260742188 220 622.616210938 c 1
 213.501953125 609.260742188 199.780273438 600 184 600 c 0
 168.219726562 600 154.498046875 609.260742188 148 622.616210938 c 1
 141.501953125 609.260742188 127.780273438 600 112 600 c 0
 96.2197265625 600 82.498046875 609.260742188 76 622.616210938 c 1
 69.501953125 609.260742188 55.7802734375 600 40 600 c 0
 18 600 0 618 0 640 c 0
EndSplineSet
EndChar

StartChar: six
Encoding: 54 54 23
Width: 432
GlyphClass: 2
Flags: MW
HStem: 0 80<65 83.8901 140.11 155.89 212.11 227.89 284.11 303> 100 80<29 51 317 339> 200 80<29 51 317 339> 300 80<65 83.8901 140.11 155.89 212.11 227.89 284.11 303> 400 80<101 123> 500 80<137 159> 600 80<173 195>
LayerCount: 2
Fore
SplineSet
36 40 m 0
 36 62 54 80 76 80 c 0
 91.7802734375 80 105.501953125 70.7392578125 112 57.3837890625 c 1
 118.498046875 70.7392578125 132.219726562 80 148 80 c 0
 163.780273438 80 177.501953125 70.7392578125 184 57.3837890625 c 1
 190.498046875 70.7392578125 204.219726562 80 220 80 c 0
 235.780273438 80 249.501953125 70.7392578125 256 57.3837890625 c 1
 262.498046875 70.7392578125 276.219726562 80 292 80 c 0
 314 80 332 62 332 40 c 0
 332 18 314 0 292 0 c 0
 276.219726562 0 262.498046875 9.2607421875 256 22.6162109375 c 1
 249.501953125 9.2607421875 235.780273438 0 220 0 c 0
 204.219726562 0 190.498046875 9.2607421875 184 22.6162109375 c 1
 177.501953125 9.2607421875 163.780273438 0 148 0 c 0
 132.219726562 0 118.498046875 9.2607421875 112 22.6162109375 c 1
 105.501953125 9.2607421875 91.7802734375 0 76 0 c 0
 54 0 36 18 36 40 c 0
288 140 m 0
 288 162 306 180 328 180 c 0
 350 180 368 162 368 140 c 0
 368 118 350 100 328 100 c 0
 306 100 288 118 288 140 c 0
0 140 m 0
 0 162 18 180 40 180 c 0
 62 180 80 162 80 140 c 0
 80 118 62 100 40 100 c 0
 18 100 0 118 0 140 c 0
288 240 m 0
 288 262 306 280 328 280 c 0
 350 280 368 262 368 240 c 0
 368 218 350 200 328 200 c 0
 306 200 288 218 288 240 c 0
0 240 m 0
 0 262 18 280 40 280 c 0
 62 280 80 262 80 240 c 0
 80 218 62 200 40 200 c 0
 18 200 0 218 0 240 c 0
36 340 m 0
 36 362 54 380 76 380 c 0
 91.7802734375 380 105.501953125 370.739257812 112 357.383789062 c 1
 118.498046875 370.739257812 132.219726562 380 148 380 c 0
 163.780273438 380 177.501953125 370.739257812 184 357.383789062 c 1
 190.498046875 370.739257812 204.219726562 380 220 380 c 0
 235.780273438 380 249.501953125 370.739257812 256 357.383789062 c 1
 262.498046875 370.739257812 276.219726562 380 292 380 c 0
 314 380 332 362 332 340 c 0
 332 318 314 300 292 300 c 0
 276.219726562 300 262.498046875 309.260742188 256 322.616210938 c 1
 249.501953125 309.260742188 235.780273438 300 220 300 c 0
 204.219726562 300 190.498046875 309.260742188 184 322.616210938 c 1
 177.501953125 309.260742188 163.780273438 300 148 300 c 0
 132.219726562 300 118.498046875 309.260742188 112 322.616210938 c 1
 105.501953125 309.260742188 91.7802734375 300 76 300 c 0
 54 300 36 318 36 340 c 0
72 440 m 0
 72 462 90 480 112 480 c 0
 134 480 152 462 152 440 c 0
 152 418 134 400 112 400 c 0
 90 400 72 418 72 440 c 0
108 540 m 0
 108 562 126 580 148 580 c 0
 170 580 188 562 188 540 c 0
 188 518 170 500 148 500 c 0
 126 500 108 518 108 540 c 0
144 640 m 0
 144 662 162 680 184 680 c 0
 206 680 224 662 224 640 c 0
 224 618 206 600 184 600 c 0
 162 600 144 618 144 640 c 0
EndSplineSet
EndChar

StartChar: seven
Encoding: 55 55 24
Width: 432
GlyphClass: 2
Flags: MW
HStem: 0 80<101 123> 100 80<137 159> 200 80<173 195> 300 80<209 231> 400 80<245 267> 500 80<281 303> 600 80<29 47.8901 104.11 119.89 176.11 191.89 248.11 263.89 320.11 339>
LayerCount: 2
Fore
SplineSet
72 40 m 0
 72 62 90 80 112 80 c 0
 134 80 152 62 152 40 c 0
 152 18 134 0 112 0 c 0
 90 0 72 18 72 40 c 0
108 140 m 0
 108 162 126 180 148 180 c 0
 170 180 188 162 188 140 c 0
 188 118 170 100 148 100 c 0
 126 100 108 118 108 140 c 0
144 240 m 0
 144 262 162 280 184 280 c 0
 206 280 224 262 224 240 c 0
 224 218 206 200 184 200 c 0
 162 200 144 218 144 240 c 0
180 340 m 0
 180 362 198 380 220 380 c 0
 242 380 260 362 260 340 c 0
 260 318 242 300 220 300 c 0
 198 300 180 318 180 340 c 0
216 440 m 0
 216 462 234 480 256 480 c 0
 278 480 296 462 296 440 c 0
 296 418 278 400 256 400 c 0
 234 400 216 418 216 440 c 0
252 540 m 0
 252 562 270 580 292 580 c 0
 314 580 332 562 332 540 c 0
 332 518 314 500 292 500 c 0
 270 500 252 518 252 540 c 0
0 640 m 0
 0 662 18 680 40 680 c 0
 55.7802734375 680 69.501953125 670.739257812 76 657.383789062 c 1
 82.498046875 670.739257812 96.2197265625 680 112 680 c 0
 127.780273438 680 141.501953125 670.739257812 148 657.383789062 c 1
 154.498046875 670.739257812 168.219726562 680 184 680 c 0
 199.780273438 680 213.501953125 670.739257812 220 657.383789062 c 1
 226.498046875 670.739257812 240.219726562 680 256 680 c 0
 271.780273438 680 285.501953125 670.739257812 292 657.383789062 c 1
 298.498046875 670.739257812 312.219726562 680 328 680 c 0
 350 680 368 662 368 640 c 0
 368 618 350 600 328 600 c 0
 312.219726562 600 298.498046875 609.260742188 292 622.616210938 c 1
 285.501953125 609.260742188 271.780273438 600 256 600 c 0
 240.219726562 600 226.498046875 609.260742188 220 622.616210938 c 1
 213.501953125 609.260742188 199.780273438 600 184 600 c 0
 168.219726562 600 154.498046875 609.260742188 148 622.616210938 c 1
 141.501953125 609.260742188 127.780273438 600 112 600 c 0
 96.2197265625 600 82.498046875 609.260742188 76 622.616210938 c 1
 69.501953125 609.260742188 55.7802734375 600 40 600 c 0
 18 600 0 618 0 640 c 0
EndSplineSet
EndChar

StartChar: eight
Encoding: 56 56 25
Width: 432
GlyphClass: 2
Flags: MW
HStem: 0 80<65 83.8901 140.11 155.89 212.11 227.89 284.11 303> 100 80<29 51 317 339> 200 80<29 51 317 339> 300 80<65 83.8901 140.11 155.89 212.11 227.89 284.11 303> 400 80<29 51 317 339> 500 80<29 51 317 339> 600 80<65 83.8901 140.11 155.89 212.11 227.89 284.11 303>
LayerCount: 2
Fore
SplineSet
36 40 m 0
 36 62 54 80 76 80 c 0
 91.7802734375 80 105.501953125 70.7392578125 112 57.3837890625 c 1
 118.498046875 70.7392578125 132.219726562 80 148 80 c 0
 163.780273438 80 177.501953125 70.7392578125 184 57.3837890625 c 1
 190.498046875 70.7392578125 204.219726562 80 220 80 c 0
 235.780273438 80 249.501953125 70.7392578125 256 57.3837890625 c 1
 262.498046875 70.7392578125 276.219726562 80 292 80 c 0
 314 80 332 62 332 40 c 0
 332 18 314 0 292 0 c 0
 276.219726562 0 262.498046875 9.2607421875 256 22.6162109375 c 1
 249.501953125 9.2607421875 235.780273438 0 220 0 c 0
 204.219726562 0 190.498046875 9.2607421875 184 22.6162109375 c 1
 177.501953125 9.2607421875 163.780273438 0 148 0 c 0
 132.219726562 0 118.498046875 9.2607421875 112 22.6162109375 c 1
 105.501953125 9.2607421875 91.7802734375 0 76 0 c 0
 54 0 36 18 36 40 c 0
288 140 m 0
 288 162 306 180 328 180 c 0
 350 180 368 162 368 140 c 0
 368 118 350 100 328 100 c 0
 306 100 288 118 288 140 c 0
0 140 m 0
 0 162 18 180 40 180 c 0
 62 180 80 162 80 140 c 0
 80 118 62 100 40 100 c 0
 18 100 0 118 0 140 c 0
288 240 m 0
 288 262 306 280 328 280 c 0
 350 280 368 262 368 240 c 0
 368 218 350 200 328 200 c 0
 306 200 288 218 288 240 c 0
0 240 m 0
 0 262 18 280 40 280 c 0
 62 280 80 262 80 240 c 0
 80 218 62 200 40 200 c 0
 18 200 0 218 0 240 c 0
36 340 m 0
 36 362 54 380 76 380 c 0
 91.7802734375 380 105.501953125 370.739257812 112 357.383789062 c 1
 118.498046875 370.739257812 132.219726562 380 148 380 c 0
 163.780273438 380 177.501953125 370.739257812 184 357.383789062 c 1
 190.498046875 370.739257812 204.219726562 380 220 380 c 0
 235.780273438 380 249.501953125 370.739257812 256 357.383789062 c 1
 262.498046875 370.739257812 276.219726562 380 292 380 c 0
 314 380 332 362 332 340 c 0
 332 318 314 300 292 300 c 0
 276.219726562 300 262.498046875 309.260742188 256 322.616210938 c 1
 249.501953125 309.260742188 235.780273438 300 220 300 c 0
 204.219726562 300 190.498046875 309.260742188 184 322.616210938 c 1
 177.501953125 309.260742188 163.780273438 300 148 300 c 0
 132.219726562 300 118.498046875 309.260742188 112 322.616210938 c 1
 105.501953125 309.260742188 91.7802734375 300 76 300 c 0
 54 300 36 318 36 340 c 0
288 440 m 0
 288 462 306 480 328 480 c 0
 350 480 368 462 368 440 c 0
 368 418 350 400 328 400 c 0
 306 400 288 418 288 440 c 0
0 440 m 0
 0 462 18 480 40 480 c 0
 62 480 80 462 80 440 c 0
 80 418 62 400 40 400 c 0
 18 400 0 418 0 440 c 0
288 540 m 0
 288 562 306 580 328 580 c 0
 350 580 368 562 368 540 c 0
 368 518 350 500 328 500 c 0
 306 500 288 518 288 540 c 0
0 540 m 0
 0 562 18 580 40 580 c 0
 62 580 80 562 80 540 c 0
 80 518 62 500 40 500 c 0
 18 500 0 518 0 540 c 0
36 640 m 0
 36 662 54 680 76 680 c 0
 91.7802734375 680 105.501953125 670.739257812 112 657.383789062 c 1
 118.498046875 670.739257812 132.219726562 680 148 680 c 0
 163.780273438 680 177.501953125 670.739257812 184 657.383789062 c 1
 190.498046875 670.739257812 204.219726562 680 220 680 c 0
 235.780273438 680 249.501953125 670.739257812 256 657.383789062 c 1
 262.498046875 670.739257812 276.219726562 680 292 680 c 0
 314 680 332 662 332 640 c 0
 332 618 314 600 292 600 c 0
 276.219726562 600 262.498046875 609.260742188 256 622.616210938 c 1
 249.501953125 609.260742188 235.780273438 600 220 600 c 0
 204.219726562 600 190.498046875 609.260742188 184 622.616210938 c 1
 177.501953125 609.260742188 163.780273438 600 148 600 c 0
 132.219726562 600 118.498046875 609.260742188 112 622.616210938 c 1
 105.501953125 609.260742188 91.7802734375 600 76 600 c 0
 54 600 36 618 36 640 c 0
EndSplineSet
EndChar

StartChar: nine
Encoding: 57 57 26
Width: 432
GlyphClass: 2
Flags: MW
HStem: 0 80<173 195> 100 80<209 231> 200 80<245 267> 300 80<65 83.8901 140.11 155.89 212.11 227.89 284.11 303> 400 80<29 51 317 339> 500 80<29 51 317 339> 600 80<65 83.8901 140.11 155.89 212.11 227.89 284.11 303>
LayerCount: 2
Fore
SplineSet
144 40 m 0
 144 62 162 80 184 80 c 0
 206 80 224 62 224 40 c 0
 224 18 206 0 184 0 c 0
 162 0 144 18 144 40 c 0
180 140 m 0
 180 162 198 180 220 180 c 0
 242 180 260 162 260 140 c 0
 260 118 242 100 220 100 c 0
 198 100 180 118 180 140 c 0
216 240 m 0
 216 262 234 280 256 280 c 0
 278 280 296 262 296 240 c 0
 296 218 278 200 256 200 c 0
 234 200 216 218 216 240 c 0
36 340 m 0
 36 362 54 380 76 380 c 0
 91.7802734375 380 105.501953125 370.739257812 112 357.383789062 c 1
 118.498046875 370.739257812 132.219726562 380 148 380 c 0
 163.780273438 380 177.501953125 370.739257812 184 357.383789062 c 1
 190.498046875 370.739257812 204.219726562 380 220 380 c 0
 235.780273438 380 249.501953125 370.739257812 256 357.383789062 c 1
 262.498046875 370.739257812 276.219726562 380 292 380 c 0
 314 380 332 362 332 340 c 0
 332 318 314 300 292 300 c 0
 276.219726562 300 262.498046875 309.260742188 256 322.616210938 c 1
 249.501953125 309.260742188 235.780273438 300 220 300 c 0
 204.219726562 300 190.498046875 309.260742188 184 322.616210938 c 1
 177.501953125 309.260742188 163.780273438 300 148 300 c 0
 132.219726562 300 118.498046875 309.260742188 112 322.616210938 c 1
 105.501953125 309.260742188 91.7802734375 300 76 300 c 0
 54 300 36 318 36 340 c 0
288 440 m 0
 288 462 306 480 328 480 c 0
 350 480 368 462 368 440 c 0
 368 418 350 400 328 400 c 0
 306 400 288 418 288 440 c 0
0 440 m 0
 0 462 18 480 40 480 c 0
 62 480 80 462 80 440 c 0
 80 418 62 400 40 400 c 0
 18 400 0 418 0 440 c 0
288 540 m 0
 288 562 306 580 328 580 c 0
 350 580 368 562 368 540 c 0
 368 518 350 500 328 500 c 0
 306 500 288 518 288 540 c 0
0 540 m 0
 0 562 18 580 40 580 c 0
 62 580 80 562 80 540 c 0
 80 518 62 500 40 500 c 0
 18 500 0 518 0 540 c 0
36 640 m 0
 36 662 54 680 76 680 c 0
 91.7802734375 680 105.501953125 670.739257812 112 657.383789062 c 1
 118.498046875 670.739257812 132.219726562 680 148 680 c 0
 163.780273438 680 177.501953125 670.739257812 184 657.383789062 c 1
 190.498046875 670.739257812 204.219726562 680 220 680 c 0
 235.780273438 680 249.501953125 670.739257812 256 657.383789062 c 1
 262.498046875 670.739257812 276.219726562 680 292 680 c 0
 314 680 332 662 332 640 c 0
 332 618 314 600 292 600 c 0
 276.219726562 600 262.498046875 609.260742188 256 622.616210938 c 1
 249.501953125 609.260742188 235.780273438 600 220 600 c 0
 204.219726562 600 190.498046875 609.260742188 184 622.616210938 c 1
 177.501953125 609.260742188 163.780273438 600 148 600 c 0
 132.219726562 600 118.498046875 609.260742188 112 622.616210938 c 1
 105.501953125 609.260742188 91.7802734375 600 76 600 c 0
 54 600 36 618 36 640 c 0
EndSplineSet
EndChar

StartChar: colon
Encoding: 58 58 27
Width: 432
GlyphClass: 2
Flags: MW
HStem: 0 80<101 119.89 176.11 195> 100 80<101 119.89 176.11 195> 300 80<101 119.89 176.11 195> 400 80<101 119.89 176.11 195>
LayerCount: 2
Fore
SplineSet
72 40 m 0
 72 62 90 80 112 80 c 0
 127.780273438 80 141.501953125 70.7392578125 148 57.3837890625 c 1
 154.498046875 70.7392578125 168.219726562 80 184 80 c 0
 206 80 224 62 224 40 c 0
 224 18 206 0 184 0 c 0
 168.219726562 0 154.498046875 9.2607421875 148 22.6162109375 c 1
 141.501953125 9.2607421875 127.780273438 0 112 0 c 0
 90 0 72 18 72 40 c 0
72 140 m 0
 72 162 90 180 112 180 c 0
 127.780273438 180 141.501953125 170.739257812 148 157.383789062 c 1
 154.498046875 170.739257812 168.219726562 180 184 180 c 0
 206 180 224 162 224 140 c 0
 224 118 206 100 184 100 c 0
 168.219726562 100 154.498046875 109.260742188 148 122.616210938 c 1
 141.501953125 109.260742188 127.780273438 100 112 100 c 0
 90 100 72 118 72 140 c 0
72 340 m 0
 72 362 90 380 112 380 c 0
 127.780273438 380 141.501953125 370.739257812 148 357.383789062 c 1
 154.498046875 370.739257812 168.219726562 380 184 380 c 0
 206 380 224 362 224 340 c 0
 224 318 206 300 184 300 c 0
 168.219726562 300 154.498046875 309.260742188 148 322.616210938 c 1
 141.501953125 309.260742188 127.780273438 300 112 300 c 0
 90 300 72 318 72 340 c 0
72 440 m 0
 72 462 90 480 112 480 c 0
 127.780273438 480 141.501953125 470.739257812 148 457.383789062 c 1
 154.498046875 470.739257812 168.219726562 480 184 480 c 0
 206 480 224 462 224 440 c 0
 224 418 206 400 184 400 c 0
 168.219726562 400 154.498046875 409.260742188 148 422.616210938 c 1
 141.501953125 409.260742188 127.780273438 400 112 400 c 0
 90 400 72 418 72 440 c 0
EndSplineSet
EndChar

StartChar: semicolon
Encoding: 59 59 28
Width: 432
GlyphClass: 2
Flags: MW
HStem: -200 80<101 123> -100 80<173 195> 0 80<101 119.89 176.11 195> 100 80<101 119.89 176.11 195> 300 80<101 119.89 176.11 195> 400 80<101 119.89 176.11 195>
LayerCount: 2
Fore
SplineSet
72 -160 m 0
 72 -138 90 -120 112 -120 c 0
 134 -120 152 -138 152 -160 c 0
 152 -182 134 -200 112 -200 c 0
 90 -200 72 -182 72 -160 c 0
144 -60 m 0
 144 -38 162 -20 184 -20 c 0
 206 -20 224 -38 224 -60 c 0
 224 -82 206 -100 184 -100 c 0
 162 -100 144 -82 144 -60 c 0
72 40 m 0
 72 62 90 80 112 80 c 0
 127.780273438 80 141.501953125 70.7392578125 148 57.3837890625 c 1
 154.498046875 70.7392578125 168.219726562 80 184 80 c 0
 206 80 224 62 224 40 c 0
 224 18 206 0 184 0 c 0
 168.219726562 0 154.498046875 9.2607421875 148 22.6162109375 c 1
 141.501953125 9.2607421875 127.780273438 0 112 0 c 0
 90 0 72 18 72 40 c 0
72 140 m 0
 72 162 90 180 112 180 c 0
 127.780273438 180 141.501953125 170.739257812 148 157.383789062 c 1
 154.498046875 170.739257812 168.219726562 180 184 180 c 0
 206 180 224 162 224 140 c 0
 224 118 206 100 184 100 c 0
 168.219726562 100 154.498046875 109.260742188 148 122.616210938 c 1
 141.501953125 109.260742188 127.780273438 100 112 100 c 0
 90 100 72 118 72 140 c 0
72 340 m 0
 72 362 90 380 112 380 c 0
 127.780273438 380 141.501953125 370.739257812 148 357.383789062 c 1
 154.498046875 370.739257812 168.219726562 380 184 380 c 0
 206 380 224 362 224 340 c 0
 224 318 206 300 184 300 c 0
 168.219726562 300 154.498046875 309.260742188 148 322.616210938 c 1
 141.501953125 309.260742188 127.780273438 300 112 300 c 0
 90 300 72 318 72 340 c 0
72 440 m 0
 72 462 90 480 112 480 c 0
 127.780273438 480 141.501953125 470.739257812 148 457.383789062 c 1
 154.498046875 470.739257812 168.219726562 480 184 480 c 0
 206 480 224 462 224 440 c 0
 224 418 206 400 184 400 c 0
 168.219726562 400 154.498046875 409.260742188 148 422.616210938 c 1
 141.501953125 409.260742188 127.780273438 400 112 400 c 0
 90 400 72 418 72 440 c 0
EndSplineSet
EndChar

StartChar: less
Encoding: 60 60 29
Width: 432
GlyphClass: 2
Flags: MW
HStem: 0 80<245 267> 100 80<173 195> 200 80<101 123> 300 80<29 51> 400 80<101 123> 500 80<173 195> 600 80<245 267>
LayerCount: 2
Fore
SplineSet
216 40 m 0
 216 62 234 80 256 80 c 0
 278 80 296 62 296 40 c 0
 296 18 278 0 256 0 c 0
 234 0 216 18 216 40 c 0
144 140 m 0
 144 162 162 180 184 180 c 0
 206 180 224 162 224 140 c 0
 224 118 206 100 184 100 c 0
 162 100 144 118 144 140 c 0
72 240 m 0
 72 262 90 280 112 280 c 0
 134 280 152 262 152 240 c 0
 152 218 134 200 112 200 c 0
 90 200 72 218 72 240 c 0
0 340 m 0
 0 362 18 380 40 380 c 0
 62 380 80 362 80 340 c 0
 80 318 62 300 40 300 c 0
 18 300 0 318 0 340 c 0
72 440 m 0
 72 462 90 480 112 480 c 0
 134 480 152 462 152 440 c 0
 152 418 134 400 112 400 c 0
 90 400 72 418 72 440 c 0
144 540 m 0
 144 562 162 580 184 580 c 0
 206 580 224 562 224 540 c 0
 224 518 206 500 184 500 c 0
 162 500 144 518 144 540 c 0
216 640 m 0
 216 662 234 680 256 680 c 0
 278 680 296 662 296 640 c 0
 296 618 278 600 256 600 c 0
 234 600 216 618 216 640 c 0
EndSplineSet
EndChar

StartChar: equal
Encoding: 61 61 30
Width: 432
GlyphClass: 2
Flags: MW
HStem: 200 80<29 47.8901 104.11 119.89 176.11 191.89 248.11 263.89 320.11 339> 400 80<29 47.8901 104.11 119.89 176.11 191.89 248.11 263.89 320.11 339>
LayerCount: 2
Fore
SplineSet
0 240 m 0
 0 262 18 280 40 280 c 0
 55.7802734375 280 69.501953125 270.739257812 76 257.383789062 c 1
 82.498046875 270.739257812 96.2197265625 280 112 280 c 0
 127.780273438 280 141.501953125 270.739257812 148 257.383789062 c 1
 154.498046875 270.739257812 168.219726562 280 184 280 c 0
 199.780273438 280 213.501953125 270.739257812 220 257.383789062 c 1
 226.498046875 270.739257812 240.219726562 280 256 280 c 0
 271.780273438 280 285.501953125 270.739257812 292 257.383789062 c 1
 298.498046875 270.739257812 312.219726562 280 328 280 c 0
 350 280 368 262 368 240 c 0
 368 218 350 200 328 200 c 0
 312.219726562 200 298.498046875 209.260742188 292 222.616210938 c 1
 285.501953125 209.260742188 271.780273438 200 256 200 c 0
 240.219726562 200 226.498046875 209.260742188 220 222.616210938 c 1
 213.501953125 209.260742188 199.780273438 200 184 200 c 0
 168.219726562 200 154.498046875 209.260742188 148 222.616210938 c 1
 141.501953125 209.260742188 127.780273438 200 112 200 c 0
 96.2197265625 200 82.498046875 209.260742188 76 222.616210938 c 1
 69.501953125 209.260742188 55.7802734375 200 40 200 c 0
 18 200 0 218 0 240 c 0
0 440 m 0
 0 462 18 480 40 480 c 0
 55.7802734375 480 69.501953125 470.739257812 76 457.383789062 c 1
 82.498046875 470.739257812 96.2197265625 480 112 480 c 0
 127.780273438 480 141.501953125 470.739257812 148 457.383789062 c 1
 154.498046875 470.739257812 168.219726562 480 184 480 c 0
 199.780273438 480 213.501953125 470.739257812 220 457.383789062 c 1
 226.498046875 470.739257812 240.219726562 480 256 480 c 0
 271.780273438 480 285.501953125 470.739257812 292 457.383789062 c 1
 298.498046875 470.739257812 312.219726562 480 328 480 c 0
 350 480 368 462 368 440 c 0
 368 418 350 400 328 400 c 0
 312.219726562 400 298.498046875 409.260742188 292 422.616210938 c 1
 285.501953125 409.260742188 271.780273438 400 256 400 c 0
 240.219726562 400 226.498046875 409.260742188 220 422.616210938 c 1
 213.501953125 409.260742188 199.780273438 400 184 400 c 0
 168.219726562 400 154.498046875 409.260742188 148 422.616210938 c 1
 141.501953125 409.260742188 127.780273438 400 112 400 c 0
 96.2197265625 400 82.498046875 409.260742188 76 422.616210938 c 1
 69.501953125 409.260742188 55.7802734375 400 40 400 c 0
 18 400 0 418 0 440 c 0
EndSplineSet
EndChar

StartChar: greater
Encoding: 62 62 31
Width: 432
GlyphClass: 2
Flags: MW
HStem: 0 80<101 123> 100 80<173 195> 200 80<245 267> 300 80<317 339> 400 80<245 267> 500 80<173 195> 600 80<101 123>
LayerCount: 2
Fore
SplineSet
72 40 m 0
 72 62 90 80 112 80 c 0
 134 80 152 62 152 40 c 0
 152 18 134 0 112 0 c 0
 90 0 72 18 72 40 c 0
144 140 m 0
 144 162 162 180 184 180 c 0
 206 180 224 162 224 140 c 0
 224 118 206 100 184 100 c 0
 162 100 144 118 144 140 c 0
216 240 m 0
 216 262 234 280 256 280 c 0
 278 280 296 262 296 240 c 0
 296 218 278 200 256 200 c 0
 234 200 216 218 216 240 c 0
288 340 m 0
 288 362 306 380 328 380 c 0
 350 380 368 362 368 340 c 0
 368 318 350 300 328 300 c 0
 306 300 288 318 288 340 c 0
216 440 m 0
 216 462 234 480 256 480 c 0
 278 480 296 462 296 440 c 0
 296 418 278 400 256 400 c 0
 234 400 216 418 216 440 c 0
144 540 m 0
 144 562 162 580 184 580 c 0
 206 580 224 562 224 540 c 0
 224 518 206 500 184 500 c 0
 162 500 144 518 144 540 c 0
72 640 m 0
 72 662 90 680 112 680 c 0
 134 680 152 662 152 640 c 0
 152 618 134 600 112 600 c 0
 90 600 72 618 72 640 c 0
EndSplineSet
EndChar

StartChar: question
Encoding: 63 63 32
Width: 432
GlyphClass: 2
Flags: MW
HStem: 0 80<173 195> 200 80<173 195> 300 80<245 267> 400 80<317 339> 500 80<29 51 317 339> 600 80<65 83.8901 140.11 155.89 212.11 227.89 284.11 303>
LayerCount: 2
Fore
SplineSet
144 40 m 0
 144 62 162 80 184 80 c 0
 206 80 224 62 224 40 c 0
 224 18 206 0 184 0 c 0
 162 0 144 18 144 40 c 0
144 240 m 0
 144 262 162 280 184 280 c 0
 206 280 224 262 224 240 c 0
 224 218 206 200 184 200 c 0
 162 200 144 218 144 240 c 0
216 340 m 0
 216 362 234 380 256 380 c 0
 278 380 296 362 296 340 c 0
 296 318 278 300 256 300 c 0
 234 300 216 318 216 340 c 0
288 440 m 0
 288 462 306 480 328 480 c 0
 350 480 368 462 368 440 c 0
 368 418 350 400 328 400 c 0
 306 400 288 418 288 440 c 0
288 540 m 0
 288 562 306 580 328 580 c 0
 350 580 368 562 368 540 c 0
 368 518 350 500 328 500 c 0
 306 500 288 518 288 540 c 0
0 540 m 0
 0 562 18 580 40 580 c 0
 62 580 80 562 80 540 c 0
 80 518 62 500 40 500 c 0
 18 500 0 518 0 540 c 0
36 640 m 0
 36 662 54 680 76 680 c 0
 91.7802734375 680 105.501953125 670.739257812 112 657.383789062 c 1
 118.498046875 670.739257812 132.219726562 680 148 680 c 0
 163.780273438 680 177.501953125 670.739257812 184 657.383789062 c 1
 190.498046875 670.739257812 204.219726562 680 220 680 c 0
 235.780273438 680 249.501953125 670.739257812 256 657.383789062 c 1
 262.498046875 670.739257812 276.219726562 680 292 680 c 0
 314 680 332 662 332 640 c 0
 332 618 314 600 292 600 c 0
 276.219726562 600 262.498046875 609.260742188 256 622.616210938 c 1
 249.501953125 609.260742188 235.780273438 600 220 600 c 0
 204.219726562 600 190.498046875 609.260742188 184 622.616210938 c 1
 177.501953125 609.260742188 163.780273438 600 148 600 c 0
 132.219726562 600 118.498046875 609.260742188 112 622.616210938 c 1
 105.501953125 609.260742188 91.7802734375 600 76 600 c 0
 54 600 36 618 36 640 c 0
EndSplineSet
EndChar

StartChar: at
Encoding: 64 64 33
Width: 432
GlyphClass: 2
Flags: MW
HStem: 0 80<101 119.89 176.11 191.89 248.11 263.89 320.11 339> 100 80<29 51> 200 80<29 51 173 191.89 248.11 263.89 320.11 339> 300 80<29 51 137 159 317 339> 400 80<29 51 173 191.89 248.11 263.89 320.11 339> 500 80<29 51 317 339> 600 80<101 119.89 176.11 191.89 248.11 267>
LayerCount: 2
Fore
SplineSet
72 40 m 0
 72 62 90 80 112 80 c 0
 127.780273438 80 141.501953125 70.7392578125 148 57.3837890625 c 1
 154.498046875 70.7392578125 168.219726562 80 184 80 c 0
 199.780273438 80 213.501953125 70.7392578125 220 57.3837890625 c 1
 226.498046875 70.7392578125 240.219726562 80 256 80 c 0
 271.780273438 80 285.501953125 70.7392578125 292 57.3837890625 c 1
 298.498046875 70.7392578125 312.219726562 80 328 80 c 0
 350 80 368 62 368 40 c 0
 368 18 350 0 328 0 c 0
 312.219726562 0 298.498046875 9.2607421875 292 22.6162109375 c 1
 285.501953125 9.2607421875 271.780273438 0 256 0 c 0
 240.219726562 0 226.498046875 9.2607421875 220 22.6162109375 c 1
 213.501953125 9.2607421875 199.780273438 0 184 0 c 0
 168.219726562 0 154.498046875 9.2607421875 148 22.6162109375 c 1
 141.501953125 9.2607421875 127.780273438 0 112 0 c 0
 90 0 72 18 72 40 c 0
0 140 m 0
 0 162 18 180 40 180 c 0
 62 180 80 162 80 140 c 0
 80 118 62 100 40 100 c 0
 18 100 0 118 0 140 c 0
144 240 m 0
 144 262 162 280 184 280 c 0
 199.780273438 280 213.501953125 270.739257812 220 257.383789062 c 1
 226.498046875 270.739257812 240.219726562 280 256 280 c 0
 271.780273438 280 285.501953125 270.739257812 292 257.383789062 c 1
 298.498046875 270.739257812 312.219726562 280 328 280 c 0
 350 280 368 262 368 240 c 0
 368 218 350 200 328 200 c 0
 312.219726562 200 298.498046875 209.260742188 292 222.616210938 c 1
 285.501953125 209.260742188 271.780273438 200 256 200 c 0
 240.219726562 200 226.498046875 209.260742188 220 222.616210938 c 1
 213.501953125 209.260742188 199.780273438 200 184 200 c 0
 162 200 144 218 144 240 c 0
0 240 m 0
 0 262 18 280 40 280 c 0
 62 280 80 262 80 240 c 0
 80 218 62 200 40 200 c 0
 18 200 0 218 0 240 c 0
288 340 m 0
 288 362 306 380 328 380 c 0
 350 380 368 362 368 340 c 0
 368 318 350 300 328 300 c 0
 306 300 288 318 288 340 c 0
108 340 m 0
 108 362 126 380 148 380 c 0
 170 380 188 362 188 340 c 0
 188 318 170 300 148 300 c 0
 126 300 108 318 108 340 c 0
0 340 m 0
 0 362 18 380 40 380 c 0
 62 380 80 362 80 340 c 0
 80 318 62 300 40 300 c 0
 18 300 0 318 0 340 c 0
144 440 m 0
 144 462 162 480 184 480 c 0
 199.780273438 480 213.501953125 470.739257812 220 457.383789062 c 1
 226.498046875 470.739257812 240.219726562 480 256 480 c 0
 271.780273438 480 285.501953125 470.739257812 292 457.383789062 c 1
 298.498046875 470.739257812 312.219726562 480 328 480 c 0
 350 480 368 462 368 440 c 0
 368 418 350 400 328 400 c 0
 312.219726562 400 298.498046875 409.260742188 292 422.616210938 c 1
 285.501953125 409.260742188 271.780273438 400 256 400 c 0
 240.219726562 400 226.498046875 409.260742188 220 422.616210938 c 1
 213.501953125 409.260742188 199.780273438 400 184 400 c 0
 162 400 144 418 144 440 c 0
0 440 m 0
 0 462 18 480 40 480 c 0
 62 480 80 462 80 440 c 0
 80 418 62 400 40 400 c 0
 18 400 0 418 0 440 c 0
288 540 m 0
 288 562 306 580 328 580 c 0
 350 580 368 562 368 540 c 0
 368 518 350 500 328 500 c 0
 306 500 288 518 288 540 c 0
0 540 m 0
 0 562 18 580 40 580 c 0
 62 580 80 562 80 540 c 0
 80 518 62 500 40 500 c 0
 18 500 0 518 0 540 c 0
72 640 m 0
 72 662 90 680 112 680 c 0
 127.780273438 680 141.501953125 670.739257812 148 657.383789062 c 1
 154.498046875 670.739257812 168.219726562 680 184 680 c 0
 199.780273438 680 213.501953125 670.739257812 220 657.383789062 c 1
 226.498046875 670.739257812 240.219726562 680 256 680 c 0
 278 680 296 662 296 640 c 0
 296 618 278 600 256 600 c 0
 240.219726562 600 226.498046875 609.260742188 220 622.616210938 c 1
 213.501953125 609.260742188 199.780273438 600 184 600 c 0
 168.219726562 600 154.498046875 609.260742188 148 622.616210938 c 1
 141.501953125 609.260742188 127.780273438 600 112 600 c 0
 90 600 72 618 72 640 c 0
EndSplineSet
EndChar

StartChar: A
Encoding: 65 65 34
Width: 432
GlyphClass: 2
Flags: MW
HStem: 0 80<29 51 317 339> 100 80<29 51 317 339> 200 80<29 47.8901 104.11 119.89 176.11 191.89 248.11 263.89 320.11 339> 300 80<29 51 317 339> 400 80<65 87 281 303> 500 80<101 123 245 267> 600 80<137 155.89 212.11 231>
LayerCount: 2
Fore
SplineSet
288 40 m 0
 288 62 306 80 328 80 c 0
 350 80 368 62 368 40 c 0
 368 18 350 0 328 0 c 0
 306 0 288 18 288 40 c 0
0 40 m 0
 0 62 18 80 40 80 c 0
 62 80 80 62 80 40 c 0
 80 18 62 0 40 0 c 0
 18 0 0 18 0 40 c 0
288 140 m 0
 288 162 306 180 328 180 c 0
 350 180 368 162 368 140 c 0
 368 118 350 100 328 100 c 0
 306 100 288 118 288 140 c 0
0 140 m 0
 0 162 18 180 40 180 c 0
 62 180 80 162 80 140 c 0
 80 118 62 100 40 100 c 0
 18 100 0 118 0 140 c 0
0 240 m 0
 0 262 18 280 40 280 c 0
 55.7802734375 280 69.501953125 270.739257812 76 257.383789062 c 1
 82.498046875 270.739257812 96.2197265625 280 112 280 c 0
 127.780273438 280 141.501953125 270.739257812 148 257.383789062 c 1
 154.498046875 270.739257812 168.219726562 280 184 280 c 0
 199.780273438 280 213.501953125 270.739257812 220 257.383789062 c 1
 226.498046875 270.739257812 240.219726562 280 256 280 c 0
 271.780273438 280 285.501953125 270.739257812 292 257.383789062 c 1
 298.498046875 270.739257812 312.219726562 280 328 280 c 0
 350 280 368 262 368 240 c 0
 368 218 350 200 328 200 c 0
 312.219726562 200 298.498046875 209.260742188 292 222.616210938 c 1
 285.501953125 209.260742188 271.780273438 200 256 200 c 0
 240.219726562 200 226.498046875 209.260742188 220 222.616210938 c 1
 213.501953125 209.260742188 199.780273438 200 184 200 c 0
 168.219726562 200 154.498046875 209.260742188 148 222.616210938 c 1
 141.501953125 209.260742188 127.780273438 200 112 200 c 0
 96.2197265625 200 82.498046875 209.260742188 76 222.616210938 c 1
 69.501953125 209.260742188 55.7802734375 200 40 200 c 0
 18 200 0 218 0 240 c 0
288 340 m 0
 288 362 306 380 328 380 c 0
 350 380 368 362 368 340 c 0
 368 318 350 300 328 300 c 0
 306 300 288 318 288 340 c 0
0 340 m 0
 0 362 18 380 40 380 c 0
 62 380 80 362 80 340 c 0
 80 318 62 300 40 300 c 0
 18 300 0 318 0 340 c 0
252 440 m 0
 252 462 270 480 292 480 c 0
 314 480 332 462 332 440 c 0
 332 418 314 400 292 400 c 0
 270 400 252 418 252 440 c 0
36 440 m 0
 36 462 54 480 76 480 c 0
 98 480 116 462 116 440 c 0
 116 418 98 400 76 400 c 0
 54 400 36 418 36 440 c 0
216 540 m 0
 216 562 234 580 256 580 c 0
 278 580 296 562 296 540 c 0
 296 518 278 500 256 500 c 0
 234 500 216 518 216 540 c 0
72 540 m 0
 72 562 90 580 112 580 c 0
 134 580 152 562 152 540 c 0
 152 518 134 500 112 500 c 0
 90 500 72 518 72 540 c 0
108 640 m 0
 108 662 126 680 148 680 c 0
 163.780273438 680 177.501953125 670.739257812 184 657.383789062 c 1
 190.498046875 670.739257812 204.219726562 680 220 680 c 0
 242 680 260 662 260 640 c 0
 260 618 242 600 220 600 c 0
 204.219726562 600 190.498046875 609.260742188 184 622.616210938 c 1
 177.501953125 609.260742188 163.780273438 600 148 600 c 0
 126 600 108 618 108 640 c 0
EndSplineSet
EndChar

StartChar: B
Encoding: 66 66 35
Width: 432
GlyphClass: 2
Flags: MW
HStem: 0 80<29 47.8901 104.11 119.89 176.11 191.89 248.11 267> 100 80<65 87 317 339> 200 80<65 87 317 339> 300 80<65 83.8901 140.11 155.89 212.11 227.89 284.11 303> 400 80<65 87 317 339> 500 80<65 87 317 339> 600 80<29 47.8901 104.11 119.89 176.11 191.89 248.11 267>
LayerCount: 2
Fore
SplineSet
0 40 m 0
 0 62 18 80 40 80 c 0
 55.7802734375 80 69.501953125 70.7392578125 76 57.3837890625 c 1
 82.498046875 70.7392578125 96.2197265625 80 112 80 c 0
 127.780273438 80 141.501953125 70.7392578125 148 57.3837890625 c 1
 154.498046875 70.7392578125 168.219726562 80 184 80 c 0
 199.780273438 80 213.501953125 70.7392578125 220 57.3837890625 c 1
 226.498046875 70.7392578125 240.219726562 80 256 80 c 0
 278 80 296 62 296 40 c 0
 296 18 278 0 256 0 c 0
 240.219726562 0 226.498046875 9.2607421875 220 22.6162109375 c 1
 213.501953125 9.2607421875 199.780273438 0 184 0 c 0
 168.219726562 0 154.498046875 9.2607421875 148 22.6162109375 c 1
 141.501953125 9.2607421875 127.780273438 0 112 0 c 0
 96.2197265625 0 82.498046875 9.2607421875 76 22.6162109375 c 1
 69.501953125 9.2607421875 55.7802734375 0 40 0 c 0
 18 0 0 18 0 40 c 0
288 140 m 0
 288 162 306 180 328 180 c 0
 350 180 368 162 368 140 c 0
 368 118 350 100 328 100 c 0
 306 100 288 118 288 140 c 0
36 140 m 0
 36 162 54 180 76 180 c 0
 98 180 116 162 116 140 c 0
 116 118 98 100 76 100 c 0
 54 100 36 118 36 140 c 0
288 240 m 0
 288 262 306 280 328 280 c 0
 350 280 368 262 368 240 c 0
 368 218 350 200 328 200 c 0
 306 200 288 218 288 240 c 0
36 240 m 0
 36 262 54 280 76 280 c 0
 98 280 116 262 116 240 c 0
 116 218 98 200 76 200 c 0
 54 200 36 218 36 240 c 0
36 340 m 0
 36 362 54 380 76 380 c 0
 91.7802734375 380 105.501953125 370.739257812 112 357.383789062 c 1
 118.498046875 370.739257812 132.219726562 380 148 380 c 0
 163.780273438 380 177.501953125 370.739257812 184 357.383789062 c 1
 190.498046875 370.739257812 204.219726562 380 220 380 c 0
 235.780273438 380 249.501953125 370.739257812 256 357.383789062 c 1
 262.498046875 370.739257812 276.219726562 380 292 380 c 0
 314 380 332 362 332 340 c 0
 332 318 314 300 292 300 c 0
 276.219726562 300 262.498046875 309.260742188 256 322.616210938 c 1
 249.501953125 309.260742188 235.780273438 300 220 300 c 0
 204.219726562 300 190.498046875 309.260742188 184 322.616210938 c 1
 177.501953125 309.260742188 163.780273438 300 148 300 c 0
 132.219726562 300 118.498046875 309.260742188 112 322.616210938 c 1
 105.501953125 309.260742188 91.7802734375 300 76 300 c 0
 54 300 36 318 36 340 c 0
288 440 m 0
 288 462 306 480 328 480 c 0
 350 480 368 462 368 440 c 0
 368 418 350 400 328 400 c 0
 306 400 288 418 288 440 c 0
36 440 m 0
 36 462 54 480 76 480 c 0
 98 480 116 462 116 440 c 0
 116 418 98 400 76 400 c 0
 54 400 36 418 36 440 c 0
288 540 m 0
 288 562 306 580 328 580 c 0
 350 580 368 562 368 540 c 0
 368 518 350 500 328 500 c 0
 306 500 288 518 288 540 c 0
36 540 m 0
 36 562 54 580 76 580 c 0
 98 580 116 562 116 540 c 0
 116 518 98 500 76 500 c 0
 54 500 36 518 36 540 c 0
0 640 m 0
 0 662 18 680 40 680 c 0
 55.7802734375 680 69.501953125 670.739257812 76 657.383789062 c 1
 82.498046875 670.739257812 96.2197265625 680 112 680 c 0
 127.780273438 680 141.501953125 670.739257812 148 657.383789062 c 1
 154.498046875 670.739257812 168.219726562 680 184 680 c 0
 199.780273438 680 213.501953125 670.739257812 220 657.383789062 c 1
 226.498046875 670.739257812 240.219726562 680 256 680 c 0
 278 680 296 662 296 640 c 0
 296 618 278 600 256 600 c 0
 240.219726562 600 226.498046875 609.260742188 220 622.616210938 c 1
 213.501953125 609.260742188 199.780273438 600 184 600 c 0
 168.219726562 600 154.498046875 609.260742188 148 622.616210938 c 1
 141.501953125 609.260742188 127.780273438 600 112 600 c 0
 96.2197265625 600 82.498046875 609.260742188 76 622.616210938 c 1
 69.501953125 609.260742188 55.7802734375 600 40 600 c 0
 18 600 0 618 0 640 c 0
EndSplineSet
EndChar

StartChar: C
Encoding: 67 67 36
Width: 432
GlyphClass: 2
Flags: MW
HStem: 0 80<65 83.8901 140.11 155.89 212.11 227.89 284.11 303> 100 80<29 51 317 339> 200 80<29 51> 300 80<29 51> 400 80<29 51> 500 80<29 51 317 339> 600 80<65 83.8901 140.11 155.89 212.11 227.89 284.11 303>
LayerCount: 2
Fore
SplineSet
36 40 m 0
 36 62 54 80 76 80 c 0
 91.7802734375 80 105.501953125 70.7392578125 112 57.3837890625 c 1
 118.498046875 70.7392578125 132.219726562 80 148 80 c 0
 163.780273438 80 177.501953125 70.7392578125 184 57.3837890625 c 1
 190.498046875 70.7392578125 204.219726562 80 220 80 c 0
 235.780273438 80 249.501953125 70.7392578125 256 57.3837890625 c 1
 262.498046875 70.7392578125 276.219726562 80 292 80 c 0
 314 80 332 62 332 40 c 0
 332 18 314 0 292 0 c 0
 276.219726562 0 262.498046875 9.2607421875 256 22.6162109375 c 1
 249.501953125 9.2607421875 235.780273438 0 220 0 c 0
 204.219726562 0 190.498046875 9.2607421875 184 22.6162109375 c 1
 177.501953125 9.2607421875 163.780273438 0 148 0 c 0
 132.219726562 0 118.498046875 9.2607421875 112 22.6162109375 c 1
 105.501953125 9.2607421875 91.7802734375 0 76 0 c 0
 54 0 36 18 36 40 c 0
288 140 m 0
 288 162 306 180 328 180 c 0
 350 180 368 162 368 140 c 0
 368 118 350 100 328 100 c 0
 306 100 288 118 288 140 c 0
0 140 m 0
 0 162 18 180 40 180 c 0
 62 180 80 162 80 140 c 0
 80 118 62 100 40 100 c 0
 18 100 0 118 0 140 c 0
0 240 m 0
 0 262 18 280 40 280 c 0
 62 280 80 262 80 240 c 0
 80 218 62 200 40 200 c 0
 18 200 0 218 0 240 c 0
0 340 m 0
 0 362 18 380 40 380 c 0
 62 380 80 362 80 340 c 0
 80 318 62 300 40 300 c 0
 18 300 0 318 0 340 c 0
0 440 m 0
 0 462 18 480 40 480 c 0
 62 480 80 462 80 440 c 0
 80 418 62 400 40 400 c 0
 18 400 0 418 0 440 c 0
288 540 m 0
 288 562 306 580 328 580 c 0
 350 580 368 562 368 540 c 0
 368 518 350 500 328 500 c 0
 306 500 288 518 288 540 c 0
0 540 m 0
 0 562 18 580 40 580 c 0
 62 580 80 562 80 540 c 0
 80 518 62 500 40 500 c 0
 18 500 0 518 0 540 c 0
36 640 m 0
 36 662 54 680 76 680 c 0
 91.7802734375 680 105.501953125 670.739257812 112 657.383789062 c 1
 118.498046875 670.739257812 132.219726562 680 148 680 c 0
 163.780273438 680 177.501953125 670.739257812 184 657.383789062 c 1
 190.498046875 670.739257812 204.219726562 680 220 680 c 0
 235.780273438 680 249.501953125 670.739257812 256 657.383789062 c 1
 262.498046875 670.739257812 276.219726562 680 292 680 c 0
 314 680 332 662 332 640 c 0
 332 618 314 600 292 600 c 0
 276.219726562 600 262.498046875 609.260742188 256 622.616210938 c 1
 249.501953125 609.260742188 235.780273438 600 220 600 c 0
 204.219726562 600 190.498046875 609.260742188 184 622.616210938 c 1
 177.501953125 609.260742188 163.780273438 600 148 600 c 0
 132.219726562 600 118.498046875 609.260742188 112 622.616210938 c 1
 105.501953125 609.260742188 91.7802734375 600 76 600 c 0
 54 600 36 618 36 640 c 0
EndSplineSet
EndChar

StartChar: D
Encoding: 68 68 37
Width: 432
GlyphClass: 2
Flags: MW
HStem: 0 80<29 47.8901 104.11 119.89 176.11 191.89 248.11 267> 100 80<65 87 281 303> 200 80<65 87 317 339> 300 80<65 87 317 339> 400 80<65 87 317 339> 500 80<65 87 281 303> 600 80<29 47.8901 104.11 119.89 176.11 191.89 248.11 267>
LayerCount: 2
Fore
SplineSet
0 40 m 0
 0 62 18 80 40 80 c 0
 55.7802734375 80 69.501953125 70.7392578125 76 57.3837890625 c 1
 82.498046875 70.7392578125 96.2197265625 80 112 80 c 0
 127.780273438 80 141.501953125 70.7392578125 148 57.3837890625 c 1
 154.498046875 70.7392578125 168.219726562 80 184 80 c 0
 199.780273438 80 213.501953125 70.7392578125 220 57.3837890625 c 1
 226.498046875 70.7392578125 240.219726562 80 256 80 c 0
 278 80 296 62 296 40 c 0
 296 18 278 0 256 0 c 0
 240.219726562 0 226.498046875 9.2607421875 220 22.6162109375 c 1
 213.501953125 9.2607421875 199.780273438 0 184 0 c 0
 168.219726562 0 154.498046875 9.2607421875 148 22.6162109375 c 1
 141.501953125 9.2607421875 127.780273438 0 112 0 c 0
 96.2197265625 0 82.498046875 9.2607421875 76 22.6162109375 c 1
 69.501953125 9.2607421875 55.7802734375 0 40 0 c 0
 18 0 0 18 0 40 c 0
252 140 m 0
 252 162 270 180 292 180 c 0
 314 180 332 162 332 140 c 0
 332 118 314 100 292 100 c 0
 270 100 252 118 252 140 c 0
36 140 m 0
 36 162 54 180 76 180 c 0
 98 180 116 162 116 140 c 0
 116 118 98 100 76 100 c 0
 54 100 36 118 36 140 c 0
288 240 m 0
 288 262 306 280 328 280 c 0
 350 280 368 262 368 240 c 0
 368 218 350 200 328 200 c 0
 306 200 288 218 288 240 c 0
36 240 m 0
 36 262 54 280 76 280 c 0
 98 280 116 262 116 240 c 0
 116 218 98 200 76 200 c 0
 54 200 36 218 36 240 c 0
288 340 m 0
 288 362 306 380 328 380 c 0
 350 380 368 362 368 340 c 0
 368 318 350 300 328 300 c 0
 306 300 288 318 288 340 c 0
36 340 m 0
 36 362 54 380 76 380 c 0
 98 380 116 362 116 340 c 0
 116 318 98 300 76 300 c 0
 54 300 36 318 36 340 c 0
288 440 m 0
 288 462 306 480 328 480 c 0
 350 480 368 462 368 440 c 0
 368 418 350 400 328 400 c 0
 306 400 288 418 288 440 c 0
36 440 m 0
 36 462 54 480 76 480 c 0
 98 480 116 462 116 440 c 0
 116 418 98 400 76 400 c 0
 54 400 36 418 36 440 c 0
252 540 m 0
 252 562 270 580 292 580 c 0
 314 580 332 562 332 540 c 0
 332 518 314 500 292 500 c 0
 270 500 252 518 252 540 c 0
36 540 m 0
 36 562 54 580 76 580 c 0
 98 580 116 562 116 540 c 0
 116 518 98 500 76 500 c 0
 54 500 36 518 36 540 c 0
0 640 m 0
 0 662 18 680 40 680 c 0
 55.7802734375 680 69.501953125 670.739257812 76 657.383789062 c 1
 82.498046875 670.739257812 96.2197265625 680 112 680 c 0
 127.780273438 680 141.501953125 670.739257812 148 657.383789062 c 1
 154.498046875 670.739257812 168.219726562 680 184 680 c 0
 199.780273438 680 213.501953125 670.739257812 220 657.383789062 c 1
 226.498046875 670.739257812 240.219726562 680 256 680 c 0
 278 680 296 662 296 640 c 0
 296 618 278 600 256 600 c 0
 240.219726562 600 226.498046875 609.260742188 220 622.616210938 c 1
 213.501953125 609.260742188 199.780273438 600 184 600 c 0
 168.219726562 600 154.498046875 609.260742188 148 622.616210938 c 1
 141.501953125 609.260742188 127.780273438 600 112 600 c 0
 96.2197265625 600 82.498046875 609.260742188 76 622.616210938 c 1
 69.501953125 609.260742188 55.7802734375 600 40 600 c 0
 18 600 0 618 0 640 c 0
EndSplineSet
EndChar

StartChar: E
Encoding: 69 69 38
Width: 432
GlyphClass: 2
Flags: MW
HStem: 0 80<29 47.8901 104.11 119.89 176.11 191.89 248.11 263.89 320.11 339> 100 80<29 51> 200 80<29 51> 300 80<29 47.8901 104.11 119.89 176.11 191.89 248.11 267> 400 80<29 51> 500 80<29 51> 600 80<29 47.8901 104.11 119.89 176.11 191.89 248.11 263.89 320.11 339>
LayerCount: 2
Fore
SplineSet
0 40 m 0
 0 62 18 80 40 80 c 0
 55.7802734375 80 69.501953125 70.7392578125 76 57.3837890625 c 1
 82.498046875 70.7392578125 96.2197265625 80 112 80 c 0
 127.780273438 80 141.501953125 70.7392578125 148 57.3837890625 c 1
 154.498046875 70.7392578125 168.219726562 80 184 80 c 0
 199.780273438 80 213.501953125 70.7392578125 220 57.3837890625 c 1
 226.498046875 70.7392578125 240.219726562 80 256 80 c 0
 271.780273438 80 285.501953125 70.7392578125 292 57.3837890625 c 1
 298.498046875 70.7392578125 312.219726562 80 328 80 c 0
 350 80 368 62 368 40 c 0
 368 18 350 0 328 0 c 0
 312.219726562 0 298.498046875 9.2607421875 292 22.6162109375 c 1
 285.501953125 9.2607421875 271.780273438 0 256 0 c 0
 240.219726562 0 226.498046875 9.2607421875 220 22.6162109375 c 1
 213.501953125 9.2607421875 199.780273438 0 184 0 c 0
 168.219726562 0 154.498046875 9.2607421875 148 22.6162109375 c 1
 141.501953125 9.2607421875 127.780273438 0 112 0 c 0
 96.2197265625 0 82.498046875 9.2607421875 76 22.6162109375 c 1
 69.501953125 9.2607421875 55.7802734375 0 40 0 c 0
 18 0 0 18 0 40 c 0
0 140 m 0
 0 162 18 180 40 180 c 0
 62 180 80 162 80 140 c 0
 80 118 62 100 40 100 c 0
 18 100 0 118 0 140 c 0
0 240 m 0
 0 262 18 280 40 280 c 0
 62 280 80 262 80 240 c 0
 80 218 62 200 40 200 c 0
 18 200 0 218 0 240 c 0
0 340 m 0
 0 362 18 380 40 380 c 0
 55.7802734375 380 69.501953125 370.739257812 76 357.383789062 c 1
 82.498046875 370.739257812 96.2197265625 380 112 380 c 0
 127.780273438 380 141.501953125 370.739257812 148 357.383789062 c 1
 154.498046875 370.739257812 168.219726562 380 184 380 c 0
 199.780273438 380 213.501953125 370.739257812 220 357.383789062 c 1
 226.498046875 370.739257812 240.219726562 380 256 380 c 0
 278 380 296 362 296 340 c 0
 296 318 278 300 256 300 c 0
 240.219726562 300 226.498046875 309.260742188 220 322.616210938 c 1
 213.501953125 309.260742188 199.780273438 300 184 300 c 0
 168.219726562 300 154.498046875 309.260742188 148 322.616210938 c 1
 141.501953125 309.260742188 127.780273438 300 112 300 c 0
 96.2197265625 300 82.498046875 309.260742188 76 322.616210938 c 1
 69.501953125 309.260742188 55.7802734375 300 40 300 c 0
 18 300 0 318 0 340 c 0
0 440 m 0
 0 462 18 480 40 480 c 0
 62 480 80 462 80 440 c 0
 80 418 62 400 40 400 c 0
 18 400 0 418 0 440 c 0
0 540 m 0
 0 562 18 580 40 580 c 0
 62 580 80 562 80 540 c 0
 80 518 62 500 40 500 c 0
 18 500 0 518 0 540 c 0
0 640 m 0
 0 662 18 680 40 680 c 0
 55.7802734375 680 69.501953125 670.739257812 76 657.383789062 c 1
 82.498046875 670.739257812 96.2197265625 680 112 680 c 0
 127.780273438 680 141.501953125 670.739257812 148 657.383789062 c 1
 154.498046875 670.739257812 168.219726562 680 184 680 c 0
 199.780273438 680 213.501953125 670.739257812 220 657.383789062 c 1
 226.498046875 670.739257812 240.219726562 680 256 680 c 0
 271.780273438 680 285.501953125 670.739257812 292 657.383789062 c 1
 298.498046875 670.739257812 312.219726562 680 328 680 c 0
 350 680 368 662 368 640 c 0
 368 618 350 600 328 600 c 0
 312.219726562 600 298.498046875 609.260742188 292 622.616210938 c 1
 285.501953125 609.260742188 271.780273438 600 256 600 c 0
 240.219726562 600 226.498046875 609.260742188 220 622.616210938 c 1
 213.501953125 609.260742188 199.780273438 600 184 600 c 0
 168.219726562 600 154.498046875 609.260742188 148 622.616210938 c 1
 141.501953125 609.260742188 127.780273438 600 112 600 c 0
 96.2197265625 600 82.498046875 609.260742188 76 622.616210938 c 1
 69.501953125 609.260742188 55.7802734375 600 40 600 c 0
 18 600 0 618 0 640 c 0
EndSplineSet
EndChar

StartChar: F
Encoding: 70 70 39
Width: 432
GlyphClass: 2
Flags: MW
HStem: 0 80<29 51> 100 80<29 51> 200 80<29 51> 300 80<29 47.8901 104.11 119.89 176.11 191.89 248.11 267> 400 80<29 51> 500 80<29 51> 600 80<29 47.8901 104.11 119.89 176.11 191.89 248.11 263.89 320.11 339>
LayerCount: 2
Fore
SplineSet
0 40 m 0
 0 62 18 80 40 80 c 0
 62 80 80 62 80 40 c 0
 80 18 62 0 40 0 c 0
 18 0 0 18 0 40 c 0
0 140 m 0
 0 162 18 180 40 180 c 0
 62 180 80 162 80 140 c 0
 80 118 62 100 40 100 c 0
 18 100 0 118 0 140 c 0
0 240 m 0
 0 262 18 280 40 280 c 0
 62 280 80 262 80 240 c 0
 80 218 62 200 40 200 c 0
 18 200 0 218 0 240 c 0
0 340 m 0
 0 362 18 380 40 380 c 0
 55.7802734375 380 69.501953125 370.739257812 76 357.383789062 c 1
 82.498046875 370.739257812 96.2197265625 380 112 380 c 0
 127.780273438 380 141.501953125 370.739257812 148 357.383789062 c 1
 154.498046875 370.739257812 168.219726562 380 184 380 c 0
 199.780273438 380 213.501953125 370.739257812 220 357.383789062 c 1
 226.498046875 370.739257812 240.219726562 380 256 380 c 0
 278 380 296 362 296 340 c 0
 296 318 278 300 256 300 c 0
 240.219726562 300 226.498046875 309.260742188 220 322.616210938 c 1
 213.501953125 309.260742188 199.780273438 300 184 300 c 0
 168.219726562 300 154.498046875 309.260742188 148 322.616210938 c 1
 141.501953125 309.260742188 127.780273438 300 112 300 c 0
 96.2197265625 300 82.498046875 309.260742188 76 322.616210938 c 1
 69.501953125 309.260742188 55.7802734375 300 40 300 c 0
 18 300 0 318 0 340 c 0
0 440 m 0
 0 462 18 480 40 480 c 0
 62 480 80 462 80 440 c 0
 80 418 62 400 40 400 c 0
 18 400 0 418 0 440 c 0
0 540 m 0
 0 562 18 580 40 580 c 0
 62 580 80 562 80 540 c 0
 80 518 62 500 40 500 c 0
 18 500 0 518 0 540 c 0
0 640 m 0
 0 662 18 680 40 680 c 0
 55.7802734375 680 69.501953125 670.739257812 76 657.383789062 c 1
 82.498046875 670.739257812 96.2197265625 680 112 680 c 0
 127.780273438 680 141.501953125 670.739257812 148 657.383789062 c 1
 154.498046875 670.739257812 168.219726562 680 184 680 c 0
 199.780273438 680 213.501953125 670.739257812 220 657.383789062 c 1
 226.498046875 670.739257812 240.219726562 680 256 680 c 0
 271.780273438 680 285.501953125 670.739257812 292 657.383789062 c 1
 298.498046875 670.739257812 312.219726562 680 328 680 c 0
 350 680 368 662 368 640 c 0
 368 618 350 600 328 600 c 0
 312.219726562 600 298.498046875 609.260742188 292 622.616210938 c 1
 285.501953125 609.260742188 271.780273438 600 256 600 c 0
 240.219726562 600 226.498046875 609.260742188 220 622.616210938 c 1
 213.501953125 609.260742188 199.780273438 600 184 600 c 0
 168.219726562 600 154.498046875 609.260742188 148 622.616210938 c 1
 141.501953125 609.260742188 127.780273438 600 112 600 c 0
 96.2197265625 600 82.498046875 609.260742188 76 622.616210938 c 1
 69.501953125 609.260742188 55.7802734375 600 40 600 c 0
 18 600 0 618 0 640 c 0
EndSplineSet
EndChar

StartChar: G
Encoding: 71 71 40
Width: 432
GlyphClass: 2
Flags: MW
HStem: 0 80<65 83.8901 140.11 155.89 212.11 227.89 284.11 303> 100 80<29 51 317 339> 200 80<29 51 317 339> 300 80<29 51 173 191.89 248.11 263.89 320.11 339> 400 80<29 51> 500 80<29 51 317 339> 600 80<65 83.8901 140.11 155.89 212.11 227.89 284.11 303>
LayerCount: 2
Fore
SplineSet
36 40 m 0
 36 62 54 80 76 80 c 0
 91.7802734375 80 105.501953125 70.7392578125 112 57.3837890625 c 1
 118.498046875 70.7392578125 132.219726562 80 148 80 c 0
 163.780273438 80 177.501953125 70.7392578125 184 57.3837890625 c 1
 190.498046875 70.7392578125 204.219726562 80 220 80 c 0
 235.780273438 80 249.501953125 70.7392578125 256 57.3837890625 c 1
 262.498046875 70.7392578125 276.219726562 80 292 80 c 0
 314 80 332 62 332 40 c 0
 332 18 314 0 292 0 c 0
 276.219726562 0 262.498046875 9.2607421875 256 22.6162109375 c 1
 249.501953125 9.2607421875 235.780273438 0 220 0 c 0
 204.219726562 0 190.498046875 9.2607421875 184 22.6162109375 c 1
 177.501953125 9.2607421875 163.780273438 0 148 0 c 0
 132.219726562 0 118.498046875 9.2607421875 112 22.6162109375 c 1
 105.501953125 9.2607421875 91.7802734375 0 76 0 c 0
 54 0 36 18 36 40 c 0
288 140 m 0
 288 162 306 180 328 180 c 0
 350 180 368 162 368 140 c 0
 368 118 350 100 328 100 c 0
 306 100 288 118 288 140 c 0
0 140 m 0
 0 162 18 180 40 180 c 0
 62 180 80 162 80 140 c 0
 80 118 62 100 40 100 c 0
 18 100 0 118 0 140 c 0
288 240 m 0
 288 262 306 280 328 280 c 0
 350 280 368 262 368 240 c 0
 368 218 350 200 328 200 c 0
 306 200 288 218 288 240 c 0
0 240 m 0
 0 262 18 280 40 280 c 0
 62 280 80 262 80 240 c 0
 80 218 62 200 40 200 c 0
 18 200 0 218 0 240 c 0
144 340 m 0
 144 362 162 380 184 380 c 0
 199.780273438 380 213.501953125 370.739257812 220 357.383789062 c 1
 226.498046875 370.739257812 240.219726562 380 256 380 c 0
 271.780273438 380 285.501953125 370.739257812 292 357.383789062 c 1
 298.498046875 370.739257812 312.219726562 380 328 380 c 0
 350 380 368 362 368 340 c 0
 368 318 350 300 328 300 c 0
 312.219726562 300 298.498046875 309.260742188 292 322.616210938 c 1
 285.501953125 309.260742188 271.780273438 300 256 300 c 0
 240.219726562 300 226.498046875 309.260742188 220 322.616210938 c 1
 213.501953125 309.260742188 199.780273438 300 184 300 c 0
 162 300 144 318 144 340 c 0
0 340 m 0
 0 362 18 380 40 380 c 0
 62 380 80 362 80 340 c 0
 80 318 62 300 40 300 c 0
 18 300 0 318 0 340 c 0
0 440 m 0
 0 462 18 480 40 480 c 0
 62 480 80 462 80 440 c 0
 80 418 62 400 40 400 c 0
 18 400 0 418 0 440 c 0
288 540 m 0
 288 562 306 580 328 580 c 0
 350 580 368 562 368 540 c 0
 368 518 350 500 328 500 c 0
 306 500 288 518 288 540 c 0
0 540 m 0
 0 562 18 580 40 580 c 0
 62 580 80 562 80 540 c 0
 80 518 62 500 40 500 c 0
 18 500 0 518 0 540 c 0
36 640 m 0
 36 662 54 680 76 680 c 0
 91.7802734375 680 105.501953125 670.739257812 112 657.383789062 c 1
 118.498046875 670.739257812 132.219726562 680 148 680 c 0
 163.780273438 680 177.501953125 670.739257812 184 657.383789062 c 1
 190.498046875 670.739257812 204.219726562 680 220 680 c 0
 235.780273438 680 249.501953125 670.739257812 256 657.383789062 c 1
 262.498046875 670.739257812 276.219726562 680 292 680 c 0
 314 680 332 662 332 640 c 0
 332 618 314 600 292 600 c 0
 276.219726562 600 262.498046875 609.260742188 256 622.616210938 c 1
 249.501953125 609.260742188 235.780273438 600 220 600 c 0
 204.219726562 600 190.498046875 609.260742188 184 622.616210938 c 1
 177.501953125 609.260742188 163.780273438 600 148 600 c 0
 132.219726562 600 118.498046875 609.260742188 112 622.616210938 c 1
 105.501953125 609.260742188 91.7802734375 600 76 600 c 0
 54 600 36 618 36 640 c 0
EndSplineSet
EndChar

StartChar: H
Encoding: 72 72 41
Width: 432
GlyphClass: 2
Flags: MW
HStem: 0 80<29 51 317 339> 100 80<29 51 317 339> 200 80<29 51 317 339> 300 80<29 47.8901 104.11 119.89 176.11 191.89 248.11 263.89 320.11 339> 400 80<29 51 317 339> 500 80<29 51 317 339> 600 80<29 51 317 339>
LayerCount: 2
Fore
SplineSet
288 40 m 0
 288 62 306 80 328 80 c 0
 350 80 368 62 368 40 c 0
 368 18 350 0 328 0 c 0
 306 0 288 18 288 40 c 0
0 40 m 0
 0 62 18 80 40 80 c 0
 62 80 80 62 80 40 c 0
 80 18 62 0 40 0 c 0
 18 0 0 18 0 40 c 0
288 140 m 0
 288 162 306 180 328 180 c 0
 350 180 368 162 368 140 c 0
 368 118 350 100 328 100 c 0
 306 100 288 118 288 140 c 0
0 140 m 0
 0 162 18 180 40 180 c 0
 62 180 80 162 80 140 c 0
 80 118 62 100 40 100 c 0
 18 100 0 118 0 140 c 0
288 240 m 0
 288 262 306 280 328 280 c 0
 350 280 368 262 368 240 c 0
 368 218 350 200 328 200 c 0
 306 200 288 218 288 240 c 0
0 240 m 0
 0 262 18 280 40 280 c 0
 62 280 80 262 80 240 c 0
 80 218 62 200 40 200 c 0
 18 200 0 218 0 240 c 0
0 340 m 0
 0 362 18 380 40 380 c 0
 55.7802734375 380 69.501953125 370.739257812 76 357.383789062 c 1
 82.498046875 370.739257812 96.2197265625 380 112 380 c 0
 127.780273438 380 141.501953125 370.739257812 148 357.383789062 c 1
 154.498046875 370.739257812 168.219726562 380 184 380 c 0
 199.780273438 380 213.501953125 370.739257812 220 357.383789062 c 1
 226.498046875 370.739257812 240.219726562 380 256 380 c 0
 271.780273438 380 285.501953125 370.739257812 292 357.383789062 c 1
 298.498046875 370.739257812 312.219726562 380 328 380 c 0
 350 380 368 362 368 340 c 0
 368 318 350 300 328 300 c 0
 312.219726562 300 298.498046875 309.260742188 292 322.616210938 c 1
 285.501953125 309.260742188 271.780273438 300 256 300 c 0
 240.219726562 300 226.498046875 309.260742188 220 322.616210938 c 1
 213.501953125 309.260742188 199.780273438 300 184 300 c 0
 168.219726562 300 154.498046875 309.260742188 148 322.616210938 c 1
 141.501953125 309.260742188 127.780273438 300 112 300 c 0
 96.2197265625 300 82.498046875 309.260742188 76 322.616210938 c 1
 69.501953125 309.260742188 55.7802734375 300 40 300 c 0
 18 300 0 318 0 340 c 0
288 440 m 0
 288 462 306 480 328 480 c 0
 350 480 368 462 368 440 c 0
 368 418 350 400 328 400 c 0
 306 400 288 418 288 440 c 0
0 440 m 0
 0 462 18 480 40 480 c 0
 62 480 80 462 80 440 c 0
 80 418 62 400 40 400 c 0
 18 400 0 418 0 440 c 0
288 540 m 0
 288 562 306 580 328 580 c 0
 350 580 368 562 368 540 c 0
 368 518 350 500 328 500 c 0
 306 500 288 518 288 540 c 0
0 540 m 0
 0 562 18 580 40 580 c 0
 62 580 80 562 80 540 c 0
 80 518 62 500 40 500 c 0
 18 500 0 518 0 540 c 0
288 640 m 0
 288 662 306 680 328 680 c 0
 350 680 368 662 368 640 c 0
 368 618 350 600 328 600 c 0
 306 600 288 618 288 640 c 0
0 640 m 0
 0 662 18 680 40 680 c 0
 62 680 80 662 80 640 c 0
 80 618 62 600 40 600 c 0
 18 600 0 618 0 640 c 0
EndSplineSet
EndChar

StartChar: I
Encoding: 73 73 42
Width: 432
GlyphClass: 2
Flags: MW
HStem: 0 80<101 119.89 176.11 191.89 248.11 267> 100 80<173 195> 200 80<173 195> 300 80<173 195> 400 80<173 195> 500 80<173 195> 600 80<101 119.89 176.11 191.89 248.11 267>
LayerCount: 2
Fore
SplineSet
72 40 m 0
 72 62 90 80 112 80 c 0
 127.780273438 80 141.501953125 70.7392578125 148 57.3837890625 c 1
 154.498046875 70.7392578125 168.219726562 80 184 80 c 0
 199.780273438 80 213.501953125 70.7392578125 220 57.3837890625 c 1
 226.498046875 70.7392578125 240.219726562 80 256 80 c 0
 278 80 296 62 296 40 c 0
 296 18 278 0 256 0 c 0
 240.219726562 0 226.498046875 9.2607421875 220 22.6162109375 c 1
 213.501953125 9.2607421875 199.780273438 0 184 0 c 0
 168.219726562 0 154.498046875 9.2607421875 148 22.6162109375 c 1
 141.501953125 9.2607421875 127.780273438 0 112 0 c 0
 90 0 72 18 72 40 c 0
144 140 m 0
 144 162 162 180 184 180 c 0
 206 180 224 162 224 140 c 0
 224 118 206 100 184 100 c 0
 162 100 144 118 144 140 c 0
144 240 m 0
 144 262 162 280 184 280 c 0
 206 280 224 262 224 240 c 0
 224 218 206 200 184 200 c 0
 162 200 144 218 144 240 c 0
144 340 m 0
 144 362 162 380 184 380 c 0
 206 380 224 362 224 340 c 0
 224 318 206 300 184 300 c 0
 162 300 144 318 144 340 c 0
144 440 m 0
 144 462 162 480 184 480 c 0
 206 480 224 462 224 440 c 0
 224 418 206 400 184 400 c 0
 162 400 144 418 144 440 c 0
144 540 m 0
 144 562 162 580 184 580 c 0
 206 580 224 562 224 540 c 0
 224 518 206 500 184 500 c 0
 162 500 144 518 144 540 c 0
72 640 m 0
 72 662 90 680 112 680 c 0
 127.780273438 680 141.501953125 670.739257812 148 657.383789062 c 1
 154.498046875 670.739257812 168.219726562 680 184 680 c 0
 199.780273438 680 213.501953125 670.739257812 220 657.383789062 c 1
 226.498046875 670.739257812 240.219726562 680 256 680 c 0
 278 680 296 662 296 640 c 0
 296 618 278 600 256 600 c 0
 240.219726562 600 226.498046875 609.260742188 220 622.616210938 c 1
 213.501953125 609.260742188 199.780273438 600 184 600 c 0
 168.219726562 600 154.498046875 609.260742188 148 622.616210938 c 1
 141.501953125 609.260742188 127.780273438 600 112 600 c 0
 90 600 72 618 72 640 c 0
EndSplineSet
EndChar

StartChar: J
Encoding: 74 74 43
Width: 432
GlyphClass: 2
Flags: MW
HStem: 0 80<65 83.8901 140.11 155.89 212.11 231> 100 80<29 51 245 267> 200 80<29 51 245 267> 300 80<245 267> 400 80<245 267> 500 80<245 267> 600 80<137 155.89 212.11 227.89 284.11 303>
LayerCount: 2
Fore
SplineSet
36 40 m 0
 36 62 54 80 76 80 c 0
 91.7802734375 80 105.501953125 70.7392578125 112 57.3837890625 c 1
 118.498046875 70.7392578125 132.219726562 80 148 80 c 0
 163.780273438 80 177.501953125 70.7392578125 184 57.3837890625 c 1
 190.498046875 70.7392578125 204.219726562 80 220 80 c 0
 242 80 260 62 260 40 c 0
 260 18 242 0 220 0 c 0
 204.219726562 0 190.498046875 9.2607421875 184 22.6162109375 c 1
 177.501953125 9.2607421875 163.780273438 0 148 0 c 0
 132.219726562 0 118.498046875 9.2607421875 112 22.6162109375 c 1
 105.501953125 9.2607421875 91.7802734375 0 76 0 c 0
 54 0 36 18 36 40 c 0
216 140 m 0
 216 162 234 180 256 180 c 0
 278 180 296 162 296 140 c 0
 296 118 278 100 256 100 c 0
 234 100 216 118 216 140 c 0
0 140 m 0
 0 162 18 180 40 180 c 0
 62 180 80 162 80 140 c 0
 80 118 62 100 40 100 c 0
 18 100 0 118 0 140 c 0
216 240 m 0
 216 262 234 280 256 280 c 0
 278 280 296 262 296 240 c 0
 296 218 278 200 256 200 c 0
 234 200 216 218 216 240 c 0
0 240 m 0
 0 262 18 280 40 280 c 0
 62 280 80 262 80 240 c 0
 80 218 62 200 40 200 c 0
 18 200 0 218 0 240 c 0
216 340 m 0
 216 362 234 380 256 380 c 0
 278 380 296 362 296 340 c 0
 296 318 278 300 256 300 c 0
 234 300 216 318 216 340 c 0
216 440 m 0
 216 462 234 480 256 480 c 0
 278 480 296 462 296 440 c 0
 296 418 278 400 256 400 c 0
 234 400 216 418 216 440 c 0
216 540 m 0
 216 562 234 580 256 580 c 0
 278 580 296 562 296 540 c 0
 296 518 278 500 256 500 c 0
 234 500 216 518 216 540 c 0
108 640 m 0
 108 662 126 680 148 680 c 0
 163.780273438 680 177.501953125 670.739257812 184 657.383789062 c 1
 190.498046875 670.739257812 204.219726562 680 220 680 c 0
 235.780273438 680 249.501953125 670.739257812 256 657.383789062 c 1
 262.498046875 670.739257812 276.219726562 680 292 680 c 0
 314 680 332 662 332 640 c 0
 332 618 314 600 292 600 c 0
 276.219726562 600 262.498046875 609.260742188 256 622.616210938 c 1
 249.501953125 609.260742188 235.780273438 600 220 600 c 0
 204.219726562 600 190.498046875 609.260742188 184 622.616210938 c 1
 177.501953125 609.260742188 163.780273438 600 148 600 c 0
 126 600 108 618 108 640 c 0
EndSplineSet
EndChar

StartChar: K
Encoding: 75 75 44
Width: 432
GlyphClass: 2
Flags: MW
HStem: 0 80<29 51 317 339> 100 80<29 51 245 267> 200 80<29 51 173 195> 300 80<29 47.8901 104.11 123> 400 80<29 51 173 195> 500 80<29 51 245 267> 600 80<29 51 317 339>
LayerCount: 2
Fore
SplineSet
288 40 m 0
 288 62 306 80 328 80 c 0
 350 80 368 62 368 40 c 0
 368 18 350 0 328 0 c 0
 306 0 288 18 288 40 c 0
0 40 m 0
 0 62 18 80 40 80 c 0
 62 80 80 62 80 40 c 0
 80 18 62 0 40 0 c 0
 18 0 0 18 0 40 c 0
216 140 m 0
 216 162 234 180 256 180 c 0
 278 180 296 162 296 140 c 0
 296 118 278 100 256 100 c 0
 234 100 216 118 216 140 c 0
0 140 m 0
 0 162 18 180 40 180 c 0
 62 180 80 162 80 140 c 0
 80 118 62 100 40 100 c 0
 18 100 0 118 0 140 c 0
144 240 m 0
 144 262 162 280 184 280 c 0
 206 280 224 262 224 240 c 0
 224 218 206 200 184 200 c 0
 162 200 144 218 144 240 c 0
0 240 m 0
 0 262 18 280 40 280 c 0
 62 280 80 262 80 240 c 0
 80 218 62 200 40 200 c 0
 18 200 0 218 0 240 c 0
0 340 m 0
 0 362 18 380 40 380 c 0
 55.7802734375 380 69.501953125 370.739257812 76 357.383789062 c 1
 82.498046875 370.739257812 96.2197265625 380 112 380 c 0
 134 380 152 362 152 340 c 0
 152 318 134 300 112 300 c 0
 96.2197265625 300 82.498046875 309.260742188 76 322.616210938 c 1
 69.501953125 309.260742188 55.7802734375 300 40 300 c 0
 18 300 0 318 0 340 c 0
144 440 m 0
 144 462 162 480 184 480 c 0
 206 480 224 462 224 440 c 0
 224 418 206 400 184 400 c 0
 162 400 144 418 144 440 c 0
0 440 m 0
 0 462 18 480 40 480 c 0
 62 480 80 462 80 440 c 0
 80 418 62 400 40 400 c 0
 18 400 0 418 0 440 c 0
216 540 m 0
 216 562 234 580 256 580 c 0
 278 580 296 562 296 540 c 0
 296 518 278 500 256 500 c 0
 234 500 216 518 216 540 c 0
0 540 m 0
 0 562 18 580 40 580 c 0
 62 580 80 562 80 540 c 0
 80 518 62 500 40 500 c 0
 18 500 0 518 0 540 c 0
288 640 m 0
 288 662 306 680 328 680 c 0
 350 680 368 662 368 640 c 0
 368 618 350 600 328 600 c 0
 306 600 288 618 288 640 c 0
0 640 m 0
 0 662 18 680 40 680 c 0
 62 680 80 662 80 640 c 0
 80 618 62 600 40 600 c 0
 18 600 0 618 0 640 c 0
EndSplineSet
EndChar

StartChar: L
Encoding: 76 76 45
Width: 432
GlyphClass: 2
Flags: MW
HStem: 0 80<29 47.8901 104.11 119.89 176.11 191.89 248.11 263.89 320.11 339> 100 80<29 51> 200 80<29 51> 300 80<29 51> 400 80<29 51> 500 80<29 51> 600 80<29 51>
LayerCount: 2
Fore
SplineSet
0 40 m 0
 0 62 18 80 40 80 c 0
 55.7802734375 80 69.501953125 70.7392578125 76 57.3837890625 c 1
 82.498046875 70.7392578125 96.2197265625 80 112 80 c 0
 127.780273438 80 141.501953125 70.7392578125 148 57.3837890625 c 1
 154.498046875 70.7392578125 168.219726562 80 184 80 c 0
 199.780273438 80 213.501953125 70.7392578125 220 57.3837890625 c 1
 226.498046875 70.7392578125 240.219726562 80 256 80 c 0
 271.780273438 80 285.501953125 70.7392578125 292 57.3837890625 c 1
 298.498046875 70.7392578125 312.219726562 80 328 80 c 0
 350 80 368 62 368 40 c 0
 368 18 350 0 328 0 c 0
 312.219726562 0 298.498046875 9.2607421875 292 22.6162109375 c 1
 285.501953125 9.2607421875 271.780273438 0 256 0 c 0
 240.219726562 0 226.498046875 9.2607421875 220 22.6162109375 c 1
 213.501953125 9.2607421875 199.780273438 0 184 0 c 0
 168.219726562 0 154.498046875 9.2607421875 148 22.6162109375 c 1
 141.501953125 9.2607421875 127.780273438 0 112 0 c 0
 96.2197265625 0 82.498046875 9.2607421875 76 22.6162109375 c 1
 69.501953125 9.2607421875 55.7802734375 0 40 0 c 0
 18 0 0 18 0 40 c 0
0 140 m 0
 0 162 18 180 40 180 c 0
 62 180 80 162 80 140 c 0
 80 118 62 100 40 100 c 0
 18 100 0 118 0 140 c 0
0 240 m 0
 0 262 18 280 40 280 c 0
 62 280 80 262 80 240 c 0
 80 218 62 200 40 200 c 0
 18 200 0 218 0 240 c 0
0 340 m 0
 0 362 18 380 40 380 c 0
 62 380 80 362 80 340 c 0
 80 318 62 300 40 300 c 0
 18 300 0 318 0 340 c 0
0 440 m 0
 0 462 18 480 40 480 c 0
 62 480 80 462 80 440 c 0
 80 418 62 400 40 400 c 0
 18 400 0 418 0 440 c 0
0 540 m 0
 0 562 18 580 40 580 c 0
 62 580 80 562 80 540 c 0
 80 518 62 500 40 500 c 0
 18 500 0 518 0 540 c 0
0 640 m 0
 0 662 18 680 40 680 c 0
 62 680 80 662 80 640 c 0
 80 618 62 600 40 600 c 0
 18 600 0 618 0 640 c 0
EndSplineSet
EndChar

StartChar: M
Encoding: 77 77 46
Width: 432
GlyphClass: 2
Flags: MW
HStem: 0 80<29 51 317 339> 100 80<29 51 317 339> 200 80<29 51 317 339> 300 80<29 51 173 195 317 339> 400 80<29 51 137 155.89 212.11 231 317 339> 500 80<29 47.8901 104.11 123 245 263.89 320.11 339> 600 80<29 51 317 339>
CounterMasks: 1 01
LayerCount: 2
Fore
SplineSet
288 40 m 0
 288 62 306 80 328 80 c 0
 350 80 368 62 368 40 c 0
 368 18 350 0 328 0 c 0
 306 0 288 18 288 40 c 0
0 40 m 0
 0 62 18 80 40 80 c 0
 62 80 80 62 80 40 c 0
 80 18 62 0 40 0 c 0
 18 0 0 18 0 40 c 0
288 140 m 0
 288 162 306 180 328 180 c 0
 350 180 368 162 368 140 c 0
 368 118 350 100 328 100 c 0
 306 100 288 118 288 140 c 0
0 140 m 0
 0 162 18 180 40 180 c 0
 62 180 80 162 80 140 c 0
 80 118 62 100 40 100 c 0
 18 100 0 118 0 140 c 0
288 240 m 0
 288 262 306 280 328 280 c 0
 350 280 368 262 368 240 c 0
 368 218 350 200 328 200 c 0
 306 200 288 218 288 240 c 0
0 240 m 0
 0 262 18 280 40 280 c 0
 62 280 80 262 80 240 c 0
 80 218 62 200 40 200 c 0
 18 200 0 218 0 240 c 0
288 340 m 0
 288 362 306 380 328 380 c 0
 350 380 368 362 368 340 c 0
 368 318 350 300 328 300 c 0
 306 300 288 318 288 340 c 0
144 340 m 0
 144 362 162 380 184 380 c 0
 206 380 224 362 224 340 c 0
 224 318 206 300 184 300 c 0
 162 300 144 318 144 340 c 0
0 340 m 0
 0 362 18 380 40 380 c 0
 62 380 80 362 80 340 c 0
 80 318 62 300 40 300 c 0
 18 300 0 318 0 340 c 0
288 440 m 0
 288 462 306 480 328 480 c 0
 350 480 368 462 368 440 c 0
 368 418 350 400 328 400 c 0
 306 400 288 418 288 440 c 0
108 440 m 0
 108 462 126 480 148 480 c 0
 163.780273438 480 177.501953125 470.739257812 184 457.383789062 c 1
 190.498046875 470.739257812 204.219726562 480 220 480 c 0
 242 480 260 462 260 440 c 0
 260 418 242 400 220 400 c 0
 204.219726562 400 190.498046875 409.260742188 184 422.616210938 c 1
 177.501953125 409.260742188 163.780273438 400 148 400 c 0
 126 400 108 418 108 440 c 0
0 440 m 0
 0 462 18 480 40 480 c 0
 62 480 80 462 80 440 c 0
 80 418 62 400 40 400 c 0
 18 400 0 418 0 440 c 0
216 540 m 0
 216 562 234 580 256 580 c 0
 271.780273438 580 285.501953125 570.739257812 292 557.383789062 c 1
 298.498046875 570.739257812 312.219726562 580 328 580 c 0
 350 580 368 562 368 540 c 0
 368 518 350 500 328 500 c 0
 312.219726562 500 298.498046875 509.260742188 292 522.616210938 c 1
 285.501953125 509.260742188 271.780273438 500 256 500 c 0
 234 500 216 518 216 540 c 0
0 540 m 0
 0 562 18 580 40 580 c 0
 55.7802734375 580 69.501953125 570.739257812 76 557.383789062 c 1
 82.498046875 570.739257812 96.2197265625 580 112 580 c 0
 134 580 152 562 152 540 c 0
 152 518 134 500 112 500 c 0
 96.2197265625 500 82.498046875 509.260742188 76 522.616210938 c 1
 69.501953125 509.260742188 55.7802734375 500 40 500 c 0
 18 500 0 518 0 540 c 0
288 640 m 0
 288 662 306 680 328 680 c 0
 350 680 368 662 368 640 c 0
 368 618 350 600 328 600 c 0
 306 600 288 618 288 640 c 0
0 640 m 0
 0 662 18 680 40 680 c 0
 62 680 80 662 80 640 c 0
 80 618 62 600 40 600 c 0
 18 600 0 618 0 640 c 0
EndSplineSet
EndChar

StartChar: N
Encoding: 78 78 47
Width: 432
GlyphClass: 2
Flags: MW
HStem: 0 80<29 51 317 339> 100 80<29 51 245 263.89 320.11 339> 200 80<29 51 209 231 317 339> 300 80<29 51 173 195 317 339> 400 80<29 51 137 159 317 339> 500 80<29 47.8901 104.11 123 317 339> 600 80<29 51 317 339>
LayerCount: 2
Fore
SplineSet
288 40 m 0
 288 62 306 80 328 80 c 0
 350 80 368 62 368 40 c 0
 368 18 350 0 328 0 c 0
 306 0 288 18 288 40 c 0
0 40 m 0
 0 62 18 80 40 80 c 0
 62 80 80 62 80 40 c 0
 80 18 62 0 40 0 c 0
 18 0 0 18 0 40 c 0
216 140 m 0
 216 162 234 180 256 180 c 0
 271.780273438 180 285.501953125 170.739257812 292 157.383789062 c 1
 298.498046875 170.739257812 312.219726562 180 328 180 c 0
 350 180 368 162 368 140 c 0
 368 118 350 100 328 100 c 0
 312.219726562 100 298.498046875 109.260742188 292 122.616210938 c 1
 285.501953125 109.260742188 271.780273438 100 256 100 c 0
 234 100 216 118 216 140 c 0
0 140 m 0
 0 162 18 180 40 180 c 0
 62 180 80 162 80 140 c 0
 80 118 62 100 40 100 c 0
 18 100 0 118 0 140 c 0
288 240 m 0
 288 262 306 280 328 280 c 0
 350 280 368 262 368 240 c 0
 368 218 350 200 328 200 c 0
 306 200 288 218 288 240 c 0
180 240 m 0
 180 262 198 280 220 280 c 0
 242 280 260 262 260 240 c 0
 260 218 242 200 220 200 c 0
 198 200 180 218 180 240 c 0
0 240 m 0
 0 262 18 280 40 280 c 0
 62 280 80 262 80 240 c 0
 80 218 62 200 40 200 c 0
 18 200 0 218 0 240 c 0
288 340 m 0
 288 362 306 380 328 380 c 0
 350 380 368 362 368 340 c 0
 368 318 350 300 328 300 c 0
 306 300 288 318 288 340 c 0
144 340 m 0
 144 362 162 380 184 380 c 0
 206 380 224 362 224 340 c 0
 224 318 206 300 184 300 c 0
 162 300 144 318 144 340 c 0
0 340 m 0
 0 362 18 380 40 380 c 0
 62 380 80 362 80 340 c 0
 80 318 62 300 40 300 c 0
 18 300 0 318 0 340 c 0
288 440 m 0
 288 462 306 480 328 480 c 0
 350 480 368 462 368 440 c 0
 368 418 350 400 328 400 c 0
 306 400 288 418 288 440 c 0
108 440 m 0
 108 462 126 480 148 480 c 0
 170 480 188 462 188 440 c 0
 188 418 170 400 148 400 c 0
 126 400 108 418 108 440 c 0
0 440 m 0
 0 462 18 480 40 480 c 0
 62 480 80 462 80 440 c 0
 80 418 62 400 40 400 c 0
 18 400 0 418 0 440 c 0
288 540 m 0
 288 562 306 580 328 580 c 0
 350 580 368 562 368 540 c 0
 368 518 350 500 328 500 c 0
 306 500 288 518 288 540 c 0
0 540 m 0
 0 562 18 580 40 580 c 0
 55.7802734375 580 69.501953125 570.739257812 76 557.383789062 c 1
 82.498046875 570.739257812 96.2197265625 580 112 580 c 0
 134 580 152 562 152 540 c 0
 152 518 134 500 112 500 c 0
 96.2197265625 500 82.498046875 509.260742188 76 522.616210938 c 1
 69.501953125 509.260742188 55.7802734375 500 40 500 c 0
 18 500 0 518 0 540 c 0
288 640 m 0
 288 662 306 680 328 680 c 0
 350 680 368 662 368 640 c 0
 368 618 350 600 328 600 c 0
 306 600 288 618 288 640 c 0
0 640 m 0
 0 662 18 680 40 680 c 0
 62 680 80 662 80 640 c 0
 80 618 62 600 40 600 c 0
 18 600 0 618 0 640 c 0
EndSplineSet
EndChar

StartChar: O
Encoding: 79 79 48
Width: 432
GlyphClass: 2
Flags: MW
HStem: 0 80<65 83.8901 140.11 155.89 212.11 227.89 284.11 303> 100 80<29 51 317 339> 200 80<29 51 317 339> 300 80<29 51 317 339> 400 80<29 51 317 339> 500 80<29 51 317 339> 600 80<65 83.8901 140.11 155.89 212.11 227.89 284.11 303>
LayerCount: 2
Fore
SplineSet
36 40 m 0
 36 62 54 80 76 80 c 0
 91.7802734375 80 105.501953125 70.7392578125 112 57.3837890625 c 1
 118.498046875 70.7392578125 132.219726562 80 148 80 c 0
 163.780273438 80 177.501953125 70.7392578125 184 57.3837890625 c 1
 190.498046875 70.7392578125 204.219726562 80 220 80 c 0
 235.780273438 80 249.501953125 70.7392578125 256 57.3837890625 c 1
 262.498046875 70.7392578125 276.219726562 80 292 80 c 0
 314 80 332 62 332 40 c 0
 332 18 314 0 292 0 c 0
 276.219726562 0 262.498046875 9.2607421875 256 22.6162109375 c 1
 249.501953125 9.2607421875 235.780273438 0 220 0 c 0
 204.219726562 0 190.498046875 9.2607421875 184 22.6162109375 c 1
 177.501953125 9.2607421875 163.780273438 0 148 0 c 0
 132.219726562 0 118.498046875 9.2607421875 112 22.6162109375 c 1
 105.501953125 9.2607421875 91.7802734375 0 76 0 c 0
 54 0 36 18 36 40 c 0
288 140 m 0
 288 162 306 180 328 180 c 0
 350 180 368 162 368 140 c 0
 368 118 350 100 328 100 c 0
 306 100 288 118 288 140 c 0
0 140 m 0
 0 162 18 180 40 180 c 0
 62 180 80 162 80 140 c 0
 80 118 62 100 40 100 c 0
 18 100 0 118 0 140 c 0
288 240 m 0
 288 262 306 280 328 280 c 0
 350 280 368 262 368 240 c 0
 368 218 350 200 328 200 c 0
 306 200 288 218 288 240 c 0
0 240 m 0
 0 262 18 280 40 280 c 0
 62 280 80 262 80 240 c 0
 80 218 62 200 40 200 c 0
 18 200 0 218 0 240 c 0
288 340 m 0
 288 362 306 380 328 380 c 0
 350 380 368 362 368 340 c 0
 368 318 350 300 328 300 c 0
 306 300 288 318 288 340 c 0
0 340 m 0
 0 362 18 380 40 380 c 0
 62 380 80 362 80 340 c 0
 80 318 62 300 40 300 c 0
 18 300 0 318 0 340 c 0
288 440 m 0
 288 462 306 480 328 480 c 0
 350 480 368 462 368 440 c 0
 368 418 350 400 328 400 c 0
 306 400 288 418 288 440 c 0
0 440 m 0
 0 462 18 480 40 480 c 0
 62 480 80 462 80 440 c 0
 80 418 62 400 40 400 c 0
 18 400 0 418 0 440 c 0
288 540 m 0
 288 562 306 580 328 580 c 0
 350 580 368 562 368 540 c 0
 368 518 350 500 328 500 c 0
 306 500 288 518 288 540 c 0
0 540 m 0
 0 562 18 580 40 580 c 0
 62 580 80 562 80 540 c 0
 80 518 62 500 40 500 c 0
 18 500 0 518 0 540 c 0
36 640 m 0
 36 662 54 680 76 680 c 0
 91.7802734375 680 105.501953125 670.739257812 112 657.383789062 c 1
 118.498046875 670.739257812 132.219726562 680 148 680 c 0
 163.780273438 680 177.501953125 670.739257812 184 657.383789062 c 1
 190.498046875 670.739257812 204.219726562 680 220 680 c 0
 235.780273438 680 249.501953125 670.739257812 256 657.383789062 c 1
 262.498046875 670.739257812 276.219726562 680 292 680 c 0
 314 680 332 662 332 640 c 0
 332 618 314 600 292 600 c 0
 276.219726562 600 262.498046875 609.260742188 256 622.616210938 c 1
 249.501953125 609.260742188 235.780273438 600 220 600 c 0
 204.219726562 600 190.498046875 609.260742188 184 622.616210938 c 1
 177.501953125 609.260742188 163.780273438 600 148 600 c 0
 132.219726562 600 118.498046875 609.260742188 112 622.616210938 c 1
 105.501953125 609.260742188 91.7802734375 600 76 600 c 0
 54 600 36 618 36 640 c 0
EndSplineSet
EndChar

StartChar: P
Encoding: 80 80 49
Width: 432
GlyphClass: 2
Flags: MW
HStem: 0 80<29 51> 100 80<29 51> 200 80<29 51> 300 80<29 47.8901 104.11 119.89 176.11 191.89 248.11 267> 400 80<29 51 317 339> 500 80<29 51 317 339> 600 80<29 47.8901 104.11 119.89 176.11 191.89 248.11 267>
LayerCount: 2
Fore
SplineSet
0 40 m 0
 0 62 18 80 40 80 c 0
 62 80 80 62 80 40 c 0
 80 18 62 0 40 0 c 0
 18 0 0 18 0 40 c 0
0 140 m 0
 0 162 18 180 40 180 c 0
 62 180 80 162 80 140 c 0
 80 118 62 100 40 100 c 0
 18 100 0 118 0 140 c 0
0 240 m 0
 0 262 18 280 40 280 c 0
 62 280 80 262 80 240 c 0
 80 218 62 200 40 200 c 0
 18 200 0 218 0 240 c 0
0 340 m 0
 0 362 18 380 40 380 c 0
 55.7802734375 380 69.501953125 370.739257812 76 357.383789062 c 1
 82.498046875 370.739257812 96.2197265625 380 112 380 c 0
 127.780273438 380 141.501953125 370.739257812 148 357.383789062 c 1
 154.498046875 370.739257812 168.219726562 380 184 380 c 0
 199.780273438 380 213.501953125 370.739257812 220 357.383789062 c 1
 226.498046875 370.739257812 240.219726562 380 256 380 c 0
 278 380 296 362 296 340 c 0
 296 318 278 300 256 300 c 0
 240.219726562 300 226.498046875 309.260742188 220 322.616210938 c 1
 213.501953125 309.260742188 199.780273438 300 184 300 c 0
 168.219726562 300 154.498046875 309.260742188 148 322.616210938 c 1
 141.501953125 309.260742188 127.780273438 300 112 300 c 0
 96.2197265625 300 82.498046875 309.260742188 76 322.616210938 c 1
 69.501953125 309.260742188 55.7802734375 300 40 300 c 0
 18 300 0 318 0 340 c 0
288 440 m 0
 288 462 306 480 328 480 c 0
 350 480 368 462 368 440 c 0
 368 418 350 400 328 400 c 0
 306 400 288 418 288 440 c 0
0 440 m 0
 0 462 18 480 40 480 c 0
 62 480 80 462 80 440 c 0
 80 418 62 400 40 400 c 0
 18 400 0 418 0 440 c 0
288 540 m 0
 288 562 306 580 328 580 c 0
 350 580 368 562 368 540 c 0
 368 518 350 500 328 500 c 0
 306 500 288 518 288 540 c 0
0 540 m 0
 0 562 18 580 40 580 c 0
 62 580 80 562 80 540 c 0
 80 518 62 500 40 500 c 0
 18 500 0 518 0 540 c 0
0 640 m 0
 0 662 18 680 40 680 c 0
 55.7802734375 680 69.501953125 670.739257812 76 657.383789062 c 1
 82.498046875 670.739257812 96.2197265625 680 112 680 c 0
 127.780273438 680 141.501953125 670.739257812 148 657.383789062 c 1
 154.498046875 670.739257812 168.219726562 680 184 680 c 0
 199.780273438 680 213.501953125 670.739257812 220 657.383789062 c 1
 226.498046875 670.739257812 240.219726562 680 256 680 c 0
 278 680 296 662 296 640 c 0
 296 618 278 600 256 600 c 0
 240.219726562 600 226.498046875 609.260742188 220 622.616210938 c 1
 213.501953125 609.260742188 199.780273438 600 184 600 c 0
 168.219726562 600 154.498046875 609.260742188 148 622.616210938 c 1
 141.501953125 609.260742188 127.780273438 600 112 600 c 0
 96.2197265625 600 82.498046875 609.260742188 76 622.616210938 c 1
 69.501953125 609.260742188 55.7802734375 600 40 600 c 0
 18 600 0 618 0 640 c 0
EndSplineSet
EndChar

StartChar: Q
Encoding: 81 81 50
Width: 432
GlyphClass: 2
Flags: MW
HStem: 0 80<65 83.8901 140.11 155.89 212.11 231 317 339> 100 80<29 51 245 267> 200 80<29 51 173 195 317 339> 300 80<29 51 317 339> 400 80<29 51 317 339> 500 80<29 51 317 339> 600 80<65 83.8901 140.11 155.89 212.11 227.89 284.11 303>
LayerCount: 2
Fore
SplineSet
288 40 m 0
 288 62 306 80 328 80 c 0
 350 80 368 62 368 40 c 0
 368 18 350 0 328 0 c 0
 306 0 288 18 288 40 c 0
36 40 m 0
 36 62 54 80 76 80 c 0
 91.7802734375 80 105.501953125 70.7392578125 112 57.3837890625 c 1
 118.498046875 70.7392578125 132.219726562 80 148 80 c 0
 163.780273438 80 177.501953125 70.7392578125 184 57.3837890625 c 1
 190.498046875 70.7392578125 204.219726562 80 220 80 c 0
 242 80 260 62 260 40 c 0
 260 18 242 0 220 0 c 0
 204.219726562 0 190.498046875 9.2607421875 184 22.6162109375 c 1
 177.501953125 9.2607421875 163.780273438 0 148 0 c 0
 132.219726562 0 118.498046875 9.2607421875 112 22.6162109375 c 1
 105.501953125 9.2607421875 91.7802734375 0 76 0 c 0
 54 0 36 18 36 40 c 0
216 140 m 0
 216 162 234 180 256 180 c 0
 278 180 296 162 296 140 c 0
 296 118 278 100 256 100 c 0
 234 100 216 118 216 140 c 0
0 140 m 0
 0 162 18 180 40 180 c 0
 62 180 80 162 80 140 c 0
 80 118 62 100 40 100 c 0
 18 100 0 118 0 140 c 0
288 240 m 0
 288 262 306 280 328 280 c 0
 350 280 368 262 368 240 c 0
 368 218 350 200 328 200 c 0
 306 200 288 218 288 240 c 0
144 240 m 0
 144 262 162 280 184 280 c 0
 206 280 224 262 224 240 c 0
 224 218 206 200 184 200 c 0
 162 200 144 218 144 240 c 0
0 240 m 0
 0 262 18 280 40 280 c 0
 62 280 80 262 80 240 c 0
 80 218 62 200 40 200 c 0
 18 200 0 218 0 240 c 0
288 340 m 0
 288 362 306 380 328 380 c 0
 350 380 368 362 368 340 c 0
 368 318 350 300 328 300 c 0
 306 300 288 318 288 340 c 0
0 340 m 0
 0 362 18 380 40 380 c 0
 62 380 80 362 80 340 c 0
 80 318 62 300 40 300 c 0
 18 300 0 318 0 340 c 0
288 440 m 0
 288 462 306 480 328 480 c 0
 350 480 368 462 368 440 c 0
 368 418 350 400 328 400 c 0
 306 400 288 418 288 440 c 0
0 440 m 0
 0 462 18 480 40 480 c 0
 62 480 80 462 80 440 c 0
 80 418 62 400 40 400 c 0
 18 400 0 418 0 440 c 0
288 540 m 0
 288 562 306 580 328 580 c 0
 350 580 368 562 368 540 c 0
 368 518 350 500 328 500 c 0
 306 500 288 518 288 540 c 0
0 540 m 0
 0 562 18 580 40 580 c 0
 62 580 80 562 80 540 c 0
 80 518 62 500 40 500 c 0
 18 500 0 518 0 540 c 0
36 640 m 0
 36 662 54 680 76 680 c 0
 91.7802734375 680 105.501953125 670.739257812 112 657.383789062 c 1
 118.498046875 670.739257812 132.219726562 680 148 680 c 0
 163.780273438 680 177.501953125 670.739257812 184 657.383789062 c 1
 190.498046875 670.739257812 204.219726562 680 220 680 c 0
 235.780273438 680 249.501953125 670.739257812 256 657.383789062 c 1
 262.498046875 670.739257812 276.219726562 680 292 680 c 0
 314 680 332 662 332 640 c 0
 332 618 314 600 292 600 c 0
 276.219726562 600 262.498046875 609.260742188 256 622.616210938 c 1
 249.501953125 609.260742188 235.780273438 600 220 600 c 0
 204.219726562 600 190.498046875 609.260742188 184 622.616210938 c 1
 177.501953125 609.260742188 163.780273438 600 148 600 c 0
 132.219726562 600 118.498046875 609.260742188 112 622.616210938 c 1
 105.501953125 609.260742188 91.7802734375 600 76 600 c 0
 54 600 36 618 36 640 c 0
EndSplineSet
EndChar

StartChar: R
Encoding: 82 82 51
Width: 432
GlyphClass: 2
Flags: MW
HStem: 0 80<29 51 317 339> 100 80<29 51 281 303> 200 80<29 51 245 267> 300 80<29 47.8901 104.11 119.89 176.11 191.89 248.11 267> 400 80<29 51 317 339> 500 80<29 51 317 339> 600 80<29 47.8901 104.11 119.89 176.11 191.89 248.11 267>
LayerCount: 2
Fore
SplineSet
288 40 m 0
 288 62 306 80 328 80 c 0
 350 80 368 62 368 40 c 0
 368 18 350 0 328 0 c 0
 306 0 288 18 288 40 c 0
0 40 m 0
 0 62 18 80 40 80 c 0
 62 80 80 62 80 40 c 0
 80 18 62 0 40 0 c 0
 18 0 0 18 0 40 c 0
252 140 m 0
 252 162 270 180 292 180 c 0
 314 180 332 162 332 140 c 0
 332 118 314 100 292 100 c 0
 270 100 252 118 252 140 c 0
0 140 m 0
 0 162 18 180 40 180 c 0
 62 180 80 162 80 140 c 0
 80 118 62 100 40 100 c 0
 18 100 0 118 0 140 c 0
216 240 m 0
 216 262 234 280 256 280 c 0
 278 280 296 262 296 240 c 0
 296 218 278 200 256 200 c 0
 234 200 216 218 216 240 c 0
0 240 m 0
 0 262 18 280 40 280 c 0
 62 280 80 262 80 240 c 0
 80 218 62 200 40 200 c 0
 18 200 0 218 0 240 c 0
0 340 m 0
 0 362 18 380 40 380 c 0
 55.7802734375 380 69.501953125 370.739257812 76 357.383789062 c 1
 82.498046875 370.739257812 96.2197265625 380 112 380 c 0
 127.780273438 380 141.501953125 370.739257812 148 357.383789062 c 1
 154.498046875 370.739257812 168.219726562 380 184 380 c 0
 199.780273438 380 213.501953125 370.739257812 220 357.383789062 c 1
 226.498046875 370.739257812 240.219726562 380 256 380 c 0
 278 380 296 362 296 340 c 0
 296 318 278 300 256 300 c 0
 240.219726562 300 226.498046875 309.260742188 220 322.616210938 c 1
 213.501953125 309.260742188 199.780273438 300 184 300 c 0
 168.219726562 300 154.498046875 309.260742188 148 322.616210938 c 1
 141.501953125 309.260742188 127.780273438 300 112 300 c 0
 96.2197265625 300 82.498046875 309.260742188 76 322.616210938 c 1
 69.501953125 309.260742188 55.7802734375 300 40 300 c 0
 18 300 0 318 0 340 c 0
288 440 m 0
 288 462 306 480 328 480 c 0
 350 480 368 462 368 440 c 0
 368 418 350 400 328 400 c 0
 306 400 288 418 288 440 c 0
0 440 m 0
 0 462 18 480 40 480 c 0
 62 480 80 462 80 440 c 0
 80 418 62 400 40 400 c 0
 18 400 0 418 0 440 c 0
288 540 m 0
 288 562 306 580 328 580 c 0
 350 580 368 562 368 540 c 0
 368 518 350 500 328 500 c 0
 306 500 288 518 288 540 c 0
0 540 m 0
 0 562 18 580 40 580 c 0
 62 580 80 562 80 540 c 0
 80 518 62 500 40 500 c 0
 18 500 0 518 0 540 c 0
0 640 m 0
 0 662 18 680 40 680 c 0
 55.7802734375 680 69.501953125 670.739257812 76 657.383789062 c 1
 82.498046875 670.739257812 96.2197265625 680 112 680 c 0
 127.780273438 680 141.501953125 670.739257812 148 657.383789062 c 1
 154.498046875 670.739257812 168.219726562 680 184 680 c 0
 199.780273438 680 213.501953125 670.739257812 220 657.383789062 c 1
 226.498046875 670.739257812 240.219726562 680 256 680 c 0
 278 680 296 662 296 640 c 0
 296 618 278 600 256 600 c 0
 240.219726562 600 226.498046875 609.260742188 220 622.616210938 c 1
 213.501953125 609.260742188 199.780273438 600 184 600 c 0
 168.219726562 600 154.498046875 609.260742188 148 622.616210938 c 1
 141.501953125 609.260742188 127.780273438 600 112 600 c 0
 96.2197265625 600 82.498046875 609.260742188 76 622.616210938 c 1
 69.501953125 609.260742188 55.7802734375 600 40 600 c 0
 18 600 0 618 0 640 c 0
EndSplineSet
EndChar

StartChar: S
Encoding: 83 83 52
Width: 432
GlyphClass: 2
Flags: MW
HStem: 0 80<65 83.8901 140.11 155.89 212.11 227.89 284.11 303> 100 80<29 51 317 339> 200 80<317 339> 300 80<65 83.8901 140.11 155.89 212.11 227.89 284.11 303> 400 80<29 51> 500 80<29 51 317 339> 600 80<65 83.8901 140.11 155.89 212.11 227.89 284.11 303>
LayerCount: 2
Fore
SplineSet
36 40 m 0
 36 62 54 80 76 80 c 0
 91.7802734375 80 105.501953125 70.7392578125 112 57.3837890625 c 1
 118.498046875 70.7392578125 132.219726562 80 148 80 c 0
 163.780273438 80 177.501953125 70.7392578125 184 57.3837890625 c 1
 190.498046875 70.7392578125 204.219726562 80 220 80 c 0
 235.780273438 80 249.501953125 70.7392578125 256 57.3837890625 c 1
 262.498046875 70.7392578125 276.219726562 80 292 80 c 0
 314 80 332 62 332 40 c 0
 332 18 314 0 292 0 c 0
 276.219726562 0 262.498046875 9.2607421875 256 22.6162109375 c 1
 249.501953125 9.2607421875 235.780273438 0 220 0 c 0
 204.219726562 0 190.498046875 9.2607421875 184 22.6162109375 c 1
 177.501953125 9.2607421875 163.780273438 0 148 0 c 0
 132.219726562 0 118.498046875 9.2607421875 112 22.6162109375 c 1
 105.501953125 9.2607421875 91.7802734375 0 76 0 c 0
 54 0 36 18 36 40 c 0
288 140 m 0
 288 162 306 180 328 180 c 0
 350 180 368 162 368 140 c 0
 368 118 350 100 328 100 c 0
 306 100 288 118 288 140 c 0
0 140 m 0
 0 162 18 180 40 180 c 0
 62 180 80 162 80 140 c 0
 80 118 62 100 40 100 c 0
 18 100 0 118 0 140 c 0
288 240 m 0
 288 262 306 280 328 280 c 0
 350 280 368 262 368 240 c 0
 368 218 350 200 328 200 c 0
 306 200 288 218 288 240 c 0
36 340 m 0
 36 362 54 380 76 380 c 0
 91.7802734375 380 105.501953125 370.739257812 112 357.383789062 c 1
 118.498046875 370.739257812 132.219726562 380 148 380 c 0
 163.780273438 380 177.501953125 370.739257812 184 357.383789062 c 1
 190.498046875 370.739257812 204.219726562 380 220 380 c 0
 235.780273438 380 249.501953125 370.739257812 256 357.383789062 c 1
 262.498046875 370.739257812 276.219726562 380 292 380 c 0
 314 380 332 362 332 340 c 0
 332 318 314 300 292 300 c 0
 276.219726562 300 262.498046875 309.260742188 256 322.616210938 c 1
 249.501953125 309.260742188 235.780273438 300 220 300 c 0
 204.219726562 300 190.498046875 309.260742188 184 322.616210938 c 1
 177.501953125 309.260742188 163.780273438 300 148 300 c 0
 132.219726562 300 118.498046875 309.260742188 112 322.616210938 c 1
 105.501953125 309.260742188 91.7802734375 300 76 300 c 0
 54 300 36 318 36 340 c 0
0 440 m 0
 0 462 18 480 40 480 c 0
 62 480 80 462 80 440 c 0
 80 418 62 400 40 400 c 0
 18 400 0 418 0 440 c 0
288 540 m 0
 288 562 306 580 328 580 c 0
 350 580 368 562 368 540 c 0
 368 518 350 500 328 500 c 0
 306 500 288 518 288 540 c 0
0 540 m 0
 0 562 18 580 40 580 c 0
 62 580 80 562 80 540 c 0
 80 518 62 500 40 500 c 0
 18 500 0 518 0 540 c 0
36 640 m 0
 36 662 54 680 76 680 c 0
 91.7802734375 680 105.501953125 670.739257812 112 657.383789062 c 1
 118.498046875 670.739257812 132.219726562 680 148 680 c 0
 163.780273438 680 177.501953125 670.739257812 184 657.383789062 c 1
 190.498046875 670.739257812 204.219726562 680 220 680 c 0
 235.780273438 680 249.501953125 670.739257812 256 657.383789062 c 1
 262.498046875 670.739257812 276.219726562 680 292 680 c 0
 314 680 332 662 332 640 c 0
 332 618 314 600 292 600 c 0
 276.219726562 600 262.498046875 609.260742188 256 622.616210938 c 1
 249.501953125 609.260742188 235.780273438 600 220 600 c 0
 204.219726562 600 190.498046875 609.260742188 184 622.616210938 c 1
 177.501953125 609.260742188 163.780273438 600 148 600 c 0
 132.219726562 600 118.498046875 609.260742188 112 622.616210938 c 1
 105.501953125 609.260742188 91.7802734375 600 76 600 c 0
 54 600 36 618 36 640 c 0
EndSplineSet
EndChar

StartChar: T
Encoding: 84 84 53
Width: 432
GlyphClass: 2
Flags: MW
HStem: 0 80<173 195> 100 80<173 195> 200 80<173 195> 300 80<173 195> 400 80<173 195> 500 80<173 195> 600 80<29 47.8901 104.11 119.89 176.11 191.89 248.11 263.89 320.11 339>
LayerCount: 2
Fore
SplineSet
144 40 m 0
 144 62 162 80 184 80 c 0
 206 80 224 62 224 40 c 0
 224 18 206 0 184 0 c 0
 162 0 144 18 144 40 c 0
144 140 m 0
 144 162 162 180 184 180 c 0
 206 180 224 162 224 140 c 0
 224 118 206 100 184 100 c 0
 162 100 144 118 144 140 c 0
144 240 m 0
 144 262 162 280 184 280 c 0
 206 280 224 262 224 240 c 0
 224 218 206 200 184 200 c 0
 162 200 144 218 144 240 c 0
144 340 m 0
 144 362 162 380 184 380 c 0
 206 380 224 362 224 340 c 0
 224 318 206 300 184 300 c 0
 162 300 144 318 144 340 c 0
144 440 m 0
 144 462 162 480 184 480 c 0
 206 480 224 462 224 440 c 0
 224 418 206 400 184 400 c 0
 162 400 144 418 144 440 c 0
144 540 m 0
 144 562 162 580 184 580 c 0
 206 580 224 562 224 540 c 0
 224 518 206 500 184 500 c 0
 162 500 144 518 144 540 c 0
0 640 m 0
 0 662 18 680 40 680 c 0
 55.7802734375 680 69.501953125 670.739257812 76 657.383789062 c 1
 82.498046875 670.739257812 96.2197265625 680 112 680 c 0
 127.780273438 680 141.501953125 670.739257812 148 657.383789062 c 1
 154.498046875 670.739257812 168.219726562 680 184 680 c 0
 199.780273438 680 213.501953125 670.739257812 220 657.383789062 c 1
 226.498046875 670.739257812 240.219726562 680 256 680 c 0
 271.780273438 680 285.501953125 670.739257812 292 657.383789062 c 1
 298.498046875 670.739257812 312.219726562 680 328 680 c 0
 350 680 368 662 368 640 c 0
 368 618 350 600 328 600 c 0
 312.219726562 600 298.498046875 609.260742188 292 622.616210938 c 1
 285.501953125 609.260742188 271.780273438 600 256 600 c 0
 240.219726562 600 226.498046875 609.260742188 220 622.616210938 c 1
 213.501953125 609.260742188 199.780273438 600 184 600 c 0
 168.219726562 600 154.498046875 609.260742188 148 622.616210938 c 1
 141.501953125 609.260742188 127.780273438 600 112 600 c 0
 96.2197265625 600 82.498046875 609.260742188 76 622.616210938 c 1
 69.501953125 609.260742188 55.7802734375 600 40 600 c 0
 18 600 0 618 0 640 c 0
EndSplineSet
EndChar

StartChar: U
Encoding: 85 85 54
Width: 432
GlyphClass: 2
Flags: MW
HStem: 0 80<65 83.8901 140.11 155.89 212.11 227.89 284.11 303> 100 80<29 51 317 339> 200 80<29 51 317 339> 300 80<29 51 317 339> 400 80<29 51 317 339> 500 80<29 51 317 339> 600 80<29 51 317 339>
LayerCount: 2
Fore
SplineSet
36 40 m 0
 36 62 54 80 76 80 c 0
 91.7802734375 80 105.501953125 70.7392578125 112 57.3837890625 c 1
 118.498046875 70.7392578125 132.219726562 80 148 80 c 0
 163.780273438 80 177.501953125 70.7392578125 184 57.3837890625 c 1
 190.498046875 70.7392578125 204.219726562 80 220 80 c 0
 235.780273438 80 249.501953125 70.7392578125 256 57.3837890625 c 1
 262.498046875 70.7392578125 276.219726562 80 292 80 c 0
 314 80 332 62 332 40 c 0
 332 18 314 0 292 0 c 0
 276.219726562 0 262.498046875 9.2607421875 256 22.6162109375 c 1
 249.501953125 9.2607421875 235.780273438 0 220 0 c 0
 204.219726562 0 190.498046875 9.2607421875 184 22.6162109375 c 1
 177.501953125 9.2607421875 163.780273438 0 148 0 c 0
 132.219726562 0 118.498046875 9.2607421875 112 22.6162109375 c 1
 105.501953125 9.2607421875 91.7802734375 0 76 0 c 0
 54 0 36 18 36 40 c 0
288 140 m 0
 288 162 306 180 328 180 c 0
 350 180 368 162 368 140 c 0
 368 118 350 100 328 100 c 0
 306 100 288 118 288 140 c 0
0 140 m 0
 0 162 18 180 40 180 c 0
 62 180 80 162 80 140 c 0
 80 118 62 100 40 100 c 0
 18 100 0 118 0 140 c 0
288 240 m 0
 288 262 306 280 328 280 c 0
 350 280 368 262 368 240 c 0
 368 218 350 200 328 200 c 0
 306 200 288 218 288 240 c 0
0 240 m 0
 0 262 18 280 40 280 c 0
 62 280 80 262 80 240 c 0
 80 218 62 200 40 200 c 0
 18 200 0 218 0 240 c 0
288 340 m 0
 288 362 306 380 328 380 c 0
 350 380 368 362 368 340 c 0
 368 318 350 300 328 300 c 0
 306 300 288 318 288 340 c 0
0 340 m 0
 0 362 18 380 40 380 c 0
 62 380 80 362 80 340 c 0
 80 318 62 300 40 300 c 0
 18 300 0 318 0 340 c 0
288 440 m 0
 288 462 306 480 328 480 c 0
 350 480 368 462 368 440 c 0
 368 418 350 400 328 400 c 0
 306 400 288 418 288 440 c 0
0 440 m 0
 0 462 18 480 40 480 c 0
 62 480 80 462 80 440 c 0
 80 418 62 400 40 400 c 0
 18 400 0 418 0 440 c 0
288 540 m 0
 288 562 306 580 328 580 c 0
 350 580 368 562 368 540 c 0
 368 518 350 500 328 500 c 0
 306 500 288 518 288 540 c 0
0 540 m 0
 0 562 18 580 40 580 c 0
 62 580 80 562 80 540 c 0
 80 518 62 500 40 500 c 0
 18 500 0 518 0 540 c 0
288 640 m 0
 288 662 306 680 328 680 c 0
 350 680 368 662 368 640 c 0
 368 618 350 600 328 600 c 0
 306 600 288 618 288 640 c 0
0 640 m 0
 0 662 18 680 40 680 c 0
 62 680 80 662 80 640 c 0
 80 618 62 600 40 600 c 0
 18 600 0 618 0 640 c 0
EndSplineSet
EndChar

StartChar: V
Encoding: 86 86 55
Width: 432
GlyphClass: 2
Flags: MW
HStem: 0 80<173 195> 100 80<137 155.89 212.11 231> 200 80<101 123 245 267> 300 80<65 87 281 303> 400 80<29 51 317 339> 500 80<29 51 317 339> 600 80<29 51 317 339>
LayerCount: 2
Fore
SplineSet
144 40 m 0
 144 62 162 80 184 80 c 0
 206 80 224 62 224 40 c 0
 224 18 206 0 184 0 c 0
 162 0 144 18 144 40 c 0
108 140 m 0
 108 162 126 180 148 180 c 0
 163.780273438 180 177.501953125 170.739257812 184 157.383789062 c 1
 190.498046875 170.739257812 204.219726562 180 220 180 c 0
 242 180 260 162 260 140 c 0
 260 118 242 100 220 100 c 0
 204.219726562 100 190.498046875 109.260742188 184 122.616210938 c 1
 177.501953125 109.260742188 163.780273438 100 148 100 c 0
 126 100 108 118 108 140 c 0
216 240 m 0
 216 262 234 280 256 280 c 0
 278 280 296 262 296 240 c 0
 296 218 278 200 256 200 c 0
 234 200 216 218 216 240 c 0
72 240 m 0
 72 262 90 280 112 280 c 0
 134 280 152 262 152 240 c 0
 152 218 134 200 112 200 c 0
 90 200 72 218 72 240 c 0
252 340 m 0
 252 362 270 380 292 380 c 0
 314 380 332 362 332 340 c 0
 332 318 314 300 292 300 c 0
 270 300 252 318 252 340 c 0
36 340 m 0
 36 362 54 380 76 380 c 0
 98 380 116 362 116 340 c 0
 116 318 98 300 76 300 c 0
 54 300 36 318 36 340 c 0
288 440 m 0
 288 462 306 480 328 480 c 0
 350 480 368 462 368 440 c 0
 368 418 350 400 328 400 c 0
 306 400 288 418 288 440 c 0
0 440 m 0
 0 462 18 480 40 480 c 0
 62 480 80 462 80 440 c 0
 80 418 62 400 40 400 c 0
 18 400 0 418 0 440 c 0
288 540 m 0
 288 562 306 580 328 580 c 0
 350 580 368 562 368 540 c 0
 368 518 350 500 328 500 c 0
 306 500 288 518 288 540 c 0
0 540 m 0
 0 562 18 580 40 580 c 0
 62 580 80 562 80 540 c 0
 80 518 62 500 40 500 c 0
 18 500 0 518 0 540 c 0
288 640 m 0
 288 662 306 680 328 680 c 0
 350 680 368 662 368 640 c 0
 368 618 350 600 328 600 c 0
 306 600 288 618 288 640 c 0
0 640 m 0
 0 662 18 680 40 680 c 0
 62 680 80 662 80 640 c 0
 80 618 62 600 40 600 c 0
 18 600 0 618 0 640 c 0
EndSplineSet
EndChar

StartChar: W
Encoding: 87 87 56
Width: 432
GlyphClass: 2
Flags: MW
HStem: 0 80<65 87 281 303> 100 80<29 47.8901 104.11 123 245 263.89 320.11 339> 200 80<29 51 137 155.89 212.11 231 317 339> 300 80<29 51 173 195 317 339> 400 80<29 51 173 195 317 339> 500 80<29 51 317 339> 600 80<29 51 317 339>
LayerCount: 2
Fore
SplineSet
252 40 m 0
 252 62 270 80 292 80 c 0
 314 80 332 62 332 40 c 0
 332 18 314 0 292 0 c 0
 270 0 252 18 252 40 c 0
36 40 m 0
 36 62 54 80 76 80 c 0
 98 80 116 62 116 40 c 0
 116 18 98 0 76 0 c 0
 54 0 36 18 36 40 c 0
216 140 m 0
 216 162 234 180 256 180 c 0
 271.780273438 180 285.501953125 170.739257812 292 157.383789062 c 1
 298.498046875 170.739257812 312.219726562 180 328 180 c 0
 350 180 368 162 368 140 c 0
 368 118 350 100 328 100 c 0
 312.219726562 100 298.498046875 109.260742188 292 122.616210938 c 1
 285.501953125 109.260742188 271.780273438 100 256 100 c 0
 234 100 216 118 216 140 c 0
0 140 m 0
 0 162 18 180 40 180 c 0
 55.7802734375 180 69.501953125 170.739257812 76 157.383789062 c 1
 82.498046875 170.739257812 96.2197265625 180 112 180 c 0
 134 180 152 162 152 140 c 0
 152 118 134 100 112 100 c 0
 96.2197265625 100 82.498046875 109.260742188 76 122.616210938 c 1
 69.501953125 109.260742188 55.7802734375 100 40 100 c 0
 18 100 0 118 0 140 c 0
288 240 m 0
 288 262 306 280 328 280 c 0
 350 280 368 262 368 240 c 0
 368 218 350 200 328 200 c 0
 306 200 288 218 288 240 c 0
108 240 m 0
 108 262 126 280 148 280 c 0
 163.780273438 280 177.501953125 270.739257812 184 257.383789062 c 1
 190.498046875 270.739257812 204.219726562 280 220 280 c 0
 242 280 260 262 260 240 c 0
 260 218 242 200 220 200 c 0
 204.219726562 200 190.498046875 209.260742188 184 222.616210938 c 1
 177.501953125 209.260742188 163.780273438 200 148 200 c 0
 126 200 108 218 108 240 c 0
0 240 m 0
 0 262 18 280 40 280 c 0
 62 280 80 262 80 240 c 0
 80 218 62 200 40 200 c 0
 18 200 0 218 0 240 c 0
288 340 m 0
 288 362 306 380 328 380 c 0
 350 380 368 362 368 340 c 0
 368 318 350 300 328 300 c 0
 306 300 288 318 288 340 c 0
144 340 m 0
 144 362 162 380 184 380 c 0
 206 380 224 362 224 340 c 0
 224 318 206 300 184 300 c 0
 162 300 144 318 144 340 c 0
0 340 m 0
 0 362 18 380 40 380 c 0
 62 380 80 362 80 340 c 0
 80 318 62 300 40 300 c 0
 18 300 0 318 0 340 c 0
288 440 m 0
 288 462 306 480 328 480 c 0
 350 480 368 462 368 440 c 0
 368 418 350 400 328 400 c 0
 306 400 288 418 288 440 c 0
144 440 m 0
 144 462 162 480 184 480 c 0
 206 480 224 462 224 440 c 0
 224 418 206 400 184 400 c 0
 162 400 144 418 144 440 c 0
0 440 m 0
 0 462 18 480 40 480 c 0
 62 480 80 462 80 440 c 0
 80 418 62 400 40 400 c 0
 18 400 0 418 0 440 c 0
288 540 m 0
 288 562 306 580 328 580 c 0
 350 580 368 562 368 540 c 0
 368 518 350 500 328 500 c 0
 306 500 288 518 288 540 c 0
0 540 m 0
 0 562 18 580 40 580 c 0
 62 580 80 562 80 540 c 0
 80 518 62 500 40 500 c 0
 18 500 0 518 0 540 c 0
288 640 m 0
 288 662 306 680 328 680 c 0
 350 680 368 662 368 640 c 0
 368 618 350 600 328 600 c 0
 306 600 288 618 288 640 c 0
0 640 m 0
 0 662 18 680 40 680 c 0
 62 680 80 662 80 640 c 0
 80 618 62 600 40 600 c 0
 18 600 0 618 0 640 c 0
EndSplineSet
EndChar

StartChar: X
Encoding: 88 88 57
Width: 432
GlyphClass: 2
Flags: MW
HStem: 0 80<65 87 281 303> 100 80<101 123 245 267> 200 80<137 155.89 212.11 231> 300 80<173 195> 400 80<137 155.89 212.11 231> 500 80<101 123 245 267> 600 80<65 87 281 303>
LayerCount: 2
Fore
SplineSet
252 40 m 0
 252 62 270 80 292 80 c 0
 314 80 332 62 332 40 c 0
 332 18 314 0 292 0 c 0
 270 0 252 18 252 40 c 0
36 40 m 0
 36 62 54 80 76 80 c 0
 98 80 116 62 116 40 c 0
 116 18 98 0 76 0 c 0
 54 0 36 18 36 40 c 0
216 140 m 0
 216 162 234 180 256 180 c 0
 278 180 296 162 296 140 c 0
 296 118 278 100 256 100 c 0
 234 100 216 118 216 140 c 0
72 140 m 0
 72 162 90 180 112 180 c 0
 134 180 152 162 152 140 c 0
 152 118 134 100 112 100 c 0
 90 100 72 118 72 140 c 0
108 240 m 0
 108 262 126 280 148 280 c 0
 163.780273438 280 177.501953125 270.739257812 184 257.383789062 c 1
 190.498046875 270.739257812 204.219726562 280 220 280 c 0
 242 280 260 262 260 240 c 0
 260 218 242 200 220 200 c 0
 204.219726562 200 190.498046875 209.260742188 184 222.616210938 c 1
 177.501953125 209.260742188 163.780273438 200 148 200 c 0
 126 200 108 218 108 240 c 0
144 340 m 0
 144 362 162 380 184 380 c 0
 206 380 224 362 224 340 c 0
 224 318 206 300 184 300 c 0
 162 300 144 318 144 340 c 0
108 440 m 0
 108 462 126 480 148 480 c 0
 163.780273438 480 177.501953125 470.739257812 184 457.383789062 c 1
 190.498046875 470.739257812 204.219726562 480 220 480 c 0
 242 480 260 462 260 440 c 0
 260 418 242 400 220 400 c 0
 204.219726562 400 190.498046875 409.260742188 184 422.616210938 c 1
 177.501953125 409.260742188 163.780273438 400 148 400 c 0
 126 400 108 418 108 440 c 0
216 540 m 0
 216 562 234 580 256 580 c 0
 278 580 296 562 296 540 c 0
 296 518 278 500 256 500 c 0
 234 500 216 518 216 540 c 0
72 540 m 0
 72 562 90 580 112 580 c 0
 134 580 152 562 152 540 c 0
 152 518 134 500 112 500 c 0
 90 500 72 518 72 540 c 0
252 640 m 0
 252 662 270 680 292 680 c 0
 314 680 332 662 332 640 c 0
 332 618 314 600 292 600 c 0
 270 600 252 618 252 640 c 0
36 640 m 0
 36 662 54 680 76 680 c 0
 98 680 116 662 116 640 c 0
 116 618 98 600 76 600 c 0
 54 600 36 618 36 640 c 0
EndSplineSet
EndChar

StartChar: Y
Encoding: 89 89 58
Width: 432
GlyphClass: 2
Flags: MW
HStem: 0 80<173 195> 100 80<173 195> 200 80<173 195> 300 80<137 155.89 212.11 231> 400 80<101 123 245 267> 500 80<65 87 281 303> 600 80<29 51 317 339>
LayerCount: 2
Fore
SplineSet
144 40 m 0
 144 62 162 80 184 80 c 0
 206 80 224 62 224 40 c 0
 224 18 206 0 184 0 c 0
 162 0 144 18 144 40 c 0
144 140 m 0
 144 162 162 180 184 180 c 0
 206 180 224 162 224 140 c 0
 224 118 206 100 184 100 c 0
 162 100 144 118 144 140 c 0
144 240 m 0
 144 262 162 280 184 280 c 0
 206 280 224 262 224 240 c 0
 224 218 206 200 184 200 c 0
 162 200 144 218 144 240 c 0
108 340 m 0
 108 362 126 380 148 380 c 0
 163.780273438 380 177.501953125 370.739257812 184 357.383789062 c 1
 190.498046875 370.739257812 204.219726562 380 220 380 c 0
 242 380 260 362 260 340 c 0
 260 318 242 300 220 300 c 0
 204.219726562 300 190.498046875 309.260742188 184 322.616210938 c 1
 177.501953125 309.260742188 163.780273438 300 148 300 c 0
 126 300 108 318 108 340 c 0
216 440 m 0
 216 462 234 480 256 480 c 0
 278 480 296 462 296 440 c 0
 296 418 278 400 256 400 c 0
 234 400 216 418 216 440 c 0
72 440 m 0
 72 462 90 480 112 480 c 0
 134 480 152 462 152 440 c 0
 152 418 134 400 112 400 c 0
 90 400 72 418 72 440 c 0
252 540 m 0
 252 562 270 580 292 580 c 0
 314 580 332 562 332 540 c 0
 332 518 314 500 292 500 c 0
 270 500 252 518 252 540 c 0
36 540 m 0
 36 562 54 580 76 580 c 0
 98 580 116 562 116 540 c 0
 116 518 98 500 76 500 c 0
 54 500 36 518 36 540 c 0
288 640 m 0
 288 662 306 680 328 680 c 0
 350 680 368 662 368 640 c 0
 368 618 350 600 328 600 c 0
 306 600 288 618 288 640 c 0
0 640 m 0
 0 662 18 680 40 680 c 0
 62 680 80 662 80 640 c 0
 80 618 62 600 40 600 c 0
 18 600 0 618 0 640 c 0
EndSplineSet
EndChar

StartChar: Z
Encoding: 90 90 59
Width: 432
GlyphClass: 2
Flags: MW
HStem: 0 80<65 83.8901 140.11 155.89 212.11 227.89 284.11 303> 100 80<101 123> 200 80<137 159> 300 80<173 195> 400 80<209 231> 500 80<245 267> 600 80<65 83.8901 140.11 155.89 212.11 227.89 284.11 303>
LayerCount: 2
Fore
SplineSet
36 40 m 0
 36 62 54 80 76 80 c 0
 91.7802734375 80 105.501953125 70.7392578125 112 57.3837890625 c 1
 118.498046875 70.7392578125 132.219726562 80 148 80 c 0
 163.780273438 80 177.501953125 70.7392578125 184 57.3837890625 c 1
 190.498046875 70.7392578125 204.219726562 80 220 80 c 0
 235.780273438 80 249.501953125 70.7392578125 256 57.3837890625 c 1
 262.498046875 70.7392578125 276.219726562 80 292 80 c 0
 314 80 332 62 332 40 c 0
 332 18 314 0 292 0 c 0
 276.219726562 0 262.498046875 9.2607421875 256 22.6162109375 c 1
 249.501953125 9.2607421875 235.780273438 0 220 0 c 0
 204.219726562 0 190.498046875 9.2607421875 184 22.6162109375 c 1
 177.501953125 9.2607421875 163.780273438 0 148 0 c 0
 132.219726562 0 118.498046875 9.2607421875 112 22.6162109375 c 1
 105.501953125 9.2607421875 91.7802734375 0 76 0 c 0
 54 0 36 18 36 40 c 0
72 140 m 0
 72 162 90 180 112 180 c 0
 134 180 152 162 152 140 c 0
 152 118 134 100 112 100 c 0
 90 100 72 118 72 140 c 0
108 240 m 0
 108 262 126 280 148 280 c 0
 170 280 188 262 188 240 c 0
 188 218 170 200 148 200 c 0
 126 200 108 218 108 240 c 0
144 340 m 0
 144 362 162 380 184 380 c 0
 206 380 224 362 224 340 c 0
 224 318 206 300 184 300 c 0
 162 300 144 318 144 340 c 0
180 440 m 0
 180 462 198 480 220 480 c 0
 242 480 260 462 260 440 c 0
 260 418 242 400 220 400 c 0
 198 400 180 418 180 440 c 0
216 540 m 0
 216 562 234 580 256 580 c 0
 278 580 296 562 296 540 c 0
 296 518 278 500 256 500 c 0
 234 500 216 518 216 540 c 0
36 640 m 0
 36 662 54 680 76 680 c 0
 91.7802734375 680 105.501953125 670.739257812 112 657.383789062 c 1
 118.498046875 670.739257812 132.219726562 680 148 680 c 0
 163.780273438 680 177.501953125 670.739257812 184 657.383789062 c 1
 190.498046875 670.739257812 204.219726562 680 220 680 c 0
 235.780273438 680 249.501953125 670.739257812 256 657.383789062 c 1
 262.498046875 670.739257812 276.219726562 680 292 680 c 0
 314 680 332 662 332 640 c 0
 332 618 314 600 292 600 c 0
 276.219726562 600 262.498046875 609.260742188 256 622.616210938 c 1
 249.501953125 609.260742188 235.780273438 600 220 600 c 0
 204.219726562 600 190.498046875 609.260742188 184 622.616210938 c 1
 177.501953125 609.260742188 163.780273438 600 148 600 c 0
 132.219726562 600 118.498046875 609.260742188 112 622.616210938 c 1
 105.501953125 609.260742188 91.7802734375 600 76 600 c 0
 54 600 36 618 36 640 c 0
EndSplineSet
EndChar

StartChar: bracketleft
Encoding: 91 91 60
Width: 432
GlyphClass: 2
Flags: MW
HStem: 0 80<101 119.89 176.11 191.89 248.11 267> 100 80<101 123> 200 80<101 123> 300 80<101 123> 400 80<101 123> 500 80<101 123> 600 80<101 119.89 176.11 191.89 248.11 267>
LayerCount: 2
Fore
SplineSet
72 40 m 0
 72 62 90 80 112 80 c 0
 127.780273438 80 141.501953125 70.7392578125 148 57.3837890625 c 1
 154.498046875 70.7392578125 168.219726562 80 184 80 c 0
 199.780273438 80 213.501953125 70.7392578125 220 57.3837890625 c 1
 226.498046875 70.7392578125 240.219726562 80 256 80 c 0
 278 80 296 62 296 40 c 0
 296 18 278 0 256 0 c 0
 240.219726562 0 226.498046875 9.2607421875 220 22.6162109375 c 1
 213.501953125 9.2607421875 199.780273438 0 184 0 c 0
 168.219726562 0 154.498046875 9.2607421875 148 22.6162109375 c 1
 141.501953125 9.2607421875 127.780273438 0 112 0 c 0
 90 0 72 18 72 40 c 0
72 140 m 0
 72 162 90 180 112 180 c 0
 134 180 152 162 152 140 c 0
 152 118 134 100 112 100 c 0
 90 100 72 118 72 140 c 0
72 240 m 0
 72 262 90 280 112 280 c 0
 134 280 152 262 152 240 c 0
 152 218 134 200 112 200 c 0
 90 200 72 218 72 240 c 0
72 340 m 0
 72 362 90 380 112 380 c 0
 134 380 152 362 152 340 c 0
 152 318 134 300 112 300 c 0
 90 300 72 318 72 340 c 0
72 440 m 0
 72 462 90 480 112 480 c 0
 134 480 152 462 152 440 c 0
 152 418 134 400 112 400 c 0
 90 400 72 418 72 440 c 0
72 540 m 0
 72 562 90 580 112 580 c 0
 134 580 152 562 152 540 c 0
 152 518 134 500 112 500 c 0
 90 500 72 518 72 540 c 0
72 640 m 0
 72 662 90 680 112 680 c 0
 127.780273438 680 141.501953125 670.739257812 148 657.383789062 c 1
 154.498046875 670.739257812 168.219726562 680 184 680 c 0
 199.780273438 680 213.501953125 670.739257812 220 657.383789062 c 1
 226.498046875 670.739257812 240.219726562 680 256 680 c 0
 278 680 296 662 296 640 c 0
 296 618 278 600 256 600 c 0
 240.219726562 600 226.498046875 609.260742188 220 622.616210938 c 1
 213.501953125 609.260742188 199.780273438 600 184 600 c 0
 168.219726562 600 154.498046875 609.260742188 148 622.616210938 c 1
 141.501953125 609.260742188 127.780273438 600 112 600 c 0
 90 600 72 618 72 640 c 0
EndSplineSet
EndChar

StartChar: backslash
Encoding: 92 92 61
Width: 432
GlyphClass: 2
Flags: MW
HStem: 0 80<281 303> 100 80<245 267> 200 80<209 231> 300 80<173 195> 400 80<137 159> 500 80<101 123> 600 80<65 87>
LayerCount: 2
Fore
SplineSet
252 40 m 0
 252 62 270 80 292 80 c 0
 314 80 332 62 332 40 c 0
 332 18 314 0 292 0 c 0
 270 0 252 18 252 40 c 0
216 140 m 0
 216 162 234 180 256 180 c 0
 278 180 296 162 296 140 c 0
 296 118 278 100 256 100 c 0
 234 100 216 118 216 140 c 0
180 240 m 0
 180 262 198 280 220 280 c 0
 242 280 260 262 260 240 c 0
 260 218 242 200 220 200 c 0
 198 200 180 218 180 240 c 0
144 340 m 0
 144 362 162 380 184 380 c 0
 206 380 224 362 224 340 c 0
 224 318 206 300 184 300 c 0
 162 300 144 318 144 340 c 0
108 440 m 0
 108 462 126 480 148 480 c 0
 170 480 188 462 188 440 c 0
 188 418 170 400 148 400 c 0
 126 400 108 418 108 440 c 0
72 540 m 0
 72 562 90 580 112 580 c 0
 134 580 152 562 152 540 c 0
 152 518 134 500 112 500 c 0
 90 500 72 518 72 540 c 0
36 640 m 0
 36 662 54 680 76 680 c 0
 98 680 116 662 116 640 c 0
 116 618 98 600 76 600 c 0
 54 600 36 618 36 640 c 0
EndSplineSet
EndChar

StartChar: bracketright
Encoding: 93 93 62
Width: 432
GlyphClass: 2
Flags: MW
HStem: 0 80<101 119.89 176.11 191.89 248.11 267> 100 80<245 267> 200 80<245 267> 300 80<245 267> 400 80<245 267> 500 80<245 267> 600 80<101 119.89 176.11 191.89 248.11 267>
LayerCount: 2
Fore
SplineSet
72 40 m 0
 72 62 90 80 112 80 c 0
 127.780273438 80 141.501953125 70.7392578125 148 57.3837890625 c 1
 154.498046875 70.7392578125 168.219726562 80 184 80 c 0
 199.780273438 80 213.501953125 70.7392578125 220 57.3837890625 c 1
 226.498046875 70.7392578125 240.219726562 80 256 80 c 0
 278 80 296 62 296 40 c 0
 296 18 278 0 256 0 c 0
 240.219726562 0 226.498046875 9.2607421875 220 22.6162109375 c 1
 213.501953125 9.2607421875 199.780273438 0 184 0 c 0
 168.219726562 0 154.498046875 9.2607421875 148 22.6162109375 c 1
 141.501953125 9.2607421875 127.780273438 0 112 0 c 0
 90 0 72 18 72 40 c 0
216 140 m 0
 216 162 234 180 256 180 c 0
 278 180 296 162 296 140 c 0
 296 118 278 100 256 100 c 0
 234 100 216 118 216 140 c 0
216 240 m 0
 216 262 234 280 256 280 c 0
 278 280 296 262 296 240 c 0
 296 218 278 200 256 200 c 0
 234 200 216 218 216 240 c 0
216 340 m 0
 216 362 234 380 256 380 c 0
 278 380 296 362 296 340 c 0
 296 318 278 300 256 300 c 0
 234 300 216 318 216 340 c 0
216 440 m 0
 216 462 234 480 256 480 c 0
 278 480 296 462 296 440 c 0
 296 418 278 400 256 400 c 0
 234 400 216 418 216 440 c 0
216 540 m 0
 216 562 234 580 256 580 c 0
 278 580 296 562 296 540 c 0
 296 518 278 500 256 500 c 0
 234 500 216 518 216 540 c 0
72 640 m 0
 72 662 90 680 112 680 c 0
 127.780273438 680 141.501953125 670.739257812 148 657.383789062 c 1
 154.498046875 670.739257812 168.219726562 680 184 680 c 0
 199.780273438 680 213.501953125 670.739257812 220 657.383789062 c 1
 226.498046875 670.739257812 240.219726562 680 256 680 c 0
 278 680 296 662 296 640 c 0
 296 618 278 600 256 600 c 0
 240.219726562 600 226.498046875 609.260742188 220 622.616210938 c 1
 213.501953125 609.260742188 199.780273438 600 184 600 c 0
 168.219726562 600 154.498046875 609.260742188 148 622.616210938 c 1
 141.501953125 609.260742188 127.780273438 600 112 600 c 0
 90 600 72 618 72 640 c 0
EndSplineSet
EndChar

StartChar: asciicircum
Encoding: 94 94 63
Width: 432
GlyphClass: 2
Flags: MW
HStem: 400 80<29 51 317 339> 500 80<101 123 245 267> 600 80<173 195>
CounterMasks: 1 e0
LayerCount: 2
Fore
SplineSet
288 440 m 0
 288 462 306 480 328 480 c 0
 350 480 368 462 368 440 c 0
 368 418 350 400 328 400 c 0
 306 400 288 418 288 440 c 0
0 440 m 0
 0 462 18 480 40 480 c 0
 62 480 80 462 80 440 c 0
 80 418 62 400 40 400 c 0
 18 400 0 418 0 440 c 0
216 540 m 0
 216 562 234 580 256 580 c 0
 278 580 296 562 296 540 c 0
 296 518 278 500 256 500 c 0
 234 500 216 518 216 540 c 0
72 540 m 0
 72 562 90 580 112 580 c 0
 134 580 152 562 152 540 c 0
 152 518 134 500 112 500 c 0
 90 500 72 518 72 540 c 0
144 640 m 0
 144 662 162 680 184 680 c 0
 206 680 224 662 224 640 c 0
 224 618 206 600 184 600 c 0
 162 600 144 618 144 640 c 0
EndSplineSet
EndChar

StartChar: underscore
Encoding: 95 95 64
Width: 432
GlyphClass: 2
Flags: MW
HStem: -200 80<29 47.8901 104.11 119.89 176.11 191.89 248.11 263.89 320.11 339>
LayerCount: 2
Fore
SplineSet
0 -160 m 0
 0 -138 18 -120 40 -120 c 0
 55.7802734375 -120 69.501953125 -129.260742188 76 -142.616210938 c 1
 82.498046875 -129.260742188 96.2197265625 -120 112 -120 c 0
 127.780273438 -120 141.501953125 -129.260742188 148 -142.616210938 c 1
 154.498046875 -129.260742188 168.219726562 -120 184 -120 c 0
 199.780273438 -120 213.501953125 -129.260742188 220 -142.616210938 c 1
 226.498046875 -129.260742188 240.219726562 -120 256 -120 c 0
 271.780273438 -120 285.501953125 -129.260742188 292 -142.616210938 c 1
 298.498046875 -129.260742188 312.219726562 -120 328 -120 c 0
 350 -120 368 -138 368 -160 c 0
 368 -182 350 -200 328 -200 c 0
 312.219726562 -200 298.498046875 -190.739257812 292 -177.383789062 c 1
 285.501953125 -190.739257812 271.780273438 -200 256 -200 c 0
 240.219726562 -200 226.498046875 -190.739257812 220 -177.383789062 c 1
 213.501953125 -190.739257812 199.780273438 -200 184 -200 c 0
 168.219726562 -200 154.498046875 -190.739257812 148 -177.383789062 c 1
 141.501953125 -190.739257812 127.780273438 -200 112 -200 c 0
 96.2197265625 -200 82.498046875 -190.739257812 76 -177.383789062 c 1
 69.501953125 -190.739257812 55.7802734375 -200 40 -200 c 0
 18 -200 0 -182 0 -160 c 0
EndSplineSet
EndChar

StartChar: grave
Encoding: 96 96 65
Width: 432
GlyphClass: 2
Flags: MW
HStem: 500 80<173 195> 600 80<137 159>
LayerCount: 2
Fore
SplineSet
144 540 m 0
 144 562 162 580 184 580 c 0
 206 580 224 562 224 540 c 0
 224 518 206 500 184 500 c 0
 162 500 144 518 144 540 c 0
108 640 m 0
 108 662 126 680 148 680 c 0
 170 680 188 662 188 640 c 0
 188 618 170 600 148 600 c 0
 126 600 108 618 108 640 c 0
EndSplineSet
EndChar

StartChar: a
Encoding: 97 97 66
Width: 432
GlyphClass: 2
Flags: MW
HStem: 0 80<65 83.8901 140.11 155.89 212.11 231 317 339> 100 80<29 51 281 303> 200 80<65 83.8901 140.11 155.89 212.11 227.89 284.11 303> 300 80<281 303> 400 80<101 119.89 176.11 191.89 248.11 267>
LayerCount: 2
Fore
SplineSet
288 40 m 0
 288 62 306 80 328 80 c 0
 350 80 368 62 368 40 c 0
 368 18 350 0 328 0 c 0
 306 0 288 18 288 40 c 0
36 40 m 0
 36 62 54 80 76 80 c 0
 91.7802734375 80 105.501953125 70.7392578125 112 57.3837890625 c 1
 118.498046875 70.7392578125 132.219726562 80 148 80 c 0
 163.780273438 80 177.501953125 70.7392578125 184 57.3837890625 c 1
 190.498046875 70.7392578125 204.219726562 80 220 80 c 0
 242 80 260 62 260 40 c 0
 260 18 242 0 220 0 c 0
 204.219726562 0 190.498046875 9.2607421875 184 22.6162109375 c 1
 177.501953125 9.2607421875 163.780273438 0 148 0 c 0
 132.219726562 0 118.498046875 9.2607421875 112 22.6162109375 c 1
 105.501953125 9.2607421875 91.7802734375 0 76 0 c 0
 54 0 36 18 36 40 c 0
252 140 m 0
 252 162 270 180 292 180 c 0
 314 180 332 162 332 140 c 0
 332 118 314 100 292 100 c 0
 270 100 252 118 252 140 c 0
0 140 m 0
 0 162 18 180 40 180 c 0
 62 180 80 162 80 140 c 0
 80 118 62 100 40 100 c 0
 18 100 0 118 0 140 c 0
36 240 m 0
 36 262 54 280 76 280 c 0
 91.7802734375 280 105.501953125 270.739257812 112 257.383789062 c 1
 118.498046875 270.739257812 132.219726562 280 148 280 c 0
 163.780273438 280 177.501953125 270.739257812 184 257.383789062 c 1
 190.498046875 270.739257812 204.219726562 280 220 280 c 0
 235.780273438 280 249.501953125 270.739257812 256 257.383789062 c 1
 262.498046875 270.739257812 276.219726562 280 292 280 c 0
 314 280 332 262 332 240 c 0
 332 218 314 200 292 200 c 0
 276.219726562 200 262.498046875 209.260742188 256 222.616210938 c 1
 249.501953125 209.260742188 235.780273438 200 220 200 c 0
 204.219726562 200 190.498046875 209.260742188 184 222.616210938 c 1
 177.501953125 209.260742188 163.780273438 200 148 200 c 0
 132.219726562 200 118.498046875 209.260742188 112 222.616210938 c 1
 105.501953125 209.260742188 91.7802734375 200 76 200 c 0
 54 200 36 218 36 240 c 0
252 340 m 0
 252 362 270 380 292 380 c 0
 314 380 332 362 332 340 c 0
 332 318 314 300 292 300 c 0
 270 300 252 318 252 340 c 0
72 440 m 0
 72 462 90 480 112 480 c 0
 127.780273438 480 141.501953125 470.739257812 148 457.383789062 c 1
 154.498046875 470.739257812 168.219726562 480 184 480 c 0
 199.780273438 480 213.501953125 470.739257812 220 457.383789062 c 1
 226.498046875 470.739257812 240.219726562 480 256 480 c 0
 278 480 296 462 296 440 c 0
 296 418 278 400 256 400 c 0
 240.219726562 400 226.498046875 409.260742188 220 422.616210938 c 1
 213.501953125 409.260742188 199.780273438 400 184 400 c 0
 168.219726562 400 154.498046875 409.260742188 148 422.616210938 c 1
 141.501953125 409.260742188 127.780273438 400 112 400 c 0
 90 400 72 418 72 440 c 0
EndSplineSet
EndChar

StartChar: b
Encoding: 98 98 67
Width: 432
GlyphClass: 2
Flags: MW
HStem: 0 80<29 47.8901 104.11 119.89 176.11 191.89 248.11 267> 100 80<29 51 281 303> 200 80<29 51 281 303> 300 80<29 51 281 303> 400 80<29 47.8901 104.11 119.89 176.11 191.89 248.11 267> 500 80<29 51> 600 80<29 51>
LayerCount: 2
Fore
SplineSet
0 40 m 0
 0 62 18 80 40 80 c 0
 55.7802734375 80 69.501953125 70.7392578125 76 57.3837890625 c 1
 82.498046875 70.7392578125 96.2197265625 80 112 80 c 0
 127.780273438 80 141.501953125 70.7392578125 148 57.3837890625 c 1
 154.498046875 70.7392578125 168.219726562 80 184 80 c 0
 199.780273438 80 213.501953125 70.7392578125 220 57.3837890625 c 1
 226.498046875 70.7392578125 240.219726562 80 256 80 c 0
 278 80 296 62 296 40 c 0
 296 18 278 0 256 0 c 0
 240.219726562 0 226.498046875 9.2607421875 220 22.6162109375 c 1
 213.501953125 9.2607421875 199.780273438 0 184 0 c 0
 168.219726562 0 154.498046875 9.2607421875 148 22.6162109375 c 1
 141.501953125 9.2607421875 127.780273438 0 112 0 c 0
 96.2197265625 0 82.498046875 9.2607421875 76 22.6162109375 c 1
 69.501953125 9.2607421875 55.7802734375 0 40 0 c 0
 18 0 0 18 0 40 c 0
252 140 m 0
 252 162 270 180 292 180 c 0
 314 180 332 162 332 140 c 0
 332 118 314 100 292 100 c 0
 270 100 252 118 252 140 c 0
0 140 m 0
 0 162 18 180 40 180 c 0
 62 180 80 162 80 140 c 0
 80 118 62 100 40 100 c 0
 18 100 0 118 0 140 c 0
252 240 m 0
 252 262 270 280 292 280 c 0
 314 280 332 262 332 240 c 0
 332 218 314 200 292 200 c 0
 270 200 252 218 252 240 c 0
0 240 m 0
 0 262 18 280 40 280 c 0
 62 280 80 262 80 240 c 0
 80 218 62 200 40 200 c 0
 18 200 0 218 0 240 c 0
252 340 m 0
 252 362 270 380 292 380 c 0
 314 380 332 362 332 340 c 0
 332 318 314 300 292 300 c 0
 270 300 252 318 252 340 c 0
0 340 m 0
 0 362 18 380 40 380 c 0
 62 380 80 362 80 340 c 0
 80 318 62 300 40 300 c 0
 18 300 0 318 0 340 c 0
0 440 m 0
 0 462 18 480 40 480 c 0
 55.7802734375 480 69.501953125 470.739257812 76 457.383789062 c 1
 82.498046875 470.739257812 96.2197265625 480 112 480 c 0
 127.780273438 480 141.501953125 470.739257812 148 457.383789062 c 1
 154.498046875 470.739257812 168.219726562 480 184 480 c 0
 199.780273438 480 213.501953125 470.739257812 220 457.383789062 c 1
 226.498046875 470.739257812 240.219726562 480 256 480 c 0
 278 480 296 462 296 440 c 0
 296 418 278 400 256 400 c 0
 240.219726562 400 226.498046875 409.260742188 220 422.616210938 c 1
 213.501953125 409.260742188 199.780273438 400 184 400 c 0
 168.219726562 400 154.498046875 409.260742188 148 422.616210938 c 1
 141.501953125 409.260742188 127.780273438 400 112 400 c 0
 96.2197265625 400 82.498046875 409.260742188 76 422.616210938 c 1
 69.501953125 409.260742188 55.7802734375 400 40 400 c 0
 18 400 0 418 0 440 c 0
0 540 m 0
 0 562 18 580 40 580 c 0
 62 580 80 562 80 540 c 0
 80 518 62 500 40 500 c 0
 18 500 0 518 0 540 c 0
0 640 m 0
 0 662 18 680 40 680 c 0
 62 680 80 662 80 640 c 0
 80 618 62 600 40 600 c 0
 18 600 0 618 0 640 c 0
EndSplineSet
EndChar

StartChar: c
Encoding: 99 99 68
Width: 432
GlyphClass: 2
Flags: MW
HStem: 0 80<65 83.8901 140.11 155.89 212.11 227.89 284.11 303> 100 80<29 51> 200 80<29 51> 300 80<29 51> 400 80<65 83.8901 140.11 155.89 212.11 227.89 284.11 303>
LayerCount: 2
Fore
SplineSet
36 40 m 0
 36 62 54 80 76 80 c 0
 91.7802734375 80 105.501953125 70.7392578125 112 57.3837890625 c 1
 118.498046875 70.7392578125 132.219726562 80 148 80 c 0
 163.780273438 80 177.501953125 70.7392578125 184 57.3837890625 c 1
 190.498046875 70.7392578125 204.219726562 80 220 80 c 0
 235.780273438 80 249.501953125 70.7392578125 256 57.3837890625 c 1
 262.498046875 70.7392578125 276.219726562 80 292 80 c 0
 314 80 332 62 332 40 c 0
 332 18 314 0 292 0 c 0
 276.219726562 0 262.498046875 9.2607421875 256 22.6162109375 c 1
 249.501953125 9.2607421875 235.780273438 0 220 0 c 0
 204.219726562 0 190.498046875 9.2607421875 184 22.6162109375 c 1
 177.501953125 9.2607421875 163.780273438 0 148 0 c 0
 132.219726562 0 118.498046875 9.2607421875 112 22.6162109375 c 1
 105.501953125 9.2607421875 91.7802734375 0 76 0 c 0
 54 0 36 18 36 40 c 0
0 140 m 0
 0 162 18 180 40 180 c 0
 62 180 80 162 80 140 c 0
 80 118 62 100 40 100 c 0
 18 100 0 118 0 140 c 0
0 240 m 0
 0 262 18 280 40 280 c 0
 62 280 80 262 80 240 c 0
 80 218 62 200 40 200 c 0
 18 200 0 218 0 240 c 0
0 340 m 0
 0 362 18 380 40 380 c 0
 62 380 80 362 80 340 c 0
 80 318 62 300 40 300 c 0
 18 300 0 318 0 340 c 0
36 440 m 0
 36 462 54 480 76 480 c 0
 91.7802734375 480 105.501953125 470.739257812 112 457.383789062 c 1
 118.498046875 470.739257812 132.219726562 480 148 480 c 0
 163.780273438 480 177.501953125 470.739257812 184 457.383789062 c 1
 190.498046875 470.739257812 204.219726562 480 220 480 c 0
 235.780273438 480 249.501953125 470.739257812 256 457.383789062 c 1
 262.498046875 470.739257812 276.219726562 480 292 480 c 0
 314 480 332 462 332 440 c 0
 332 418 314 400 292 400 c 0
 276.219726562 400 262.498046875 409.260742188 256 422.616210938 c 1
 249.501953125 409.260742188 235.780273438 400 220 400 c 0
 204.219726562 400 190.498046875 409.260742188 184 422.616210938 c 1
 177.501953125 409.260742188 163.780273438 400 148 400 c 0
 132.219726562 400 118.498046875 409.260742188 112 422.616210938 c 1
 105.501953125 409.260742188 91.7802734375 400 76 400 c 0
 54 400 36 418 36 440 c 0
EndSplineSet
EndChar

StartChar: d
Encoding: 100 100 69
Width: 432
GlyphClass: 2
Flags: MW
HStem: 0 80<65 83.8901 140.11 155.89 212.11 227.89 284.11 303> 100 80<29 51 281 303> 200 80<29 51 281 303> 300 80<29 51 281 303> 400 80<65 83.8901 140.11 155.89 212.11 227.89 284.11 303> 500 80<281 303> 600 80<281 303>
LayerCount: 2
Fore
SplineSet
36 40 m 0
 36 62 54 80 76 80 c 0
 91.7802734375 80 105.501953125 70.7392578125 112 57.3837890625 c 1
 118.498046875 70.7392578125 132.219726562 80 148 80 c 0
 163.780273438 80 177.501953125 70.7392578125 184 57.3837890625 c 1
 190.498046875 70.7392578125 204.219726562 80 220 80 c 0
 235.780273438 80 249.501953125 70.7392578125 256 57.3837890625 c 1
 262.498046875 70.7392578125 276.219726562 80 292 80 c 0
 314 80 332 62 332 40 c 0
 332 18 314 0 292 0 c 0
 276.219726562 0 262.498046875 9.2607421875 256 22.6162109375 c 1
 249.501953125 9.2607421875 235.780273438 0 220 0 c 0
 204.219726562 0 190.498046875 9.2607421875 184 22.6162109375 c 1
 177.501953125 9.2607421875 163.780273438 0 148 0 c 0
 132.219726562 0 118.498046875 9.2607421875 112 22.6162109375 c 1
 105.501953125 9.2607421875 91.7802734375 0 76 0 c 0
 54 0 36 18 36 40 c 0
252 140 m 0
 252 162 270 180 292 180 c 0
 314 180 332 162 332 140 c 0
 332 118 314 100 292 100 c 0
 270 100 252 118 252 140 c 0
0 140 m 0
 0 162 18 180 40 180 c 0
 62 180 80 162 80 140 c 0
 80 118 62 100 40 100 c 0
 18 100 0 118 0 140 c 0
252 240 m 0
 252 262 270 280 292 280 c 0
 314 280 332 262 332 240 c 0
 332 218 314 200 292 200 c 0
 270 200 252 218 252 240 c 0
0 240 m 0
 0 262 18 280 40 280 c 0
 62 280 80 262 80 240 c 0
 80 218 62 200 40 200 c 0
 18 200 0 218 0 240 c 0
252 340 m 0
 252 362 270 380 292 380 c 0
 314 380 332 362 332 340 c 0
 332 318 314 300 292 300 c 0
 270 300 252 318 252 340 c 0
0 340 m 0
 0 362 18 380 40 380 c 0
 62 380 80 362 80 340 c 0
 80 318 62 300 40 300 c 0
 18 300 0 318 0 340 c 0
36 440 m 0
 36 462 54 480 76 480 c 0
 91.7802734375 480 105.501953125 470.739257812 112 457.383789062 c 1
 118.498046875 470.739257812 132.219726562 480 148 480 c 0
 163.780273438 480 177.501953125 470.739257812 184 457.383789062 c 1
 190.498046875 470.739257812 204.219726562 480 220 480 c 0
 235.780273438 480 249.501953125 470.739257812 256 457.383789062 c 1
 262.498046875 470.739257812 276.219726562 480 292 480 c 0
 314 480 332 462 332 440 c 0
 332 418 314 400 292 400 c 0
 276.219726562 400 262.498046875 409.260742188 256 422.616210938 c 1
 249.501953125 409.260742188 235.780273438 400 220 400 c 0
 204.219726562 400 190.498046875 409.260742188 184 422.616210938 c 1
 177.501953125 409.260742188 163.780273438 400 148 400 c 0
 132.219726562 400 118.498046875 409.260742188 112 422.616210938 c 1
 105.501953125 409.260742188 91.7802734375 400 76 400 c 0
 54 400 36 418 36 440 c 0
252 540 m 0
 252 562 270 580 292 580 c 0
 314 580 332 562 332 540 c 0
 332 518 314 500 292 500 c 0
 270 500 252 518 252 540 c 0
252 640 m 0
 252 662 270 680 292 680 c 0
 314 680 332 662 332 640 c 0
 332 618 314 600 292 600 c 0
 270 600 252 618 252 640 c 0
EndSplineSet
EndChar

StartChar: e
Encoding: 101 101 70
Width: 432
GlyphClass: 2
Flags: MW
HStem: 0 80<65 83.8901 140.11 155.89 212.11 227.89 284.11 303> 100 80<29 51> 200 80<29 47.8901 104.11 119.89 176.11 191.89 248.11 263.89 320.11 339> 300 80<29 51 317 339> 400 80<65 83.8901 140.11 155.89 212.11 227.89 284.11 303>
LayerCount: 2
Fore
SplineSet
36 40 m 0
 36 62 54 80 76 80 c 0
 91.7802734375 80 105.501953125 70.7392578125 112 57.3837890625 c 1
 118.498046875 70.7392578125 132.219726562 80 148 80 c 0
 163.780273438 80 177.501953125 70.7392578125 184 57.3837890625 c 1
 190.498046875 70.7392578125 204.219726562 80 220 80 c 0
 235.780273438 80 249.501953125 70.7392578125 256 57.3837890625 c 1
 262.498046875 70.7392578125 276.219726562 80 292 80 c 0
 314 80 332 62 332 40 c 0
 332 18 314 0 292 0 c 0
 276.219726562 0 262.498046875 9.2607421875 256 22.6162109375 c 1
 249.501953125 9.2607421875 235.780273438 0 220 0 c 0
 204.219726562 0 190.498046875 9.2607421875 184 22.6162109375 c 1
 177.501953125 9.2607421875 163.780273438 0 148 0 c 0
 132.219726562 0 118.498046875 9.2607421875 112 22.6162109375 c 1
 105.501953125 9.2607421875 91.7802734375 0 76 0 c 0
 54 0 36 18 36 40 c 0
0 140 m 0
 0 162 18 180 40 180 c 0
 62 180 80 162 80 140 c 0
 80 118 62 100 40 100 c 0
 18 100 0 118 0 140 c 0
0 240 m 0
 0 262 18 280 40 280 c 0
 55.7802734375 280 69.501953125 270.739257812 76 257.383789062 c 1
 82.498046875 270.739257812 96.2197265625 280 112 280 c 0
 127.780273438 280 141.501953125 270.739257812 148 257.383789062 c 1
 154.498046875 270.739257812 168.219726562 280 184 280 c 0
 199.780273438 280 213.501953125 270.739257812 220 257.383789062 c 1
 226.498046875 270.739257812 240.219726562 280 256 280 c 0
 271.780273438 280 285.501953125 270.739257812 292 257.383789062 c 1
 298.498046875 270.739257812 312.219726562 280 328 280 c 0
 350 280 368 262 368 240 c 0
 368 218 350 200 328 200 c 0
 312.219726562 200 298.498046875 209.260742188 292 222.616210938 c 1
 285.501953125 209.260742188 271.780273438 200 256 200 c 0
 240.219726562 200 226.498046875 209.260742188 220 222.616210938 c 1
 213.501953125 209.260742188 199.780273438 200 184 200 c 0
 168.219726562 200 154.498046875 209.260742188 148 222.616210938 c 1
 141.501953125 209.260742188 127.780273438 200 112 200 c 0
 96.2197265625 200 82.498046875 209.260742188 76 222.616210938 c 1
 69.501953125 209.260742188 55.7802734375 200 40 200 c 0
 18 200 0 218 0 240 c 0
288 340 m 0
 288 362 306 380 328 380 c 0
 350 380 368 362 368 340 c 0
 368 318 350 300 328 300 c 0
 306 300 288 318 288 340 c 0
0 340 m 0
 0 362 18 380 40 380 c 0
 62 380 80 362 80 340 c 0
 80 318 62 300 40 300 c 0
 18 300 0 318 0 340 c 0
36 440 m 0
 36 462 54 480 76 480 c 0
 91.7802734375 480 105.501953125 470.739257812 112 457.383789062 c 1
 118.498046875 470.739257812 132.219726562 480 148 480 c 0
 163.780273438 480 177.501953125 470.739257812 184 457.383789062 c 1
 190.498046875 470.739257812 204.219726562 480 220 480 c 0
 235.780273438 480 249.501953125 470.739257812 256 457.383789062 c 1
 262.498046875 470.739257812 276.219726562 480 292 480 c 0
 314 480 332 462 332 440 c 0
 332 418 314 400 292 400 c 0
 276.219726562 400 262.498046875 409.260742188 256 422.616210938 c 1
 249.501953125 409.260742188 235.780273438 400 220 400 c 0
 204.219726562 400 190.498046875 409.260742188 184 422.616210938 c 1
 177.501953125 409.260742188 163.780273438 400 148 400 c 0
 132.219726562 400 118.498046875 409.260742188 112 422.616210938 c 1
 105.501953125 409.260742188 91.7802734375 400 76 400 c 0
 54 400 36 418 36 440 c 0
EndSplineSet
EndChar

StartChar: f
Encoding: 102 102 71
Width: 432
GlyphClass: 2
Flags: MW
HStem: 0 80<137 159> 100 80<137 159> 200 80<137 159> 300 80<29 47.8901 104.11 119.89 176.11 191.89 248.11 267> 400 80<137 159> 500 80<137 159> 600 80<173 191.89 248.11 267>
LayerCount: 2
Fore
SplineSet
108 40 m 0
 108 62 126 80 148 80 c 0
 170 80 188 62 188 40 c 0
 188 18 170 0 148 0 c 0
 126 0 108 18 108 40 c 0
108 140 m 0
 108 162 126 180 148 180 c 0
 170 180 188 162 188 140 c 0
 188 118 170 100 148 100 c 0
 126 100 108 118 108 140 c 0
108 240 m 0
 108 262 126 280 148 280 c 0
 170 280 188 262 188 240 c 0
 188 218 170 200 148 200 c 0
 126 200 108 218 108 240 c 0
0 340 m 0
 0 362 18 380 40 380 c 0
 55.7802734375 380 69.501953125 370.739257812 76 357.383789062 c 1
 82.498046875 370.739257812 96.2197265625 380 112 380 c 0
 127.780273438 380 141.501953125 370.739257812 148 357.383789062 c 1
 154.498046875 370.739257812 168.219726562 380 184 380 c 0
 199.780273438 380 213.501953125 370.739257812 220 357.383789062 c 1
 226.498046875 370.739257812 240.219726562 380 256 380 c 0
 278 380 296 362 296 340 c 0
 296 318 278 300 256 300 c 0
 240.219726562 300 226.498046875 309.260742188 220 322.616210938 c 1
 213.501953125 309.260742188 199.780273438 300 184 300 c 0
 168.219726562 300 154.498046875 309.260742188 148 322.616210938 c 1
 141.501953125 309.260742188 127.780273438 300 112 300 c 0
 96.2197265625 300 82.498046875 309.260742188 76 322.616210938 c 1
 69.501953125 309.260742188 55.7802734375 300 40 300 c 0
 18 300 0 318 0 340 c 0
108 440 m 0
 108 462 126 480 148 480 c 0
 170 480 188 462 188 440 c 0
 188 418 170 400 148 400 c 0
 126 400 108 418 108 440 c 0
108 540 m 0
 108 562 126 580 148 580 c 0
 170 580 188 562 188 540 c 0
 188 518 170 500 148 500 c 0
 126 500 108 518 108 540 c 0
144 640 m 0
 144 662 162 680 184 680 c 0
 199.780273438 680 213.501953125 670.739257812 220 657.383789062 c 1
 226.498046875 670.739257812 240.219726562 680 256 680 c 0
 278 680 296 662 296 640 c 0
 296 618 278 600 256 600 c 0
 240.219726562 600 226.498046875 609.260742188 220 622.616210938 c 1
 213.501953125 609.260742188 199.780273438 600 184 600 c 0
 162 600 144 618 144 640 c 0
EndSplineSet
EndChar

StartChar: g
Encoding: 103 103 72
Width: 432
GlyphClass: 2
Flags: MW
HStem: -200 80<101 119.89 176.11 191.89 248.11 267> -100 80<317 339> 0 80<101 119.89 176.11 191.89 248.11 263.89 320.11 339> 100 80<65 87 317 339> 200 80<65 87 317 339> 300 80<65 87 317 339> 400 80<101 119.89 176.11 191.89 248.11 263.89 320.11 339>
LayerCount: 2
Fore
SplineSet
72 -160 m 0
 72 -138 90 -120 112 -120 c 0
 127.780273438 -120 141.501953125 -129.260742188 148 -142.616210938 c 1
 154.498046875 -129.260742188 168.219726562 -120 184 -120 c 0
 199.780273438 -120 213.501953125 -129.260742188 220 -142.616210938 c 1
 226.498046875 -129.260742188 240.219726562 -120 256 -120 c 0
 278 -120 296 -138 296 -160 c 0
 296 -182 278 -200 256 -200 c 0
 240.219726562 -200 226.498046875 -190.739257812 220 -177.383789062 c 1
 213.501953125 -190.739257812 199.780273438 -200 184 -200 c 0
 168.219726562 -200 154.498046875 -190.739257812 148 -177.383789062 c 1
 141.501953125 -190.739257812 127.780273438 -200 112 -200 c 0
 90 -200 72 -182 72 -160 c 0
288 -60 m 0
 288 -38 306 -20 328 -20 c 0
 350 -20 368 -38 368 -60 c 0
 368 -82 350 -100 328 -100 c 0
 306 -100 288 -82 288 -60 c 0
72 40 m 0
 72 62 90 80 112 80 c 0
 127.780273438 80 141.501953125 70.7392578125 148 57.3837890625 c 1
 154.498046875 70.7392578125 168.219726562 80 184 80 c 0
 199.780273438 80 213.501953125 70.7392578125 220 57.3837890625 c 1
 226.498046875 70.7392578125 240.219726562 80 256 80 c 0
 271.780273438 80 285.501953125 70.7392578125 292 57.3837890625 c 1
 298.498046875 70.7392578125 312.219726562 80 328 80 c 0
 350 80 368 62 368 40 c 0
 368 18 350 0 328 0 c 0
 312.219726562 0 298.498046875 9.2607421875 292 22.6162109375 c 1
 285.501953125 9.2607421875 271.780273438 0 256 0 c 0
 240.219726562 0 226.498046875 9.2607421875 220 22.6162109375 c 1
 213.501953125 9.2607421875 199.780273438 0 184 0 c 0
 168.219726562 0 154.498046875 9.2607421875 148 22.6162109375 c 1
 141.501953125 9.2607421875 127.780273438 0 112 0 c 0
 90 0 72 18 72 40 c 0
288 140 m 0
 288 162 306 180 328 180 c 0
 350 180 368 162 368 140 c 0
 368 118 350 100 328 100 c 0
 306 100 288 118 288 140 c 0
36 140 m 0
 36 162 54 180 76 180 c 0
 98 180 116 162 116 140 c 0
 116 118 98 100 76 100 c 0
 54 100 36 118 36 140 c 0
288 240 m 0
 288 262 306 280 328 280 c 0
 350 280 368 262 368 240 c 0
 368 218 350 200 328 200 c 0
 306 200 288 218 288 240 c 0
36 240 m 0
 36 262 54 280 76 280 c 0
 98 280 116 262 116 240 c 0
 116 218 98 200 76 200 c 0
 54 200 36 218 36 240 c 0
288 340 m 0
 288 362 306 380 328 380 c 0
 350 380 368 362 368 340 c 0
 368 318 350 300 328 300 c 0
 306 300 288 318 288 340 c 0
36 340 m 0
 36 362 54 380 76 380 c 0
 98 380 116 362 116 340 c 0
 116 318 98 300 76 300 c 0
 54 300 36 318 36 340 c 0
72 440 m 0
 72 462 90 480 112 480 c 0
 127.780273438 480 141.501953125 470.739257812 148 457.383789062 c 1
 154.498046875 470.739257812 168.219726562 480 184 480 c 0
 199.780273438 480 213.501953125 470.739257812 220 457.383789062 c 1
 226.498046875 470.739257812 240.219726562 480 256 480 c 0
 271.780273438 480 285.501953125 470.739257812 292 457.383789062 c 1
 298.498046875 470.739257812 312.219726562 480 328 480 c 0
 350 480 368 462 368 440 c 0
 368 418 350 400 328 400 c 0
 312.219726562 400 298.498046875 409.260742188 292 422.616210938 c 1
 285.501953125 409.260742188 271.780273438 400 256 400 c 0
 240.219726562 400 226.498046875 409.260742188 220 422.616210938 c 1
 213.501953125 409.260742188 199.780273438 400 184 400 c 0
 168.219726562 400 154.498046875 409.260742188 148 422.616210938 c 1
 141.501953125 409.260742188 127.780273438 400 112 400 c 0
 90 400 72 418 72 440 c 0
EndSplineSet
EndChar

StartChar: h
Encoding: 104 104 73
Width: 432
GlyphClass: 2
Flags: MW
HStem: 0 80<29 51 281 303> 100 80<29 51 281 303> 200 80<29 51 281 303> 300 80<29 51 281 303> 400 80<29 47.8901 104.11 119.89 176.11 191.89 248.11 267> 500 80<29 51> 600 80<29 51>
LayerCount: 2
Fore
SplineSet
252 40 m 0
 252 62 270 80 292 80 c 0
 314 80 332 62 332 40 c 0
 332 18 314 0 292 0 c 0
 270 0 252 18 252 40 c 0
0 40 m 0
 0 62 18 80 40 80 c 0
 62 80 80 62 80 40 c 0
 80 18 62 0 40 0 c 0
 18 0 0 18 0 40 c 0
252 140 m 0
 252 162 270 180 292 180 c 0
 314 180 332 162 332 140 c 0
 332 118 314 100 292 100 c 0
 270 100 252 118 252 140 c 0
0 140 m 0
 0 162 18 180 40 180 c 0
 62 180 80 162 80 140 c 0
 80 118 62 100 40 100 c 0
 18 100 0 118 0 140 c 0
252 240 m 0
 252 262 270 280 292 280 c 0
 314 280 332 262 332 240 c 0
 332 218 314 200 292 200 c 0
 270 200 252 218 252 240 c 0
0 240 m 0
 0 262 18 280 40 280 c 0
 62 280 80 262 80 240 c 0
 80 218 62 200 40 200 c 0
 18 200 0 218 0 240 c 0
252 340 m 0
 252 362 270 380 292 380 c 0
 314 380 332 362 332 340 c 0
 332 318 314 300 292 300 c 0
 270 300 252 318 252 340 c 0
0 340 m 0
 0 362 18 380 40 380 c 0
 62 380 80 362 80 340 c 0
 80 318 62 300 40 300 c 0
 18 300 0 318 0 340 c 0
0 440 m 0
 0 462 18 480 40 480 c 0
 55.7802734375 480 69.501953125 470.739257812 76 457.383789062 c 1
 82.498046875 470.739257812 96.2197265625 480 112 480 c 0
 127.780273438 480 141.501953125 470.739257812 148 457.383789062 c 1
 154.498046875 470.739257812 168.219726562 480 184 480 c 0
 199.780273438 480 213.501953125 470.739257812 220 457.383789062 c 1
 226.498046875 470.739257812 240.219726562 480 256 480 c 0
 278 480 296 462 296 440 c 0
 296 418 278 400 256 400 c 0
 240.219726562 400 226.498046875 409.260742188 220 422.616210938 c 1
 213.501953125 409.260742188 199.780273438 400 184 400 c 0
 168.219726562 400 154.498046875 409.260742188 148 422.616210938 c 1
 141.501953125 409.260742188 127.780273438 400 112 400 c 0
 96.2197265625 400 82.498046875 409.260742188 76 422.616210938 c 1
 69.501953125 409.260742188 55.7802734375 400 40 400 c 0
 18 400 0 418 0 440 c 0
0 540 m 0
 0 562 18 580 40 580 c 0
 62 580 80 562 80 540 c 0
 80 518 62 500 40 500 c 0
 18 500 0 518 0 540 c 0
0 640 m 0
 0 662 18 680 40 680 c 0
 62 680 80 662 80 640 c 0
 80 618 62 600 40 600 c 0
 18 600 0 618 0 640 c 0
EndSplineSet
EndChar

StartChar: i
Encoding: 105 105 74
Width: 432
GlyphClass: 2
Flags: MW
HStem: 0 80<65 83.8901 140.11 155.89 212.11 231> 100 80<137 159> 200 80<137 159> 300 80<137 159> 400 80<65 83.8901 140.11 159> 600 80<137 159>
LayerCount: 2
Fore
SplineSet
36 40 m 0
 36 62 54 80 76 80 c 0
 91.7802734375 80 105.501953125 70.7392578125 112 57.3837890625 c 1
 118.498046875 70.7392578125 132.219726562 80 148 80 c 0
 163.780273438 80 177.501953125 70.7392578125 184 57.3837890625 c 1
 190.498046875 70.7392578125 204.219726562 80 220 80 c 0
 242 80 260 62 260 40 c 0
 260 18 242 0 220 0 c 0
 204.219726562 0 190.498046875 9.2607421875 184 22.6162109375 c 1
 177.501953125 9.2607421875 163.780273438 0 148 0 c 0
 132.219726562 0 118.498046875 9.2607421875 112 22.6162109375 c 1
 105.501953125 9.2607421875 91.7802734375 0 76 0 c 0
 54 0 36 18 36 40 c 0
108 140 m 0
 108 162 126 180 148 180 c 0
 170 180 188 162 188 140 c 0
 188 118 170 100 148 100 c 0
 126 100 108 118 108 140 c 0
108 240 m 0
 108 262 126 280 148 280 c 0
 170 280 188 262 188 240 c 0
 188 218 170 200 148 200 c 0
 126 200 108 218 108 240 c 0
108 340 m 0
 108 362 126 380 148 380 c 0
 170 380 188 362 188 340 c 0
 188 318 170 300 148 300 c 0
 126 300 108 318 108 340 c 0
36 440 m 0
 36 462 54 480 76 480 c 0
 91.7802734375 480 105.501953125 470.739257812 112 457.383789062 c 1
 118.498046875 470.739257812 132.219726562 480 148 480 c 0
 170 480 188 462 188 440 c 0
 188 418 170 400 148 400 c 0
 132.219726562 400 118.498046875 409.260742188 112 422.616210938 c 1
 105.501953125 409.260742188 91.7802734375 400 76 400 c 0
 54 400 36 418 36 440 c 0
108 640 m 0
 108 662 126 680 148 680 c 0
 170 680 188 662 188 640 c 0
 188 618 170 600 148 600 c 0
 126 600 108 618 108 640 c 0
EndSplineSet
EndChar

StartChar: j
Encoding: 106 106 75
Width: 432
GlyphClass: 2
Flags: MW
HStem: -200 80<65 83.8901 140.11 155.89 212.11 231> -100 80<245 267> 0 80<245 267> 100 80<245 267> 200 80<245 267> 300 80<173 191.89 248.11 267> 600 80<245 267>
LayerCount: 2
Fore
SplineSet
36 -160 m 0
 36 -138 54 -120 76 -120 c 0
 91.7802734375 -120 105.501953125 -129.260742188 112 -142.616210938 c 1
 118.498046875 -129.260742188 132.219726562 -120 148 -120 c 0
 163.780273438 -120 177.501953125 -129.260742188 184 -142.616210938 c 1
 190.498046875 -129.260742188 204.219726562 -120 220 -120 c 0
 242 -120 260 -138 260 -160 c 0
 260 -182 242 -200 220 -200 c 0
 204.219726562 -200 190.498046875 -190.739257812 184 -177.383789062 c 1
 177.501953125 -190.739257812 163.780273438 -200 148 -200 c 0
 132.219726562 -200 118.498046875 -190.739257812 112 -177.383789062 c 1
 105.501953125 -190.739257812 91.7802734375 -200 76 -200 c 0
 54 -200 36 -182 36 -160 c 0
216 -60 m 0
 216 -38 234 -20 256 -20 c 0
 278 -20 296 -38 296 -60 c 0
 296 -82 278 -100 256 -100 c 0
 234 -100 216 -82 216 -60 c 0
216 40 m 0
 216 62 234 80 256 80 c 0
 278 80 296 62 296 40 c 0
 296 18 278 0 256 0 c 0
 234 0 216 18 216 40 c 0
216 140 m 0
 216 162 234 180 256 180 c 0
 278 180 296 162 296 140 c 0
 296 118 278 100 256 100 c 0
 234 100 216 118 216 140 c 0
216 240 m 0
 216 262 234 280 256 280 c 0
 278 280 296 262 296 240 c 0
 296 218 278 200 256 200 c 0
 234 200 216 218 216 240 c 0
144 340 m 0
 144 362 162 380 184 380 c 0
 199.780273438 380 213.501953125 370.739257812 220 357.383789062 c 1
 226.498046875 370.739257812 240.219726562 380 256 380 c 0
 278 380 296 362 296 340 c 0
 296 318 278 300 256 300 c 0
 240.219726562 300 226.498046875 309.260742188 220 322.616210938 c 1
 213.501953125 309.260742188 199.780273438 300 184 300 c 0
 162 300 144 318 144 340 c 0
216 640 m 0
 216 662 234 680 256 680 c 0
 278 680 296 662 296 640 c 0
 296 618 278 600 256 600 c 0
 234 600 216 618 216 640 c 0
EndSplineSet
EndChar

StartChar: k
Encoding: 107 107 76
Width: 432
GlyphClass: 2
Flags: MW
HStem: 0 80<65 87 281 303> 100 80<65 87 209 231> 200 80<65 83.8901 140.11 159> 300 80<65 87 209 231> 400 80<65 87 281 303> 500 80<65 87> 600 80<65 87>
LayerCount: 2
Fore
SplineSet
252 40 m 0
 252 62 270 80 292 80 c 0
 314 80 332 62 332 40 c 0
 332 18 314 0 292 0 c 0
 270 0 252 18 252 40 c 0
36 40 m 0
 36 62 54 80 76 80 c 0
 98 80 116 62 116 40 c 0
 116 18 98 0 76 0 c 0
 54 0 36 18 36 40 c 0
180 140 m 0
 180 162 198 180 220 180 c 0
 242 180 260 162 260 140 c 0
 260 118 242 100 220 100 c 0
 198 100 180 118 180 140 c 0
36 140 m 0
 36 162 54 180 76 180 c 0
 98 180 116 162 116 140 c 0
 116 118 98 100 76 100 c 0
 54 100 36 118 36 140 c 0
36 240 m 0
 36 262 54 280 76 280 c 0
 91.7802734375 280 105.501953125 270.739257812 112 257.383789062 c 1
 118.498046875 270.739257812 132.219726562 280 148 280 c 0
 170 280 188 262 188 240 c 0
 188 218 170 200 148 200 c 0
 132.219726562 200 118.498046875 209.260742188 112 222.616210938 c 1
 105.501953125 209.260742188 91.7802734375 200 76 200 c 0
 54 200 36 218 36 240 c 0
180 340 m 0
 180 362 198 380 220 380 c 0
 242 380 260 362 260 340 c 0
 260 318 242 300 220 300 c 0
 198 300 180 318 180 340 c 0
36 340 m 0
 36 362 54 380 76 380 c 0
 98 380 116 362 116 340 c 0
 116 318 98 300 76 300 c 0
 54 300 36 318 36 340 c 0
252 440 m 0
 252 462 270 480 292 480 c 0
 314 480 332 462 332 440 c 0
 332 418 314 400 292 400 c 0
 270 400 252 418 252 440 c 0
36 440 m 0
 36 462 54 480 76 480 c 0
 98 480 116 462 116 440 c 0
 116 418 98 400 76 400 c 0
 54 400 36 418 36 440 c 0
36 540 m 0
 36 562 54 580 76 580 c 0
 98 580 116 562 116 540 c 0
 116 518 98 500 76 500 c 0
 54 500 36 518 36 540 c 0
36 640 m 0
 36 662 54 680 76 680 c 0
 98 680 116 662 116 640 c 0
 116 618 98 600 76 600 c 0
 54 600 36 618 36 640 c 0
EndSplineSet
EndChar

StartChar: l
Encoding: 108 108 77
Width: 432
GlyphClass: 2
Flags: MW
HStem: 0 80<65 83.8901 140.11 155.89 212.11 231> 100 80<137 159> 200 80<137 159> 300 80<137 159> 400 80<137 159> 500 80<137 159> 600 80<65 83.8901 140.11 159>
LayerCount: 2
Fore
SplineSet
36 40 m 0
 36 62 54 80 76 80 c 0
 91.7802734375 80 105.501953125 70.7392578125 112 57.3837890625 c 1
 118.498046875 70.7392578125 132.219726562 80 148 80 c 0
 163.780273438 80 177.501953125 70.7392578125 184 57.3837890625 c 1
 190.498046875 70.7392578125 204.219726562 80 220 80 c 0
 242 80 260 62 260 40 c 0
 260 18 242 0 220 0 c 0
 204.219726562 0 190.498046875 9.2607421875 184 22.6162109375 c 1
 177.501953125 9.2607421875 163.780273438 0 148 0 c 0
 132.219726562 0 118.498046875 9.2607421875 112 22.6162109375 c 1
 105.501953125 9.2607421875 91.7802734375 0 76 0 c 0
 54 0 36 18 36 40 c 0
108 140 m 0
 108 162 126 180 148 180 c 0
 170 180 188 162 188 140 c 0
 188 118 170 100 148 100 c 0
 126 100 108 118 108 140 c 0
108 240 m 0
 108 262 126 280 148 280 c 0
 170 280 188 262 188 240 c 0
 188 218 170 200 148 200 c 0
 126 200 108 218 108 240 c 0
108 340 m 0
 108 362 126 380 148 380 c 0
 170 380 188 362 188 340 c 0
 188 318 170 300 148 300 c 0
 126 300 108 318 108 340 c 0
108 440 m 0
 108 462 126 480 148 480 c 0
 170 480 188 462 188 440 c 0
 188 418 170 400 148 400 c 0
 126 400 108 418 108 440 c 0
108 540 m 0
 108 562 126 580 148 580 c 0
 170 580 188 562 188 540 c 0
 188 518 170 500 148 500 c 0
 126 500 108 518 108 540 c 0
36 640 m 0
 36 662 54 680 76 680 c 0
 91.7802734375 680 105.501953125 670.739257812 112 657.383789062 c 1
 118.498046875 670.739257812 132.219726562 680 148 680 c 0
 170 680 188 662 188 640 c 0
 188 618 170 600 148 600 c 0
 132.219726562 600 118.498046875 609.260742188 112 622.616210938 c 1
 105.501953125 609.260742188 91.7802734375 600 76 600 c 0
 54 600 36 618 36 640 c 0
EndSplineSet
EndChar

StartChar: m
Encoding: 109 109 78
Width: 432
GlyphClass: 2
Flags: MW
HStem: 0 80<29 51 173 195 317 339> 100 80<29 51 173 195 317 339> 200 80<29 51 173 195 317 339> 300 80<29 51 173 195 317 339> 400 80<65 83.8901 140.11 155.89 212.11 227.89 284.11 303>
CounterMasks: 1 07
LayerCount: 2
Fore
SplineSet
288 40 m 0
 288 62 306 80 328 80 c 0
 350 80 368 62 368 40 c 0
 368 18 350 0 328 0 c 0
 306 0 288 18 288 40 c 0
144 40 m 0
 144 62 162 80 184 80 c 0
 206 80 224 62 224 40 c 0
 224 18 206 0 184 0 c 0
 162 0 144 18 144 40 c 0
0 40 m 0
 0 62 18 80 40 80 c 0
 62 80 80 62 80 40 c 0
 80 18 62 0 40 0 c 0
 18 0 0 18 0 40 c 0
288 140 m 0
 288 162 306 180 328 180 c 0
 350 180 368 162 368 140 c 0
 368 118 350 100 328 100 c 0
 306 100 288 118 288 140 c 0
144 140 m 0
 144 162 162 180 184 180 c 0
 206 180 224 162 224 140 c 0
 224 118 206 100 184 100 c 0
 162 100 144 118 144 140 c 0
0 140 m 0
 0 162 18 180 40 180 c 0
 62 180 80 162 80 140 c 0
 80 118 62 100 40 100 c 0
 18 100 0 118 0 140 c 0
288 240 m 0
 288 262 306 280 328 280 c 0
 350 280 368 262 368 240 c 0
 368 218 350 200 328 200 c 0
 306 200 288 218 288 240 c 0
144 240 m 0
 144 262 162 280 184 280 c 0
 206 280 224 262 224 240 c 0
 224 218 206 200 184 200 c 0
 162 200 144 218 144 240 c 0
0 240 m 0
 0 262 18 280 40 280 c 0
 62 280 80 262 80 240 c 0
 80 218 62 200 40 200 c 0
 18 200 0 218 0 240 c 0
288 340 m 0
 288 362 306 380 328 380 c 0
 350 380 368 362 368 340 c 0
 368 318 350 300 328 300 c 0
 306 300 288 318 288 340 c 0
144 340 m 0
 144 362 162 380 184 380 c 0
 206 380 224 362 224 340 c 0
 224 318 206 300 184 300 c 0
 162 300 144 318 144 340 c 0
0 340 m 0
 0 362 18 380 40 380 c 0
 62 380 80 362 80 340 c 0
 80 318 62 300 40 300 c 0
 18 300 0 318 0 340 c 0
36 440 m 0
 36 462 54 480 76 480 c 0
 91.7802734375 480 105.501953125 470.739257812 112 457.383789062 c 1
 118.498046875 470.739257812 132.219726562 480 148 480 c 0
 163.780273438 480 177.501953125 470.739257812 184 457.383789062 c 1
 190.498046875 470.739257812 204.219726562 480 220 480 c 0
 235.780273438 480 249.501953125 470.739257812 256 457.383789062 c 1
 262.498046875 470.739257812 276.219726562 480 292 480 c 0
 314 480 332 462 332 440 c 0
 332 418 314 400 292 400 c 0
 276.219726562 400 262.498046875 409.260742188 256 422.616210938 c 1
 249.501953125 409.260742188 235.780273438 400 220 400 c 0
 204.219726562 400 190.498046875 409.260742188 184 422.616210938 c 1
 177.501953125 409.260742188 163.780273438 400 148 400 c 0
 132.219726562 400 118.498046875 409.260742188 112 422.616210938 c 1
 105.501953125 409.260742188 91.7802734375 400 76 400 c 0
 54 400 36 418 36 440 c 0
EndSplineSet
EndChar

StartChar: n
Encoding: 110 110 79
Width: 432
GlyphClass: 2
Flags: MW
HStem: 0 80<29 51 281 303> 100 80<29 51 281 303> 200 80<29 51 281 303> 300 80<29 51 281 303> 400 80<29 47.8901 104.11 119.89 176.11 191.89 248.11 267>
LayerCount: 2
Fore
SplineSet
252 40 m 0
 252 62 270 80 292 80 c 0
 314 80 332 62 332 40 c 0
 332 18 314 0 292 0 c 0
 270 0 252 18 252 40 c 0
0 40 m 0
 0 62 18 80 40 80 c 0
 62 80 80 62 80 40 c 0
 80 18 62 0 40 0 c 0
 18 0 0 18 0 40 c 0
252 140 m 0
 252 162 270 180 292 180 c 0
 314 180 332 162 332 140 c 0
 332 118 314 100 292 100 c 0
 270 100 252 118 252 140 c 0
0 140 m 0
 0 162 18 180 40 180 c 0
 62 180 80 162 80 140 c 0
 80 118 62 100 40 100 c 0
 18 100 0 118 0 140 c 0
252 240 m 0
 252 262 270 280 292 280 c 0
 314 280 332 262 332 240 c 0
 332 218 314 200 292 200 c 0
 270 200 252 218 252 240 c 0
0 240 m 0
 0 262 18 280 40 280 c 0
 62 280 80 262 80 240 c 0
 80 218 62 200 40 200 c 0
 18 200 0 218 0 240 c 0
252 340 m 0
 252 362 270 380 292 380 c 0
 314 380 332 362 332 340 c 0
 332 318 314 300 292 300 c 0
 270 300 252 318 252 340 c 0
0 340 m 0
 0 362 18 380 40 380 c 0
 62 380 80 362 80 340 c 0
 80 318 62 300 40 300 c 0
 18 300 0 318 0 340 c 0
0 440 m 0
 0 462 18 480 40 480 c 0
 55.7802734375 480 69.501953125 470.739257812 76 457.383789062 c 1
 82.498046875 470.739257812 96.2197265625 480 112 480 c 0
 127.780273438 480 141.501953125 470.739257812 148 457.383789062 c 1
 154.498046875 470.739257812 168.219726562 480 184 480 c 0
 199.780273438 480 213.501953125 470.739257812 220 457.383789062 c 1
 226.498046875 470.739257812 240.219726562 480 256 480 c 0
 278 480 296 462 296 440 c 0
 296 418 278 400 256 400 c 0
 240.219726562 400 226.498046875 409.260742188 220 422.616210938 c 1
 213.501953125 409.260742188 199.780273438 400 184 400 c 0
 168.219726562 400 154.498046875 409.260742188 148 422.616210938 c 1
 141.501953125 409.260742188 127.780273438 400 112 400 c 0
 96.2197265625 400 82.498046875 409.260742188 76 422.616210938 c 1
 69.501953125 409.260742188 55.7802734375 400 40 400 c 0
 18 400 0 418 0 440 c 0
EndSplineSet
EndChar

StartChar: o
Encoding: 111 111 80
Width: 432
GlyphClass: 2
Flags: MW
HStem: 0 80<65 83.8901 140.11 155.89 212.11 227.89 284.11 303> 100 80<29 51 317 339> 200 80<29 51 317 339> 300 80<29 51 317 339> 400 80<65 83.8901 140.11 155.89 212.11 227.89 284.11 303>
LayerCount: 2
Fore
SplineSet
36 40 m 0
 36 62 54 80 76 80 c 0
 91.7802734375 80 105.501953125 70.7392578125 112 57.3837890625 c 1
 118.498046875 70.7392578125 132.219726562 80 148 80 c 0
 163.780273438 80 177.501953125 70.7392578125 184 57.3837890625 c 1
 190.498046875 70.7392578125 204.219726562 80 220 80 c 0
 235.780273438 80 249.501953125 70.7392578125 256 57.3837890625 c 1
 262.498046875 70.7392578125 276.219726562 80 292 80 c 0
 314 80 332 62 332 40 c 0
 332 18 314 0 292 0 c 0
 276.219726562 0 262.498046875 9.2607421875 256 22.6162109375 c 1
 249.501953125 9.2607421875 235.780273438 0 220 0 c 0
 204.219726562 0 190.498046875 9.2607421875 184 22.6162109375 c 1
 177.501953125 9.2607421875 163.780273438 0 148 0 c 0
 132.219726562 0 118.498046875 9.2607421875 112 22.6162109375 c 1
 105.501953125 9.2607421875 91.7802734375 0 76 0 c 0
 54 0 36 18 36 40 c 0
288 140 m 0
 288 162 306 180 328 180 c 0
 350 180 368 162 368 140 c 0
 368 118 350 100 328 100 c 0
 306 100 288 118 288 140 c 0
0 140 m 0
 0 162 18 180 40 180 c 0
 62 180 80 162 80 140 c 0
 80 118 62 100 40 100 c 0
 18 100 0 118 0 140 c 0
288 240 m 0
 288 262 306 280 328 280 c 0
 350 280 368 262 368 240 c 0
 368 218 350 200 328 200 c 0
 306 200 288 218 288 240 c 0
0 240 m 0
 0 262 18 280 40 280 c 0
 62 280 80 262 80 240 c 0
 80 218 62 200 40 200 c 0
 18 200 0 218 0 240 c 0
288 340 m 0
 288 362 306 380 328 380 c 0
 350 380 368 362 368 340 c 0
 368 318 350 300 328 300 c 0
 306 300 288 318 288 340 c 0
0 340 m 0
 0 362 18 380 40 380 c 0
 62 380 80 362 80 340 c 0
 80 318 62 300 40 300 c 0
 18 300 0 318 0 340 c 0
36 440 m 0
 36 462 54 480 76 480 c 0
 91.7802734375 480 105.501953125 470.739257812 112 457.383789062 c 1
 118.498046875 470.739257812 132.219726562 480 148 480 c 0
 163.780273438 480 177.501953125 470.739257812 184 457.383789062 c 1
 190.498046875 470.739257812 204.219726562 480 220 480 c 0
 235.780273438 480 249.501953125 470.739257812 256 457.383789062 c 1
 262.498046875 470.739257812 276.219726562 480 292 480 c 0
 314 480 332 462 332 440 c 0
 332 418 314 400 292 400 c 0
 276.219726562 400 262.498046875 409.260742188 256 422.616210938 c 1
 249.501953125 409.260742188 235.780273438 400 220 400 c 0
 204.219726562 400 190.498046875 409.260742188 184 422.616210938 c 1
 177.501953125 409.260742188 163.780273438 400 148 400 c 0
 132.219726562 400 118.498046875 409.260742188 112 422.616210938 c 1
 105.501953125 409.260742188 91.7802734375 400 76 400 c 0
 54 400 36 418 36 440 c 0
EndSplineSet
EndChar

StartChar: p
Encoding: 112 112 81
Width: 432
GlyphClass: 2
Flags: MW
HStem: -200 80<29 51> -100 80<29 51> 0 80<29 47.8901 104.11 119.89 176.11 191.89 248.11 267> 100 80<29 51 281 303> 200 80<29 51 281 303> 300 80<29 51 281 303> 400 80<29 47.8901 104.11 119.89 176.11 191.89 248.11 267>
LayerCount: 2
Fore
SplineSet
0 -160 m 0
 0 -138 18 -120 40 -120 c 0
 62 -120 80 -138 80 -160 c 0
 80 -182 62 -200 40 -200 c 0
 18 -200 0 -182 0 -160 c 0
0 -60 m 0
 0 -38 18 -20 40 -20 c 0
 62 -20 80 -38 80 -60 c 0
 80 -82 62 -100 40 -100 c 0
 18 -100 0 -82 0 -60 c 0
0 40 m 0
 0 62 18 80 40 80 c 0
 55.7802734375 80 69.501953125 70.7392578125 76 57.3837890625 c 1
 82.498046875 70.7392578125 96.2197265625 80 112 80 c 0
 127.780273438 80 141.501953125 70.7392578125 148 57.3837890625 c 1
 154.498046875 70.7392578125 168.219726562 80 184 80 c 0
 199.780273438 80 213.501953125 70.7392578125 220 57.3837890625 c 1
 226.498046875 70.7392578125 240.219726562 80 256 80 c 0
 278 80 296 62 296 40 c 0
 296 18 278 0 256 0 c 0
 240.219726562 0 226.498046875 9.2607421875 220 22.6162109375 c 1
 213.501953125 9.2607421875 199.780273438 0 184 0 c 0
 168.219726562 0 154.498046875 9.2607421875 148 22.6162109375 c 1
 141.501953125 9.2607421875 127.780273438 0 112 0 c 0
 96.2197265625 0 82.498046875 9.2607421875 76 22.6162109375 c 1
 69.501953125 9.2607421875 55.7802734375 0 40 0 c 0
 18 0 0 18 0 40 c 0
252 140 m 0
 252 162 270 180 292 180 c 0
 314 180 332 162 332 140 c 0
 332 118 314 100 292 100 c 0
 270 100 252 118 252 140 c 0
0 140 m 0
 0 162 18 180 40 180 c 0
 62 180 80 162 80 140 c 0
 80 118 62 100 40 100 c 0
 18 100 0 118 0 140 c 0
252 240 m 0
 252 262 270 280 292 280 c 0
 314 280 332 262 332 240 c 0
 332 218 314 200 292 200 c 0
 270 200 252 218 252 240 c 0
0 240 m 0
 0 262 18 280 40 280 c 0
 62 280 80 262 80 240 c 0
 80 218 62 200 40 200 c 0
 18 200 0 218 0 240 c 0
252 340 m 0
 252 362 270 380 292 380 c 0
 314 380 332 362 332 340 c 0
 332 318 314 300 292 300 c 0
 270 300 252 318 252 340 c 0
0 340 m 0
 0 362 18 380 40 380 c 0
 62 380 80 362 80 340 c 0
 80 318 62 300 40 300 c 0
 18 300 0 318 0 340 c 0
0 440 m 0
 0 462 18 480 40 480 c 0
 55.7802734375 480 69.501953125 470.739257812 76 457.383789062 c 1
 82.498046875 470.739257812 96.2197265625 480 112 480 c 0
 127.780273438 480 141.501953125 470.739257812 148 457.383789062 c 1
 154.498046875 470.739257812 168.219726562 480 184 480 c 0
 199.780273438 480 213.501953125 470.739257812 220 457.383789062 c 1
 226.498046875 470.739257812 240.219726562 480 256 480 c 0
 278 480 296 462 296 440 c 0
 296 418 278 400 256 400 c 0
 240.219726562 400 226.498046875 409.260742188 220 422.616210938 c 1
 213.501953125 409.260742188 199.780273438 400 184 400 c 0
 168.219726562 400 154.498046875 409.260742188 148 422.616210938 c 1
 141.501953125 409.260742188 127.780273438 400 112 400 c 0
 96.2197265625 400 82.498046875 409.260742188 76 422.616210938 c 1
 69.501953125 409.260742188 55.7802734375 400 40 400 c 0
 18 400 0 418 0 440 c 0
EndSplineSet
EndChar

